<svg xmlns="http://www.w3.org/2000/svg" width="20.898" height="20.898" viewBox="0 0 20.898 20.898">
    <defs>
        <style>
            .cls-2{fill:#bbb}
        </style>
    </defs>
    <g id="Group_1632" transform="translate(-3424.428 -1231.391)">
        <path id="Path_2192" fill="#bbb" stroke="#bbb" d="M3426.955 1251.789h-.038a1.139 1.139 0 0 1-1.134-1.141v-.056a1.427 1.427 0 0 1 .052-.287l.851-3.077a1.031 1.031 0 0 0-.084-.183 1.172 1.172 0 0 0-.068-.1l-.024-.035a9.611 9.611 0 0 1 1.235-12.083 9.979 9.979 0 0 1 7.123-2.935 10.1 10.1 0 0 1 6.316 2.214 9.735 9.735 0 0 1 3.428 5.538 9.565 9.565 0 0 1 .212 2 9.767 9.767 0 0 1-9.8 9.813 11.677 11.677 0 0 1-2.7-.4c-.706-.2-1.386-.459-1.415-.471a.667.667 0 0 0-.239-.044.653.653 0 0 0-.256.052l-.036.014-3 1.081a1.413 1.413 0 0 1-.392.1zm.732-5.678c.05.068.1.14.141.213l.006.01a1.586 1.586 0 0 1 .243 1.2l-.733 2.654 2.539-.916a2.06 2.06 0 0 1 .789-.156h.008a2.083 2.083 0 0 1 .747.139c.222.086.774.285 1.286.428a10.13 10.13 0 0 0 2.317.345 8.393 8.393 0 0 0 8.376-8.391 8.145 8.145 0 0 0-.181-1.7 8.617 8.617 0 0 0-14.471-4.109 8.189 8.189 0 0 0-1.066 10.282zm-.3 1.236z"/>
        <path id="Rectangle_6110" d="M0 0H12.134V1.293H0z" class="cls-2" transform="translate(3428.81 1238.064)"/>
        <path id="Rectangle_6111" d="M0 0H12.134V1.293H0z" class="cls-2" transform="translate(3428.81 1241.193)"/>
        <path id="Rectangle_6112" d="M0 0H12.134V1.293H0z" class="cls-2" transform="translate(3428.81 1244.323)"/>
        <path id="Path_2193" fill="#1e59ea" d="M3682.407 1491.694l.891 1.806a.6.6 0 0 0 .453.329l1.993.29a.6.6 0 0 1 .333 1.025l-1.442 1.406a.6.6 0 0 0-.173.532l.341 1.985a.6.6 0 0 1-.873.634l-1.783-.937a.6.6 0 0 0-.559 0l-1.782.937a.6.6 0 0 1-.873-.634l.341-1.985a.6.6 0 0 0-.173-.532l-1.442-1.406a.6.6 0 0 1 .333-1.025l1.993-.29a.6.6 0 0 0 .453-.329l.891-1.806a.6.6 0 0 1 1.078 0z" transform="translate(-241.332 -247.944)"/>
    </g>
</svg>
