<svg xmlns="http://www.w3.org/2000/svg" width="24.01" height="24.01" viewBox="0 0 24.01 24.01">
    <path id="prefix__messenger" d="M11.75 0A11.752 11.752 0 0 0 1.558 17.6L.044 22.3A.918.918 0 0 0 1.2 23.456l4.7-1.514A11.75 11.75 0 1 0 11.75 0zm0 21.664a9.885 9.885 0 0 1-5.248-1.5.919.919 0 0 0-.768-.1L2.34 21.16l1.093-3.394a.919.919 0 0 0-.1-.768 9.915 9.915 0 1 1 8.412 4.666zm1.15-9.914a1.147 1.147 0 1 1-1.15-1.15 1.147 1.147 0 0 1 1.15 1.15zm4.59 0a1.147 1.147 0 1 1-1.15-1.15 1.147 1.147 0 0 1 1.147 1.15zm-9.18 0a1.147 1.147 0 1 1-1.15-1.15 1.147 1.147 0 0 1 1.148 1.15zm0 0" transform="translate(.26 .25)" style="fill:#fff;stroke:#fff;stroke-width:.5px"/>
</svg>
