<svg xmlns="http://www.w3.org/2000/svg" width="47.825" height="43.3" viewBox="0 0 47.825 43.3">
    <defs>
        <style>
            .action_gray-1{fill:#fff}.action_gray-2{fill:#d0d2d3}
        </style>
    </defs>
    <g id="prefix__Group_820" data-name="Group 820" transform="translate(-2.475 -504.6)">
        <g id="prefix__Group_814" data-name="Group 814">
            <path id="prefix__Path_1431" d="M44.8 534.2l-28.1-10.8 3.6-9.4 28.1 10.8z" class="action_gray-1" data-name="Path 1431"/>
            <path id="prefix__Path_1432" d="M45.6 536.1l-30.7-11.8 4.7-12.1L50.3 524zm-27.1-13.5l25.4 9.8 2.6-6.8-25.4-9.8z" class="action_gray-2" data-name="Path 1432"/>
        </g>
        <g id="prefix__Group_815" data-name="Group 815">
            <path id="prefix__Path_1433" d="M40.2 546l-8.6-3.2 4.6-11.9 8.6 3.3z" class="action_gray-1" data-name="Path 1433"/>
            <path id="prefix__Path_1434" d="M41 547.9l-11.2-4.3 5.6-14.5 11.2 4.3zm-7.5-6l5.9 2.3 3.5-9.2-5.9-2.3z" class="action_gray-2" data-name="Path 1434"/>
        </g>
        <g id="prefix__Group_816" data-name="Group 816">
            <path id="prefix__Path_1435" d="M34 536.7a6.085 6.085 0 0 1-3.5-8" class="action_gray-1" data-name="Path 1435"/>
            <path id="prefix__Path_1436" d="M33.5 538a7.5 7.5 0 0 1-4.2-4 7.311 7.311 0 0 1-.1-5.8l2.6 1a4.5 4.5 0 0 0 .1 3.6 4.553 4.553 0 0 0 2.6 2.5z" class="action_gray-2" data-name="Path 1436"/>
        </g>
        <g id="prefix__Group_817" data-name="Group 817">
            <path id="prefix__Line_1044" d="M0 0L28.3 10.9" class="action_gray-1" data-name="Line 1044" transform="translate(19.1 517.2)"/>
            <path id="prefix__Rectangle_3549" d="M0 0H1.4V30.3H0z" class="action_gray-2" data-name="Rectangle 3549" transform="rotate(-68.973 386.366 245.18)"/>
        </g>
        <g id="prefix__Group_818" data-name="Group 818">
            <path id="prefix__Line_1045" d="M0 0L27.8 10.7" class="action_gray-1" data-name="Line 1045" transform="translate(18.4 519.8)"/>
            <path id="prefix__Rectangle_3550" d="M0 0H1.4V29.8H0z" class="action_gray-2" data-name="Rectangle 3550" transform="rotate(-68.973 387.895 247.037)"/>
        </g>
        <g id="prefix__Group_819" data-name="Group 819">
            <path id="prefix__Line_1046" d="M1.3 0L0 3.5" class="action_gray-1" data-name="Line 1046" transform="translate(21.6 521.8)"/>
            <path id="prefix__Rectangle_3551" d="M0 0H3.7V2.8H0z" class="action_gray-2" data-name="Rectangle 3551" transform="rotate(-68.881 392.714 247.647)"/>
        </g>
        <path id="prefix__Path_1437" d="M7.7 525.5a1.606 1.606 0 0 1-1.1-.5 1.337 1.337 0 0 1-.2-1.6l1.1-2.2-3.8-.4a1.383 1.383 0 0 1-1.2-1.1 1.426 1.426 0 0 1 .6-1.5l3.1-2.1-2.8-2.9a1.358 1.358 0 0 1-.2-1.6 1.6 1.6 0 0 1 1.4-.8l3.2.3-.7-3.1a1.426 1.426 0 0 1 .6-1.5 1.535 1.535 0 0 1 1.6 0l3.2 2.3 1-3.2a1.412 1.412 0 0 1 1.4-1 1.3 1.3 0 0 1 1.3 1L18 512l-2.7.8-.5-1.9-.2.6a1.352 1.352 0 0 1-.9.9 1.531 1.531 0 0 1-1.3-.2l-1.8-1.3.3 1.6a1.314 1.314 0 0 1-.3 1.2 1.845 1.845 0 0 1-1.2.5l-1.3-.1 1.3 1.4a1.5 1.5 0 0 1 .4 1.1 1.326 1.326 0 0 1-.6 1l-1.2.8 2 .2a1.23 1.23 0 0 1 1.1.7 1.483 1.483 0 0 1 0 1.3l-.5.9 1.9-.6.9 2.7-5.1 1.7a.846.846 0 0 1-.6.2z" class="action_gray-2" data-name="Path 1437"/>
        <path id="prefix__Path_1438" d="M34.4 535.7a4.671 4.671 0 0 1-2.8-2.7 5.249 5.249 0 0 1-.1-3.9l1.3.5a3.677 3.677 0 0 0 2.1 4.7z" class="action_gray-2" data-name="Path 1438"/>
    </g>
</svg>
