<svg xmlns="http://www.w3.org/2000/svg" width="47.825" height="43.5" viewBox="0 0 47.825 43.5">
    <defs>
        <style>
            .action-1{fill:#58595b}.action-2{fill:#404041}
        </style>
    </defs>
    <g id="prefix__Group_827" data-name="Group 827" transform="translate(-60.975 -504.4)">
        <g id="prefix__Group_821" data-name="Group 821">
            <path id="prefix__Path_1439" d="M103.2 534.2l-28-10.8 3.6-9.4 28.1 10.8z" class="action-1" data-name="Path 1439"/>
            <path id="prefix__Path_1440" d="M104.1 536.1l-30.7-11.8 4.7-12.1 30.7 11.8zM77 522.6l25.4 9.8 2.6-6.8-25.4-9.8z" class="action-2" data-name="Path 1440"/>
        </g>
        <g id="prefix__Group_822" data-name="Group 822">
            <path id="prefix__Path_1441" d="M98.7 546l-8.6-3.2 4.6-11.9 8.5 3.3z" class="action-1" data-name="Path 1441"/>
            <path id="prefix__Path_1442" d="M99.5 547.9l-11.2-4.3 5.6-14.5 11.2 4.3zm-7.6-6l5.9 2.3 3.5-9.2-5.9-2.3z" class="action-2" data-name="Path 1442"/>
        </g>
        <g id="prefix__Group_823" data-name="Group 823">
            <path id="prefix__Path_1443" d="M92.5 536.7a6.085 6.085 0 0 1-3.5-8" class="action-1" data-name="Path 1443"/>
            <path id="prefix__Path_1444" d="M91.9 538a7.5 7.5 0 0 1-4.2-4 7.311 7.311 0 0 1-.1-5.8l2.6 1a4.5 4.5 0 0 0 .1 3.6 4.553 4.553 0 0 0 2.6 2.5z" class="action-2" data-name="Path 1444"/>
        </g>
        <g id="prefix__Group_824" data-name="Group 824">
            <path id="prefix__Line_1047" d="M0 0L28.3 10.9" class="action-1" data-name="Line 1047" transform="translate(77.6 517.2)"/>
            <path id="prefix__Rectangle_3552" d="M0 0H1.4V30.3H0z" class="action-2" data-name="Rectangle 3552" transform="rotate(-68.973 415.63 202.672)"/>
        </g>
        <g id="prefix__Group_825" data-name="Group 825">
            <path id="prefix__Line_1048" d="M0 0L27.8 10.7" class="action-1" data-name="Line 1048" transform="translate(76.9 519.8)"/>
            <path id="prefix__Rectangle_3553" d="M0 0H1.4V29.8H0z" class="action-2" data-name="Rectangle 3553" transform="rotate(-68.973 417.11 204.455)"/>
        </g>
        <g id="prefix__Group_826" data-name="Group 826">
            <path id="prefix__Line_1049" d="M1.4 0L0 3.5" class="action-1" data-name="Line 1049" transform="translate(80 521.8)"/>
            <path id="prefix__Rectangle_3554" d="M0 0H3.7V2.8H0z" class="action-2" data-name="Rectangle 3554" transform="rotate(-68.875 422.021 205.04)"/>
        </g>
        <path id="prefix__Path_1445" d="M66.2 525.5a1.606 1.606 0 0 1-1.1-.5 1.358 1.358 0 0 1-.2-1.6l1.1-2.2-3.8-.4a1.383 1.383 0 0 1-1.2-1.1 1.426 1.426 0 0 1 .6-1.5l3.1-2.1-2.8-2.9a1.358 1.358 0 0 1-.2-1.6 1.6 1.6 0 0 1 1.4-.8l3.2.3-.7-3.3a1.426 1.426 0 0 1 .6-1.5 1.535 1.535 0 0 1 1.6 0l3.2 2.3 1-3.2a1.412 1.412 0 0 1 1.4-1 1.3 1.3 0 0 1 1.3 1l1.8 6.4-2.7.8-.5-1.9-.2.6a1.352 1.352 0 0 1-.9.9 1.531 1.531 0 0 1-1.3-.2l-1.8-1.3.3 1.6a1.314 1.314 0 0 1-.3 1.2 1.845 1.845 0 0 1-1.2.5l-1.3-.1 1.3 1.4a1.5 1.5 0 0 1 .4 1.1 1.326 1.326 0 0 1-.6 1l-1.2.8 2 .2a1.23 1.23 0 0 1 1.1.7 1.483 1.483 0 0 1 0 1.3l-.5.9 1.9-.6.9 2.7-5.1 1.7c-.3.4-.5.4-.6.4z" data-name="Path 1445" style="fill:#be3115"/>
        <path id="prefix__Path_1446" d="M92.8 535.7A4.671 4.671 0 0 1 90 533a4.809 4.809 0 0 1-.1-3.9l1.3.5a3.677 3.677 0 0 0 2.1 4.7z" class="action-2" data-name="Path 1446"/>
    </g>
</svg>
