<svg xmlns="http://www.w3.org/2000/svg" width="46.8" height="42.8" viewBox="0 0 46.8 42.8">
    <defs>
        <style>
            .adventure_gray-2{fill:#d0d2d3}
        </style>
    </defs>
    <g id="prefix__Group_794" data-name="Group 794" transform="translate(-286.7 -176.9)">
        <g id="prefix__Group_792" data-name="Group 792">
            <path id="prefix__Path_1379" d="M320.8 193.1l-10.6 3.2-10.7-3.2-11.3 3.8v20.8l11.3-4.1 10.7 4 10.6-4 11.3 4.1v-20.8z" data-name="Path 1379" style="fill:#f1f1f2"/>
            <path id="prefix__Path_1380" d="M333.5 219.7l-12.7-4.5-10.7 4-10.7-4-12.7 4.5V196l12.7-4.4 10.7 3.2 10.7-3.2 12.7 4.4zm-34-7.6l10.7 4 10.7-4 9.9 3.5V198l-9.9-3.4-10.7 3.2-10.7-3.2-9.9 3.4v17.7z" class="adventure_gray-2" data-name="Path 1380"/>
        </g>
        <g id="prefix__Group_793" data-name="Group 793">
            <path id="prefix__Path_1381" d="M294.8 206.6a5.672 5.672 0 0 1-.6-.9l1.3-.6-.6.3.6-.3a2.053 2.053 0 0 0 .5.7z" class="adventure_gray-2" data-name="Path 1381"/>
            <path id="prefix__Path_1382" d="M303.6 210.4l-.1-1.4a5.079 5.079 0 0 0 1.7-.3l.3 1.4a6.279 6.279 0 0 1-1.9.3zm-2 0a14.16 14.16 0 0 1-2-.4l.4-1.4a4.671 4.671 0 0 0 1.7.3zm5.8-.9l-.6-1.3a4.194 4.194 0 0 0 1.4-.9l.9 1.1a4.991 4.991 0 0 1-1.7 1.1zm-9.6-.3a6.1 6.1 0 0 1-1.6-1.2l.9-1.1a7.1 7.1 0 0 0 1.4 1zm12.8-2.2l-1.1-.9a14.628 14.628 0 0 0 .9-1.3l.1-.2 1.2.8-.1.2c-.4.5-.7 1-1 1.4zm2.2-3l-1.1-.9a18.478 18.478 0 0 1 1.4-1.4l.9 1.1zm2.6-2l-.6-1.3a10.565 10.565 0 0 1 1.9-.6l.3 1.4a9.833 9.833 0 0 0-1.6.5zm3.4-.7l-.1-1.4h1.9l-.1 1.4h-1.7z" class="adventure_gray-2" data-name="Path 1382"/>
            <path id="prefix__Path_1383" d="M323.4 201.6c-.3 0-.6-.1-.9-.1l.2-1.4c.3 0 .6.1 1 .1z" class="adventure_gray-2" data-name="Path 1383"/>
        </g>
        <path id="prefix__Rectangle_3529" d="M0 0H2.8V6.8H0z" class="adventure_gray-2" data-name="Rectangle 3529" transform="rotate(-44.635 402.835 -289.161)"/>
        <path id="prefix__Rectangle_3530" d="M0 0H6.8V2.8H0z" class="adventure_gray-2" data-name="Rectangle 3530" transform="rotate(-45.365 401.836 -280.907)"/>
        <path id="prefix__Path_1384" d="M312.6 193.1l-.1-1.3c0-.4-.3-3.9 4.3-9.3s8.1-5.6 8.5-5.6h1.3l.1 1.3c0 .4.3 3.9-4.3 9.3s-8.1 5.6-8.5 5.6zm10.8-12.7a17.011 17.011 0 0 0-4.5 3.9 17.873 17.873 0 0 0-3.2 5.1 17.011 17.011 0 0 0 4.5-3.9 14.836 14.836 0 0 0 3.2-5.1z" class="adventure_gray-2" data-name="Path 1384"/>
        <path id="prefix__Rectangle_3531" d="M0 0H5.8V1.4H0z" class="adventure_gray-2" data-name="Rectangle 3531" transform="rotate(-4.19 2651.656 -4257.08)"/>
        <path id="prefix__Rectangle_3532" d="M0 0H5.8V1.4H0z" class="adventure_gray-2" data-name="Rectangle 3532" transform="rotate(-4.19 2707.825 -4220.849)"/>
        <path id="prefix__Path_1385" d="M306.3 203.6l-3.3-2.9 9.5-11.1 3.3 2.9z" class="adventure_gray-2" data-name="Path 1385"/>
        <path id="prefix__Rectangle_3533" d="M0 0H4V2.8H0z" class="adventure_gray-2" data-name="Rectangle 3533" transform="rotate(-49.5 370.693 -225.694)"/>
    </g>
</svg>
