<svg xmlns="http://www.w3.org/2000/svg" width="39.5" height="46.8" viewBox="0 0 39.5 46.8">
    <defs>
        <style>
            .casual_gray-1{fill:#f1f1f2}.casual_gray-2{fill:#d0d2d3}
        </style>
    </defs>
    <g id="prefix__Group_842" data-name="Group 842" transform="translate(-290.4 -311.8)">
        <g id="prefix__Group_828" data-name="Group 828">
            <path id="prefix__Path_1447" d="M299.2 313.2h-7.3v22h7.3v-14.7h7.3v-7.3z" class="casual_gray-1" data-name="Path 1447"/>
            <path id="prefix__Path_1448" d="M300.6 336.6h-10.2v-24.8h17.5V322h-7.3zm-7.3-2.8h4.5v-14.7h7.3v-4.5h-11.8z" class="casual_gray-2" data-name="Path 1448"/>
        </g>
        <g id="prefix__Group_829" data-name="Group 829">
            <path id="prefix__Path_1449" d="M321.1 320.5v29.4h7.3v-29.4z" class="casual_gray-1" data-name="Path 1449"/>
            <path id="prefix__Path_1450" d="M329.9 351.3h-10.2v-32.2h10.2zm-7.4-2.8h4.5V322h-4.5z" class="casual_gray-2" data-name="Path 1450"/>
        </g>
        <g id="prefix__Group_830" data-name="Group 830">
            <path id="prefix__Rectangle_3555" d="M0 0H7.3V7.3H0z" class="casual_gray-1" data-name="Rectangle 3555" transform="translate(313.8 335.2)"/>
            <path id="prefix__Path_1451" d="M322.5 344h-10.2v-10.2h10.2zm-7.3-2.9h4.5v-4.5h-4.5z" class="casual_gray-2" data-name="Path 1451"/>
        </g>
        <g id="prefix__Group_831" data-name="Group 831">
            <path id="prefix__Rectangle_3556" d="M0 0H7.3V7.3H0z" class="casual_gray-1" data-name="Rectangle 3556" transform="translate(291.9 327.9)"/>
            <path id="prefix__Path_1452" d="M300.6 336.6h-10.2v-10.2h10.2zm-7.3-2.8h4.5v-4.5h-4.5z" class="casual_gray-2" data-name="Path 1452"/>
        </g>
        <g id="prefix__Group_832" data-name="Group 832">
            <path id="prefix__Rectangle_3557" d="M0 0H7.3V7.3H0z" class="casual_gray-1" data-name="Rectangle 3557" transform="translate(291.9 320.5)"/>
            <path id="prefix__Path_1453" d="M300.6 329.3h-10.2v-10.2h10.2zm-7.3-2.8h4.5V322h-4.5z" class="casual_gray-2" data-name="Path 1453"/>
        </g>
        <g id="prefix__Group_833" data-name="Group 833">
            <path id="prefix__Rectangle_3558" d="M0 0H7.3V7.3H0z" class="casual_gray-1" data-name="Rectangle 3558" transform="translate(291.9 313.2)"/>
            <path id="prefix__Path_1454" d="M300.6 322h-10.2v-10.2h10.2zm-7.3-2.9h4.5v-4.5h-4.5z" class="casual_gray-2" data-name="Path 1454"/>
        </g>
        <g id="prefix__Group_834" data-name="Group 834">
            <path id="prefix__Path_1455" d="M321.1 349.9v-7.4h-7.3v7.4h-7.3v7.3h21.9v-7.3z" class="casual_gray-1" data-name="Path 1455"/>
            <path id="prefix__Path_1456" d="M329.9 358.6h-24.8v-10.2h7.3v-7.3h10.2v7.3h7.3zm-22-2.8H327v-4.5h-7.3V344h-4.5v7.3h-7.3v4.5z" class="casual_gray-2" data-name="Path 1456"/>
        </g>
        <g id="prefix__Group_835" data-name="Group 835">
            <path id="prefix__Path_1457" d="M299.2 342.5h-7.3v14.7h14.6v-14.7z" class="casual_gray-1" data-name="Path 1457"/>
            <path id="prefix__Path_1458" d="M307.9 358.6h-17.5v-17.5h17.5zm-14.6-2.8h11.8V344h-11.8z" class="casual_gray-2" data-name="Path 1458"/>
        </g>
        <g id="prefix__Group_836" data-name="Group 836">
            <path id="prefix__Rectangle_3559" d="M0 0H7.3V7.3H0z" class="casual_gray-1" data-name="Rectangle 3559" transform="translate(291.9 342.5)"/>
            <path id="prefix__Path_1459" d="M300.6 351.3h-10.2v-10.2h10.2zm-7.3-2.8h4.5V344h-4.5z" class="casual_gray-2" data-name="Path 1459"/>
        </g>
        <g id="prefix__Group_837" data-name="Group 837">
            <path id="prefix__Rectangle_3560" d="M0 0H7.3V7.3H0z" class="casual_gray-1" data-name="Rectangle 3560" transform="translate(299.2 342.5)"/>
            <path id="prefix__Path_1460" d="M307.9 351.3h-10.2v-10.2h10.2zm-7.3-2.8h4.5V344h-4.5z" class="casual_gray-2" data-name="Path 1460"/>
        </g>
        <g id="prefix__Group_838" data-name="Group 838">
            <path id="prefix__Rectangle_3561" d="M0 0H7.3V7.3H0z" class="casual_gray-1" data-name="Rectangle 3561" transform="translate(306.5 349.9)"/>
            <path id="prefix__Path_1461" d="M315.2 358.6H305v-10.2h10.2zm-7.3-2.8h4.5v-4.5h-4.5z" class="casual_gray-2" data-name="Path 1461"/>
        </g>
        <g id="prefix__Group_839" data-name="Group 839">
            <path id="prefix__Rectangle_3562" d="M0 0H7.3V7.3H0z" class="casual_gray-1" data-name="Rectangle 3562" transform="translate(313.8 349.9)"/>
            <path id="prefix__Path_1462" d="M322.5 358.6h-10.2v-10.2h10.2zm-7.3-2.8h4.5v-4.5h-4.5z" class="casual_gray-2" data-name="Path 1462"/>
        </g>
        <g id="prefix__Group_840" data-name="Group 840">
            <path id="prefix__Rectangle_3563" d="M0 0H7.3V7.3H0z" class="casual_gray-1" data-name="Rectangle 3563" transform="translate(291.9 349.9)"/>
            <path id="prefix__Path_1463" d="M300.6 358.6h-10.2v-10.2h10.2zm-7.3-2.8h4.5v-4.5h-4.5z" class="casual_gray-2" data-name="Path 1463"/>
        </g>
        <g id="prefix__Group_841" data-name="Group 841">
            <path id="prefix__Rectangle_3564" d="M0 0H7.3V7.3H0z" class="casual_gray-1" data-name="Rectangle 3564" transform="translate(299.2 349.9)"/>
            <path id="prefix__Path_1464" d="M307.9 358.6h-10.2v-10.2h10.2zm-7.3-2.8h4.5v-4.5h-4.5z" class="casual_gray-2" data-name="Path 1464"/>
        </g>
    </g>
</svg>
