<svg xmlns="http://www.w3.org/2000/svg" width="47.803" height="44.4" viewBox="0 0 47.803 44.4">
    <defs>
        <style>
            .dating-3{fill:#fff}
        </style>
    </defs>
    <g id="prefix__Group_903" data-name="Group 903" transform="translate(-213.5 -242.8)">
        <g id="prefix__Group_902" data-name="Group 902">
            <path id="prefix__Path_1563" d="M237.4 285.8a3.077 3.077 0 0 1-1.9-.6c-8.5-5.8-12.2-9.7-14.2-12.2-4.3-5.3-6.4-10.7-6.3-16.5a12.275 12.275 0 0 1 12-12.2 13.182 13.182 0 0 1 10 4.9.633.633 0 0 0 .9.1l.1-.1a13.182 13.182 0 0 1 10-4.9 12.209 12.209 0 0 1 12 12.2c.1 5.9-2 11.3-6.3 16.5-2 2.5-5.7 6.4-14.2 12.2a4.2 4.2 0 0 1-2.1.6z" data-name="Path 1563" style="fill:#ff6d84"/>
            <path id="prefix__Path_1564" d="M237.4 287.2a5.029 5.029 0 0 1-2.7-.8c-8.6-5.9-12.4-9.9-14.5-12.5-4.5-5.5-6.7-11.2-6.7-17.5a13.639 13.639 0 0 1 13.4-13.6 14.491 14.491 0 0 1 10.5 4.8 14.305 14.305 0 0 1 10.5-4.8 13.573 13.573 0 0 1 13.4 13.6c.1 6.2-2.1 11.9-6.7 17.5-2.1 2.5-5.9 6.6-14.5 12.5a4.3 4.3 0 0 1-2.7.8zm-10.5-41.5a10.779 10.779 0 0 0-10.6 10.8c-.1 5.5 1.9 10.6 6 15.6 2 2.4 5.6 6.3 13.9 11.9a1.951 1.951 0 0 0 2.3 0c8.3-5.7 11.9-9.5 13.9-11.9 4.1-5 6.1-10.1 6-15.6a10.845 10.845 0 0 0-10.6-10.8 11.763 11.763 0 0 0-8.9 4.4l-.2.2a2.147 2.147 0 0 1-2.9-.2 11.763 11.763 0 0 0-8.9-4.4z" data-name="Path 1564" style="fill:#ff4f6f"/>
        </g>
        <path id="prefix__Path_1565" d="M232.8 279.1c-6.7-4.3-11.5-11.2-13.7-20l2.7-.7c2 8.1 6.3 14.4 12.4 18.3z" class="dating-3" data-name="Path 1565"/>
        <path id="prefix__Path_1566" d="M218.8 256.2c0-.3 0-3.3 1.6-4.9l2 2a5.1 5.1 0 0 0-.8 2.9z" class="dating-3" data-name="Path 1566"/>
    </g>
</svg>
