<svg xmlns="http://www.w3.org/2000/svg" width="46.525" height="47.931" viewBox="0 0 46.525 47.931">
    <defs>
        <style>
            .fantasy_gray-1{fill:#d0d2d3}
        </style>
    </defs>
    <g id="prefix__Group_858" data-name="Group 858" transform="translate(-16.275 -314.4)">
        <path id="prefix__Path_1483" d="M41.3 339l-3.3-3.3a1.049 1.049 0 0 1 0-1.3l5-5a1.049 1.049 0 0 1 1.3 0l3.3 3.3a1.049 1.049 0 0 1 0 1.3l-5 5a.853.853 0 0 1-1.3 0z" class="fantasy_gray-1" data-name="Path 1483"/>
        <path id="prefix__Path_1484" d="M19.8 360.5l-3.3-3.3a1.049 1.049 0 0 1 0-1.3l18.4-18.4a1.049 1.049 0 0 1 1.3 0l3.3 3.3a1.049 1.049 0 0 1 0 1.3L21 360.5a.75.75 0 0 1-1.2 0z" class="fantasy_gray-1" data-name="Path 1484"/>
        <path id="prefix__Path_1485" d="M43.3 351.7a2.388 2.388 0 0 1-2.2-1.5l-2.1-6-5.7 2.7a2.36 2.36 0 0 1-3.1-3.1l2.7-5.8-6-2.1a2.29 2.29 0 0 1-1.5-2.2 2.388 2.388 0 0 1 1.5-2.2l6-2.1-2.7-5.8a2.36 2.36 0 0 1 3.1-3.1l5.7 2.7 2.1-6a2.29 2.29 0 0 1 2.2-1.5 2.388 2.388 0 0 1 2.2 1.5l2.1 6 5.7-2.7a2.36 2.36 0 0 1 3.1 3.1l-2.7 5.8 6 2.1a2.29 2.29 0 0 1 1.5 2.2 2.388 2.388 0 0 1-1.5 2.2l-6 2.1 2.7 5.8a2.36 2.36 0 0 1-3.1 3.1l-5.7-2.7-2.1 6a2.388 2.388 0 0 1-2.2 1.5zm-4-10.6a2.92 2.92 0 0 1 .9.2 2.038 2.038 0 0 1 1.3 1.4l1.8 5.2 1.8-5.2a2.539 2.539 0 0 1 1.3-1.4 2.5 2.5 0 0 1 1.9 0l4.9 2.3-2.3-4.9a2.118 2.118 0 0 1 0-1.9 2.037 2.037 0 0 1 1.4-1.3l5.2-1.8-5.2-1.8a2.539 2.539 0 0 1-1.4-1.3 3.083 3.083 0 0 1 0-1.9l2.3-4.9-4.9 2.3a2.118 2.118 0 0 1-1.9 0 2.258 2.258 0 0 1-1.3-1.4l-1.8-5.2-1.8 5.2a2.539 2.539 0 0 1-1.3 1.4 3.083 3.083 0 0 1-1.9 0l-4.9-2.3 2.3 4.9a2.118 2.118 0 0 1 0 1.9 2.037 2.037 0 0 1-1.4 1.3l-5.2 1.8 5.2 1.8a2.539 2.539 0 0 1 1.4 1.3 3.083 3.083 0 0 1 0 1.9l-2.3 4.9 4.9-2.3a2.958 2.958 0 0 1 1-.2z" class="fantasy_gray-1" data-name="Path 1485"/>
        <path id="prefix__Path_1486" d="M37.3 362.3a.749.749 0 0 1-.5-.1l-2.7-1.4-2.7 1.4a1.081 1.081 0 0 1-1.3-.2 1.227 1.227 0 0 1-.2-1.3l1.4-2.7-1.4-2.7a1.081 1.081 0 0 1 .2-1.3 1.227 1.227 0 0 1 1.3-.2l2.7 1.4 2.7-1.4a1.081 1.081 0 0 1 1.3.2 1.227 1.227 0 0 1 .2 1.3l-1.4 2.7 1.4 2.7a1.081 1.081 0 0 1-.2 1.3 1.135 1.135 0 0 1-.8.3zm-3.2-3.1a.749.749 0 0 1 .5.1l1.9 1-1-1.9a.908.908 0 0 1 0-1l1-1.9-1.9 1a.908.908 0 0 1-1 0l-1.9-1 1 1.9a.908.908 0 0 1 0 1l-1 1.9 1.9-1c.2 0 .3-.1.5-.1zm2.9-4.6z" class="fantasy_gray-1" data-name="Path 1486"/>
        <path id="prefix__Path_1487" d="M50.2 320.7a.752.752 0 0 1-.7-.5l-.4-1.5-1.5-.4a.74.74 0 0 1 0-1.4l1.5-.5.4-1.5a.74.74 0 0 1 1.4 0l.4 1.5 1.5.5a.74.74 0 0 1 0 1.4l-1.5.5-.4 1.5a.842.842 0 0 1-.7.4zm-1.3-3.1l.7.2a1.2 1.2 0 0 1 .5.5l.2.7.2-.7a1.2 1.2 0 0 1 .5-.5l.7-.2-.7-.2a1.2 1.2 0 0 1-.5-.5l-.2-.7-.2.7a1.2 1.2 0 0 1-.5.5z" class="fantasy_gray-1" data-name="Path 1487"/>
        <path id="prefix__Path_1488" d="M60.8 344.3a2 2 0 1 1 2-2 2.006 2.006 0 0 1-2 2zm0-3a1 1 0 0 0 0 2 .945.945 0 0 0 1-1 1.071 1.071 0 0 0-1-1z" class="fantasy_gray-1" data-name="Path 1488"/>
        <path id="prefix__Path_1489" d="M23.6 332.1a3.2 3.2 0 1 1 3.2-3.2 3.159 3.159 0 0 1-3.2 3.2zm0-4.9a1.8 1.8 0 1 0 1.8 1.8 1.793 1.793 0 0 0-1.8-1.8z" class="fantasy_gray-1" data-name="Path 1489"/>
    </g>
</svg>
