<svg xmlns="http://www.w3.org/2000/svg" width="46.525" height="47.931" viewBox="0 0 46.525 47.931">
    <g id="prefix__Group_860" data-name="Group 860" transform="translate(-67.875 -314.4)">
        <g id="prefix__Group_859" data-name="Group 859">
            <path id="prefix__Path_1490" d="M106.7 323.1l-3 6.3a.883.883 0 0 0 .5 1.2l6.5 2.3a.9.9 0 0 1 0 1.7l-6.5 2.3a.883.883 0 0 0-.5 1.2l3 6.3a.9.9 0 0 1-1.2 1.2l-6.3-3a.882.882 0 0 0-1.2.5l-2.3 6.5a.9.9 0 0 1-1.7 0l-2.3-6.5a.882.882 0 0 0-1.2-.5l-6.3 3a.9.9 0 0 1-1.2-1.2l3-6.3a.883.883 0 0 0-.5-1.2l-6.5-2.3a.9.9 0 0 1 0-1.7l6.5-2.3a.883.883 0 0 0 .5-1.2l-3-6.3a.9.9 0 0 1 1.2-1.2l6.3 3a.882.882 0 0 0 1.2-.5l2.3-6.5a.9.9 0 0 1 1.7 0l2.3 6.5a.882.882 0 0 0 1.2.5l6.3-3a.884.884 0 0 1 1.2 1.2z" data-name="Path 1490" style="fill:#f9d18b"/>
            <path id="prefix__Path_1491" d="M94.9 351.7a2.388 2.388 0 0 1-2.2-1.5l-2.1-6-5.7 2.7a2.36 2.36 0 0 1-3.1-3.1l2.7-5.8-6-2.1a2.29 2.29 0 0 1-1.5-2.2 2.388 2.388 0 0 1 1.5-2.2l6-2.1-2.7-5.8a2.36 2.36 0 0 1 3.1-3.1l5.7 2.7 2.1-6a2.29 2.29 0 0 1 2.2-1.5 2.388 2.388 0 0 1 2.2 1.5l2.1 6 5.7-2.7a2.36 2.36 0 0 1 3.1 3.1l-2.7 5.8 6 2.1a2.29 2.29 0 0 1 1.5 2.2 2.388 2.388 0 0 1-1.5 2.2l-6 2.1 2.7 5.8a2.36 2.36 0 0 1-3.1 3.1l-5.7-2.7-2.1 6a2.388 2.388 0 0 1-2.2 1.5zm-4-10.6a2.92 2.92 0 0 1 .9.2 2.038 2.038 0 0 1 1.3 1.4l1.8 5.2 1.8-5.2a2.539 2.539 0 0 1 1.3-1.4 2.5 2.5 0 0 1 1.9 0l4.9 2.3-2.3-4.9a2.118 2.118 0 0 1 0-1.9 2.037 2.037 0 0 1 1.4-1.3l5.2-1.8-5.2-1.8a2.539 2.539 0 0 1-1.4-1.3 2.5 2.5 0 0 1 0-1.9l2.3-4.9-4.9 2.3a2.118 2.118 0 0 1-1.9 0 2.258 2.258 0 0 1-1.3-1.4l-1.8-5.2-1.8 5.2a2.539 2.539 0 0 1-1.3 1.4 3.083 3.083 0 0 1-1.9 0l-4.9-2.3 2.3 4.9a2.118 2.118 0 0 1 0 1.9 2.037 2.037 0 0 1-1.4 1.3l-5.2 1.8 5.2 1.8a2.539 2.539 0 0 1 1.4 1.3 3.083 3.083 0 0 1 0 1.9l-2.3 4.9 4.9-2.3a2.958 2.958 0 0 1 1-.2z" data-name="Path 1491" style="fill:#f9c040"/>
        </g>
        <path id="prefix__Path_1492" d="M92.9 339l-3.3-3.3a1.049 1.049 0 0 1 0-1.3l5-5a1.049 1.049 0 0 1 1.3 0l3.3 3.3a1.049 1.049 0 0 1 0 1.3l-5 5a.853.853 0 0 1-1.3 0z" data-name="Path 1492" style="fill:#00d2d3"/>
        <path id="prefix__Path_1493" d="M71.4 360.5l-3.3-3.3a1.049 1.049 0 0 1 0-1.3l18.4-18.4a1.049 1.049 0 0 1 1.3 0l3.3 3.3a1.049 1.049 0 0 1 0 1.3l-18.4 18.4a.853.853 0 0 1-1.3 0z" data-name="Path 1493" style="fill:#006ad3"/>
        <path id="prefix__Path_1494" d="M88.9 362.3a.749.749 0 0 1-.5-.1l-2.7-1.4-2.7 1.4a1.081 1.081 0 0 1-1.3-.2 1.227 1.227 0 0 1-.2-1.3L83 358l-1.4-2.7a1.082 1.082 0 0 1 .2-1.3 1.227 1.227 0 0 1 1.3-.2l2.7 1.4 2.7-1.4a1.081 1.081 0 0 1 1.3.2 1.227 1.227 0 0 1 .2 1.3l-1.4 2.7 1.4 2.7a1.082 1.082 0 0 1-.2 1.3 1.613 1.613 0 0 1-.9.3zm-3.2-3.1a.749.749 0 0 1 .5.1l1.9 1-1-1.9a.908.908 0 0 1 0-1l1-1.9-1.9 1a.908.908 0 0 1-1 0l-1.9-1 1 1.9a.908.908 0 0 1 0 1l-1 1.9 1.9-1c.2 0 .3-.1.5-.1zm2.9-4.6z" data-name="Path 1494" style="fill:#ffab92"/>
        <path id="prefix__Path_1495" d="M101.8 320.7a.752.752 0 0 1-.7-.5l-.4-1.5-1.5-.4a.74.74 0 0 1 0-1.4l1.5-.5.4-1.5a.74.74 0 0 1 1.4 0l.4 1.5 1.5.5a.74.74 0 0 1 0 1.4l-1.5.4-.4 1.5a.752.752 0 0 1-.7.5zm-1.3-3.1l.7.2a1.205 1.205 0 0 1 .5.5l.2.7.2-.7a1.205 1.205 0 0 1 .5-.5l.7-.2-.7-.2a1.205 1.205 0 0 1-.5-.5l-.2-.7-.2.7a1.205 1.205 0 0 1-.5.5zm3.6-.3z" data-name="Path 1495" style="fill:#81d2d3"/>
        <path id="prefix__Path_1496" d="M112.4 344.3a2 2 0 1 1 2-2 2.006 2.006 0 0 1-2 2zm0-3a1 1 0 0 0 0 2 .945.945 0 0 0 1-1 1.071 1.071 0 0 0-1-1z" data-name="Path 1496" style="fill:#d097e0"/>
        <path id="prefix__Path_1497" d="M75.2 332.1a3.2 3.2 0 1 1 3.2-3.2 3.159 3.159 0 0 1-3.2 3.2zm0-4.9A1.8 1.8 0 1 0 77 329a1.793 1.793 0 0 0-1.8-1.8z" data-name="Path 1497" style="fill:#ff6d59"/>
    </g>
</svg>
