<svg xmlns="http://www.w3.org/2000/svg" width="45.286" height="39.4" viewBox="0 0 45.286 39.4">
    <defs>
        <style>
            .fight_gray-1{fill:#f1f1f2}.fight_gray-2{fill:#d0d2d3}
        </style>
    </defs>
    <g id="prefix__Group_912" data-name="Group 912" transform="translate(-153.014 -503.1)">
        <g id="prefix__Group_904" data-name="Group 904">
            <path id="prefix__Path_1567" d="M173.9 531.5l-4.9 2.3a6.655 6.655 0 0 1-8.7-3.3l-5-10.4a5.823 5.823 0 0 1 2.5-7.8l6.3-3a5.93 5.93 0 0 1 7.7 2.9l5 10.4a6.632 6.632 0 0 1-2.9 8.9z" class="fight_gray-1" data-name="Path 1567"/>
            <path id="prefix__Path_1568" d="M166.4 535.8a8.482 8.482 0 0 1-7.4-4.7l-5-10.4a7.075 7.075 0 0 1-.3-5.7 6.464 6.464 0 0 1 3.5-3.9l6.3-3a7.256 7.256 0 0 1 9.6 3.6l5 10.4a8.146 8.146 0 0 1 .4 6.3 7.711 7.711 0 0 1-3.9 4.4l-4.9 2.3a7.843 7.843 0 0 1-3.3.7zm0-25.6a3.287 3.287 0 0 0-1.7.4l-6.3 3a4.29 4.29 0 0 0-2.1 2.3 4.727 4.727 0 0 0 .2 3.5l5 10.4a5.346 5.346 0 0 0 6.9 2.7l4.9-2.3a4.647 4.647 0 0 0 2.5-2.8 4.93 4.93 0 0 0-.3-4.1l-5-10.4a4.662 4.662 0 0 0-4.1-2.7z" class="fight_gray-2" data-name="Path 1568"/>
        </g>
        <g id="prefix__Group_905" data-name="Group 905">
            <path id="prefix__Path_1569" d="M169.2 519.2l-6.9 3.3a5.365 5.365 0 0 1-7.1-2.5l-.2-.3a5.321 5.321 0 0 1 2.6-7.2l6.6-3.1a5.433 5.433 0 0 1 7.3 2.6l.2.3a5.168 5.168 0 0 1-2.5 6.9z" class="fight_gray-1" data-name="Path 1569"/>
            <path id="prefix__Path_1570" d="M160 524.4a6.829 6.829 0 0 1-6.1-3.8l-.2-.3a6.707 6.707 0 0 1-.3-5.2 7.056 7.056 0 0 1 3.5-3.9l6.6-3.1a6.979 6.979 0 0 1 9.2 3.2l.2.3a6.462 6.462 0 0 1 .3 5.1 6.263 6.263 0 0 1-3.5 3.8l-6.9 3.3a6.388 6.388 0 0 1-2.8.6zm6.6-14.2a3.922 3.922 0 0 0-1.8.4l-6.6 3.1a4.29 4.29 0 0 0-2.1 2.3 3.5 3.5 0 0 0 .2 3l.2.3a3.952 3.952 0 0 0 5.2 1.8l6.9-3.3a3.745 3.745 0 0 0 1.8-5.1l-.2-.3a3.878 3.878 0 0 0-3.6-2.2z" class="fight_gray-2" data-name="Path 1570"/>
        </g>
        <g id="prefix__Group_906" data-name="Group 906">
            <path id="prefix__Path_1571" d="M179.6 536.4l-9.7 4.6-3-6.2 9.7-4.6z" class="fight_gray-1" data-name="Path 1571"/>
            <path id="prefix__Path_1572" d="M169.9 542.5a1.561 1.561 0 0 1-1.3-.8l-3-6.2a1.376 1.376 0 0 1 .6-1.9l9.7-4.6a1.506 1.506 0 0 1 1.9.7l3 6.2a1.376 1.376 0 0 1-.6 1.9l-9.7 4.6c-.2 0-.4.1-.6.1zm-1.1-7l1.8 3.6 7.2-3.4-1.8-3.6z" class="fight_gray-2" data-name="Path 1572"/>
        </g>
        <g id="prefix__Group_907" data-name="Group 907">
            <path id="prefix__Path_1573" d="M176.3 522.9l-2.9 1.4a3.148 3.148 0 0 1-4.2-1.5l-.1-.2a3.1 3.1 0 0 1 1.5-4.2l2.9-1.4a3.148 3.148 0 0 1 4.2 1.5l.1.2a3.148 3.148 0 0 1-1.5 4.2z" class="fight_gray-1" data-name="Path 1573"/>
            <path id="prefix__Path_1574" d="M172 526a4.518 4.518 0 0 1-4.1-2.6l-.1-.2a4.7 4.7 0 0 1-.2-3.5 4.126 4.126 0 0 1 2.4-2.6l2.9-1.4a4.61 4.61 0 0 1 6.1 2.1l.1.2a4.7 4.7 0 0 1 .2 3.5 4.126 4.126 0 0 1-2.4 2.6l-2.9 1.4a3.513 3.513 0 0 1-2 .5zm2.8-7.8a2.353 2.353 0 0 0-.8.2l-2.9 1.4a2.189 2.189 0 0 0-.9 1 1.5 1.5 0 0 0 .1 1.3l.1.2a1.709 1.709 0 0 0 2.3.8l2.9-1.4a2.189 2.189 0 0 0 .9-1 1.5 1.5 0 0 0-.1-1.3l-.1-.2a1.539 1.539 0 0 0-1.5-1z" class="fight_gray-2" data-name="Path 1574"/>
        </g>
        <g id="prefix__Group_908" data-name="Group 908">
            <path id="prefix__Path_1575" d="M186.4 532.7h-6.3a7.687 7.687 0 0 1-7.5-7.8v-13.4a6.726 6.726 0 0 1 6.6-6.9h8.1a6.791 6.791 0 0 1 6.6 6.9v13.4a7.687 7.687 0 0 1-7.5 7.8z" class="fight_gray-1" data-name="Path 1575"/>
            <path id="prefix__Path_1576" d="M186.4 534.1h-6.3a9.052 9.052 0 0 1-8.9-9.2v-13.4a8.156 8.156 0 0 1 8-8.3h8.1a8.156 8.156 0 0 1 8 8.3v13.4a9.052 9.052 0 0 1-8.9 9.2zm-7.2-28.1a5.428 5.428 0 0 0-5.2 5.5v13.4a6.257 6.257 0 0 0 6.1 6.4h6.3a6.323 6.323 0 0 0 6.1-6.4v-13.4a5.362 5.362 0 0 0-5.2-5.5h-8.1z" class="fight_gray-2" data-name="Path 1576"/>
        </g>
        <g id="prefix__Group_909" data-name="Group 909">
            <path id="prefix__Path_1577" d="M187.7 517.4h-8.9a6.124 6.124 0 0 1-6.1-6.1v-.4a6.274 6.274 0 0 1 6.3-6.3h8.6a6.274 6.274 0 0 1 6.3 6.3v.4a6.146 6.146 0 0 1-6.2 6.1z" class="fight_gray-1" data-name="Path 1577"/>
            <path id="prefix__Path_1578" d="M187.7 518.8h-8.9a7.6 7.6 0 0 1-7.6-7.6v-.4a7.7 7.7 0 0 1 7.7-7.7h8.6a7.7 7.7 0 0 1 7.7 7.7v.4a7.45 7.45 0 0 1-7.5 7.6zM179 506a4.908 4.908 0 0 0-4.9 4.9v.4a4.7 4.7 0 0 0 4.7 4.7h8.9a4.7 4.7 0 0 0 4.7-4.7v-.4a4.908 4.908 0 0 0-4.9-4.9z" class="fight_gray-2" data-name="Path 1578"/>
        </g>
        <g id="prefix__Group_910" data-name="Group 910">
            <path id="prefix__Rectangle_3624" d="M0 0H12.5V8H0z" class="fight_gray-1" data-name="Rectangle 3624" transform="translate(177.3 532.7)"/>
            <path id="prefix__Path_1579" d="M189.9 542.1h-12.5a1.367 1.367 0 0 1-1.4-1.4v-8a1.367 1.367 0 0 1 1.4-1.4h12.5a1.367 1.367 0 0 1 1.4 1.4v8a1.367 1.367 0 0 1-1.4 1.4zm-11.1-2.8h9.7v-5.1h-9.7z" class="fight_gray-2" data-name="Path 1579"/>
        </g>
        <g id="prefix__Group_911" data-name="Group 911">
            <path id="prefix__Path_1580" d="M193.2 524.9h-3.8a3.691 3.691 0 0 1-3.7-3.7v-.2a3.691 3.691 0 0 1 3.7-3.7h3.8a3.691 3.691 0 0 1 3.7 3.7v.2a3.691 3.691 0 0 1-3.7 3.7z" class="fight_gray-1" data-name="Path 1580"/>
            <path id="prefix__Path_1581" d="M193.2 526.3h-3.8a5.121 5.121 0 0 1-5.1-5.1v-.2a5.121 5.121 0 0 1 5.1-5.1h3.8a5.121 5.121 0 0 1 5.1 5.1v.2a5.121 5.121 0 0 1-5.1 5.1zm-3.7-7.5a2.22 2.22 0 0 0-2.2 2.2v.2a2.22 2.22 0 0 0 2.2 2.2h3.8a2.22 2.22 0 0 0 2.2-2.2v-.2a2.22 2.22 0 0 0-2.2-2.2z" class="fight_gray-2" data-name="Path 1581"/>
        </g>
    </g>
</svg>
