<svg xmlns="http://www.w3.org/2000/svg" width="45.286" height="39.4" viewBox="0 0 45.286 39.4">
    <defs>
        <style>
            .fight-1{fill:#be1e2d}.fight-2{fill:#901a00}.fight-3{fill:#231f20}.fight-4{fill:#e73400}
        </style>
    </defs>
    <g id="prefix__Group_926" data-name="Group 926" transform="translate(-212.714 -503.1)">
        <g id="prefix__Group_918" data-name="Group 918">
            <path id="prefix__Path_1597" d="M233.6 531.5l-4.9 2.3a6.655 6.655 0 0 1-8.7-3.3l-5-10.4a5.823 5.823 0 0 1 2.5-7.8l6.3-3a5.93 5.93 0 0 1 7.7 2.9l5 10.4a6.632 6.632 0 0 1-2.9 8.9z" class="fight-1" data-name="Path 1597"/>
            <path id="prefix__Path_1598" d="M226.1 535.8a8.482 8.482 0 0 1-7.4-4.7l-5-10.4a7.075 7.075 0 0 1-.3-5.7 6.464 6.464 0 0 1 3.5-3.9l6.3-3a7.256 7.256 0 0 1 9.6 3.6l5 10.4a8.146 8.146 0 0 1 .4 6.3 7.711 7.711 0 0 1-3.9 4.4l-4.9 2.3a7.843 7.843 0 0 1-3.3.7zm0-25.6a3.287 3.287 0 0 0-1.7.4l-6.3 3a4.29 4.29 0 0 0-2.1 2.3 4.727 4.727 0 0 0 .2 3.5l5 10.4a5.346 5.346 0 0 0 6.9 2.7l4.9-2.3a4.647 4.647 0 0 0 2.5-2.8 4.93 4.93 0 0 0-.3-4.1l-5-10.4a4.779 4.779 0 0 0-4.1-2.7z" class="fight-2" data-name="Path 1598"/>
        </g>
        <g id="prefix__Group_919" data-name="Group 919">
            <path id="prefix__Path_1599" d="M228.9 519.2l-6.9 3.3a5.365 5.365 0 0 1-7.1-2.5l-.2-.3a5.321 5.321 0 0 1 2.6-7.2l6.6-3.1a5.433 5.433 0 0 1 7.3 2.6l.2.3a5.255 5.255 0 0 1-2.5 6.9z" class="fight-1" data-name="Path 1599"/>
            <path id="prefix__Path_1600" d="M219.7 524.4a6.829 6.829 0 0 1-6.1-3.8l-.2-.3a6.707 6.707 0 0 1-.3-5.2 7.056 7.056 0 0 1 3.5-3.9l6.6-3.1a6.979 6.979 0 0 1 9.2 3.2l.2.3a6.462 6.462 0 0 1 .3 5.1 6.263 6.263 0 0 1-3.5 3.8l-6.9 3.3a6.71 6.71 0 0 1-2.8.6zm6.6-14.2a3.922 3.922 0 0 0-1.8.4l-6.6 3.1a4.29 4.29 0 0 0-2.1 2.3 3.5 3.5 0 0 0 .2 3l.2.3a3.952 3.952 0 0 0 5.2 1.8l6.9-3.3a3.745 3.745 0 0 0 1.8-5.1l-.2-.3a3.983 3.983 0 0 0-3.6-2.2z" class="fight-2" data-name="Path 1600"/>
        </g>
        <g id="prefix__Group_920" data-name="Group 920">
            <path id="prefix__Path_1601" d="M239.3 536.4l-9.7 4.6-3-6.2 9.7-4.6z" class="fight-3" data-name="Path 1601"/>
            <path id="prefix__Path_1602" d="M229.6 542.5a1.561 1.561 0 0 1-1.3-.8l-3-6.2a1.376 1.376 0 0 1 .6-1.9l9.7-4.6a1.506 1.506 0 0 1 1.9.7l3 6.2a1.376 1.376 0 0 1-.6 1.9l-9.7 4.6c-.2 0-.4.1-.6.1zm-1.1-7l1.8 3.6 7.2-3.4-1.8-3.6z" class="fight-3" data-name="Path 1602"/>
        </g>
        <g id="prefix__Group_921" data-name="Group 921">
            <path id="prefix__Path_1603" d="M235.9 522.9l-2.9 1.4a3.148 3.148 0 0 1-4.2-1.5l-.1-.2a3.1 3.1 0 0 1 1.5-4.2l2.9-1.4a3.148 3.148 0 0 1 4.2 1.5l.1.2a3.067 3.067 0 0 1-1.5 4.2z" class="fight-1" data-name="Path 1603"/>
            <path id="prefix__Path_1604" d="M231.7 526a4.518 4.518 0 0 1-4.1-2.6l-.1-.2a4.7 4.7 0 0 1-.2-3.5 4.126 4.126 0 0 1 2.4-2.6l2.9-1.4a4.61 4.61 0 0 1 6.1 2.1l.1.2a4.7 4.7 0 0 1 .2 3.5 4.126 4.126 0 0 1-2.4 2.6l-2.9 1.4a3.719 3.719 0 0 1-2 .5zm2.8-7.8a2.353 2.353 0 0 0-.8.2l-2.9 1.4a2.189 2.189 0 0 0-.9 1 1.5 1.5 0 0 0 .1 1.3l.1.2a1.709 1.709 0 0 0 2.3.8l2.9-1.4a2.189 2.189 0 0 0 .9-1 1.5 1.5 0 0 0-.1-1.3l-.1-.2a1.539 1.539 0 0 0-1.5-1z" class="fight-2" data-name="Path 1604"/>
        </g>
        <g id="prefix__Group_922" data-name="Group 922">
            <path id="prefix__Path_1605" d="M246.1 532.7h-6.3a7.687 7.687 0 0 1-7.5-7.8v-13.4a6.726 6.726 0 0 1 6.6-6.9h8.1a6.791 6.791 0 0 1 6.6 6.9v13.4a7.753 7.753 0 0 1-7.5 7.8z" class="fight-4" data-name="Path 1605"/>
            <path id="prefix__Path_1606" d="M246.1 534.1h-6.3a9.052 9.052 0 0 1-8.9-9.2v-13.4a8.156 8.156 0 0 1 8-8.3h8.1a8.156 8.156 0 0 1 8 8.3v13.4a9.183 9.183 0 0 1-8.9 9.2zm-7.2-28.1a5.428 5.428 0 0 0-5.2 5.5v13.4a6.257 6.257 0 0 0 6.1 6.4h6.3a6.323 6.323 0 0 0 6.1-6.4v-13.4a5.362 5.362 0 0 0-5.2-5.5h-8.1z" class="fight-1" data-name="Path 1606"/>
        </g>
        <g id="prefix__Group_923" data-name="Group 923">
            <path id="prefix__Path_1607" d="M247.4 517.4h-8.9a6.124 6.124 0 0 1-6.1-6.1v-.4a6.274 6.274 0 0 1 6.3-6.3h8.6a6.274 6.274 0 0 1 6.3 6.3v.4a6.211 6.211 0 0 1-6.2 6.1z" class="fight-4" data-name="Path 1607"/>
            <path id="prefix__Path_1608" d="M247.4 518.8h-8.9a7.6 7.6 0 0 1-7.6-7.6v-.4a7.7 7.7 0 0 1 7.7-7.7h8.6a7.7 7.7 0 0 1 7.7 7.7v.4a7.576 7.576 0 0 1-7.5 7.6zm-8.8-12.8a4.908 4.908 0 0 0-4.9 4.9v.4a4.7 4.7 0 0 0 4.7 4.7h8.9a4.7 4.7 0 0 0 4.7-4.7v-.4a4.908 4.908 0 0 0-4.9-4.9z" class="fight-1" data-name="Path 1608"/>
        </g>
        <g id="prefix__Group_924" data-name="Group 924">
            <path id="prefix__Rectangle_3627" d="M0 0H12.5V8H0z" data-name="Rectangle 3627" transform="translate(237 532.7)" style="fill:#404041"/>
            <path id="prefix__Path_1609" d="M249.5 542.1H237a1.367 1.367 0 0 1-1.4-1.4v-8a1.367 1.367 0 0 1 1.4-1.4h12.5a1.367 1.367 0 0 1 1.4 1.4v8a1.312 1.312 0 0 1-1.4 1.4zm-11.1-2.8h9.7v-5.1h-9.7z" class="fight-3" data-name="Path 1609"/>
        </g>
        <g id="prefix__Group_925" data-name="Group 925">
            <path id="prefix__Path_1610" d="M252.9 524.9h-3.8a3.691 3.691 0 0 1-3.7-3.7v-.2a3.691 3.691 0 0 1 3.7-3.7h3.8a3.691 3.691 0 0 1 3.7 3.7v.2a3.756 3.756 0 0 1-3.7 3.7z" class="fight-4" data-name="Path 1610"/>
            <path id="prefix__Path_1611" d="M252.9 526.3h-3.8a5.121 5.121 0 0 1-5.1-5.1v-.2a5.121 5.121 0 0 1 5.1-5.1h3.8a5.121 5.121 0 0 1 5.1 5.1v.2a5.121 5.121 0 0 1-5.1 5.1zm-3.8-7.5a2.22 2.22 0 0 0-2.2 2.2v.2a2.22 2.22 0 0 0 2.2 2.2h3.8a2.22 2.22 0 0 0 2.2-2.2v-.2a2.22 2.22 0 0 0-2.2-2.2z" class="fight-1" data-name="Path 1611"/>
        </g>
        <path id="prefix__Path_1612" d="M246.2 514.4h-3.6v-2.8h3.6a1.58 1.58 0 0 0 1.6-1.6v-1h2.8v.9a4.337 4.337 0 0 1-4.4 4.5z" data-name="Path 1612" style="fill:#e26d63"/>
    </g>
</svg>
