<svg xmlns="http://www.w3.org/2000/svg" width="44" height="40.9" viewBox="0 0 44 40.9">
    <defs>
        <style>
            .gore-1{fill:#f05a28}.gore-2{fill:#fff}.gore-3{fill:#58595b}
        </style>
    </defs>
    <g id="prefix__Group_809" data-name="Group 809" transform="translate(-65.9 -91.1)">
        <path id="prefix__Path_1402" d="M100.7 126.4h-.8c-2.7-1.4-9-2.4-16.3-2.4-9.8 0-17.7 1.8-17.7 4s7.9 4 17.7 4c6.7 0 12.5-.8 15.6-2.1.5 0 1 .1 1.5.1 3.1 0 5.6-.8 5.6-1.8s-2.5-1.8-5.6-1.8z" class="gore-1" data-name="Path 1402"/>
        <g id="prefix__Group_806" data-name="Group 806">
            <path id="prefix__Path_1403" d="M92.7 101.7l-22.2 22.4s8 5.8 14.5-.8 14.5-14.7 14.5-14.7z" class="gore-2" data-name="Path 1403"/>
            <path id="prefix__Path_1404" d="M77.8 127.8a14.656 14.656 0 0 1-8.1-2.6l-1.3-1 24.4-24.6 8.9 9-15.5 15.7a11.879 11.879 0 0 1-8.4 3.5zm-5-4c2.4 1.2 7.2 2.6 11.2-1.5l13.5-13.7-4.9-4.9z" class="gore-3" data-name="Path 1404"/>
        </g>
        <g id="prefix__Group_807" data-name="Group 807">
            <path id="prefix__Path_1405" d="M92.7 101.7l8.5-8.6 3.5 3.5-8.5 8.5z" data-name="Path 1405" style="fill:#6d6e70"/>
            <path id="prefix__Path_1406" d="M96.2 107.2l-5.4-5.5 10.5-10.6 5.4 5.5zm-1.5-5.5l1.4 1.5 6.5-6.6-1.4-1.5z" class="gore-3" data-name="Path 1406"/>
        </g>
        <g id="prefix__Group_808" data-name="Group 808">
            <path id="prefix__Path_1407" d="M93.7 108s-3.7.1-3.7 3.7a3.042 3.042 0 0 1-3.3 3.4s-3.7.2-3.7 3.7-4.4 4.4-4.4 4.4" class="gore-2" data-name="Path 1407"/>
            <path id="prefix__Path_1408" d="M78.8 124.7l-.6-2.8s3.3-.8 3.3-3.1c0-3.8 3.3-5 5-5.2h.2a1.915 1.915 0 0 0 1.3-.4 2.07 2.07 0 0 0 .5-1.5 5.113 5.113 0 0 1 5.1-5.2l.1 2.8a2.243 2.243 0 0 0-2.3 2.3 4.854 4.854 0 0 1-1.4 3.6 4.365 4.365 0 0 1-3.3 1.1c-.5.1-2.3.4-2.3 2.3 0 3.9-3.5 5.6-5.6 6.1z" data-name="Path 1408" style="fill:#a6a8ab"/>
        </g>
        <ellipse id="prefix__Ellipse_657" cx="2.2" cy=".9" class="gore-1" data-name="Ellipse 657" rx="2.2" ry=".9" transform="translate(105.5 123.3)"/>
    </g>
</svg>
