<svg xmlns="http://www.w3.org/2000/svg" width="47.26" height="43.473" viewBox="0 0 47.26 43.473">
    <defs>
        <style>
            .horror-1{fill:#6d6e70}
        </style>
    </defs>
    <g id="prefix__Group_760" data-name="Group 760" transform="translate(-345.498 -2.727)">
        <path id="prefix__Path_1325" d="M355.2 31.1l-.6-.3a17.159 17.159 0 0 1-9.1-15.1 3.681 3.681 0 0 1 1.3-3.1.758.758 0 0 1 .4-.2 2.648 2.648 0 0 1 2.3-.2c1.7.5 2.6 2.4 3.3 3.8a3.331 3.331 0 0 0 .3.6 3.1 3.1 0 0 0 2 1.5c.4.2.9.4 1.4.7 2 1.1 2.4 4 2.1 6.1a9.632 9.632 0 0 1-.9 3.2c-1.1 2.3-1.5 2.6-2 2.8zm-6.7-16.2a2.044 2.044 0 0 0-.1.8 14.044 14.044 0 0 0 6.5 11.9 5.938 5.938 0 0 0 .4-.8 6.762 6.762 0 0 0 .7-2.3c.2-1.5-.2-3-.7-3.3a6.116 6.116 0 0 0-1.2-.5 6.381 6.381 0 0 1-3.4-2.7 5.938 5.938 0 0 1-.4-.8c-.3-.6-1.1-2.3-1.6-2.4l-.7-1.2.5 1.3z" class="horror-1" data-name="Path 1325"/>
        <path id="prefix__Path_1326" d="M383 31.1l-.6-.2c-.5-.2-1-.5-2-2.8a9.015 9.015 0 0 1-.9-3.2 9.364 9.364 0 0 1 .3-3.6 4.338 4.338 0 0 1 2.2-2.7 11.734 11.734 0 0 0 1.1-.5c.9-.4 1.4-.5 1.9-1.3l.5-1c.8-1.6 2.4-4.9 5.3-3.6a2.94 2.94 0 0 1 1.2 1c2 3-.5 8.5-1.3 10.2a16.2 16.2 0 0 1-7.1 7.3zm6.5-16.3c-.4.1-1.2 1.7-1.5 2.3-.2.5-.5.9-.7 1.3a5.97 5.97 0 0 1-3.3 2.4 6.9 6.9 0 0 0-1 .4c-.3.1-.5.5-.7.9a4.776 4.776 0 0 0-.1 2.4 6.762 6.762 0 0 0 .7 2.3c.1.3.3.5.4.8a13.932 13.932 0 0 0 4.8-5.4c1.3-2.7 2.3-6.1 1.5-7.3l.6-1.3-.7 1.2c.1.1 0 .1 0 0z" class="horror-1" data-name="Path 1326"/>
        <g id="prefix__Group_759" data-name="Group 759">
            <path id="prefix__Path_1327" d="M388.8 43.1a2.1 2.1 0 0 0-.6-.8c-2.9-3.6-4.1-7.7-4.8-12.2-1.2-8-.4-19.1-8.1-24.2a11.294 11.294 0 0 0-10.7-.6c-9 4.1-8.5 15.3-9.6 23.7a4.253 4.253 0 0 1-.2 1.1c-.7 4.5-1.9 8.7-4.8 12.2a5.547 5.547 0 0 0-.6.8c-.9 2.1 3.6 1.6 4.5 1.4 1.6-.5 3.2-1.3 4.8-1.7a9.808 9.808 0 0 1 5.1.4c1.7.6 3.4 1.5 5.2 1.5 1.9 0 3.5-.9 5.2-1.5a9.89 9.89 0 0 1 5.1-.4c1.7.4 3.2 1.2 4.8 1.7 1.2.3 5.7.7 4.7-1.4z" data-name="Path 1327" style="fill:#fff"/>
            <path id="prefix__Path_1328" d="M369.2 46.2a10.133 10.133 0 0 1-4.3-1.1 7.838 7.838 0 0 0-1.4-.5 8.646 8.646 0 0 0-4.4-.4 22.5 22.5 0 0 0-2.4.8 15.547 15.547 0 0 1-2.3.8s-4.3 1-5.9-.8a2.268 2.268 0 0 1-.3-2.5 10.54 10.54 0 0 1 .7-1.1c2.4-2.9 3.8-6.4 4.5-11.6a4.1 4.1 0 0 0 .1-1.1c.2-1.3.3-2.6.4-3.9.8-8 1.6-17 10-20.9a12.925 12.925 0 0 1 12.1.7c6.7 4.4 7.5 12.7 8.2 20 .2 1.8.3 3.5.6 5.1.8 5.2 2.1 8.6 4.5 11.5a4.13 4.13 0 0 1 .7 1.1 2.268 2.268 0 0 1-.3 2.5c-1.5 1.8-5.8.8-5.9.8a15.545 15.545 0 0 1-2.3-.8 22.5 22.5 0 0 0-2.4-.8 7.678 7.678 0 0 0-4.4.4c-.5.2-.9.3-1.4.5a7.674 7.674 0 0 1-4.1 1.3zm-8.6-5a11.509 11.509 0 0 1 3.9.7l1.5.6a10.335 10.335 0 0 0 3.2.9 8.172 8.172 0 0 0 3.2-.9l1.5-.6a10.145 10.145 0 0 1 5.9-.4 22.936 22.936 0 0 1 2.8.9 17.233 17.233 0 0 0 2.1.7 9.816 9.816 0 0 0 2.5.1c-3.5-4.2-4.6-9.2-5.1-13-.3-1.7-.4-3.4-.6-5.3-.6-7-1.3-14.3-6.9-17.9a10.04 10.04 0 0 0-9.4-.5c-6.9 3.2-7.6 11-8.3 18.6-.1 1.4-.3 2.7-.4 4a4.253 4.253 0 0 1-.2 1.1c-.6 3.8-1.7 8.7-5.1 12.9v.1a9.816 9.816 0 0 0 2.5-.1c.7-.2 1.3-.5 2.1-.7a13.087 13.087 0 0 1 2.8-.9 6.448 6.448 0 0 1 2-.3z" class="horror-1" data-name="Path 1328"/>
        </g>
        <circle id="prefix__Ellipse_654" cx="1.4" cy="1.4" r="1.4" class="horror-1" data-name="Ellipse 654" transform="translate(363.5 13.2)"/>
        <circle id="prefix__Ellipse_655" cx="3.1" cy="3.1" r="3.1" class="horror-1" data-name="Ellipse 655" transform="translate(369.7 11.3)"/>
        <path id="prefix__Path_1329" d="M372.1 20.3a13.873 13.873 0 0 1-2.7.2 11.607 11.607 0 0 1-2.7-.2v.2c-.2 1.2-1 7.3 2.8 7.3 4-.1 2.6-7.5 2.6-7.5z" data-name="Path 1329" style="fill:#f48979"/>
        <path id="prefix__Path_1330" d="M369.4 21.2c-4.4 0-6.2-1.2-6.3-1.2l.8-1.2s1.6 1 5.5 1 5.3-1 5.3-1l.8 1.2c-.1.1-1.8 1.2-6.1 1.2z" data-name="Path 1330" style="fill:#dc5542"/>
    </g>
</svg>
