<svg xmlns="http://www.w3.org/2000/svg" width="40.8" height="40.7" viewBox="0 0 40.8 40.7">
    <defs>
        <style>
            .MOBA-1{fill:#bbbdbf}.MOBA-2{fill:#58595b}
        </style>
    </defs>
    <g id="prefix__Group_967" data-name="Group 967" transform="translate(-2181.3 -1499.9)">
        <g id="prefix__Group_952" data-name="Group 952" transform="translate(1972.9 1497)">
            <circle id="prefix__Ellipse_732" cx="3.4" cy="3.4" r="3.4" class="MOBA-1" data-name="Ellipse 732" transform="translate(210.2 4.3)"/>
            <path id="prefix__Path_1677" d="M213.6 12.5a4.867 4.867 0 0 1-4.8-4.8 4.8 4.8 0 0 1 9.6 0 4.867 4.867 0 0 1-4.8 4.8zm0-6.8a2 2 0 1 0 2 2 2.006 2.006 0 0 0-2-2z" class="MOBA-2" data-name="Path 1677"/>
        </g>
        <g id="prefix__Group_953" data-name="Group 953" transform="translate(1972.9 1497)">
            <circle id="prefix__Ellipse_733" cx="3.4" cy="3.4" r="3.4" class="MOBA-1" data-name="Ellipse 733" transform="translate(241 35.4)"/>
            <path id="prefix__Path_1678" d="M244.4 43.6a4.867 4.867 0 0 1-4.8-4.8 4.8 4.8 0 1 1 4.8 4.8zm0-6.8a2 2 0 1 0 2 2 2.006 2.006 0 0 0-2-2z" class="MOBA-2" data-name="Path 1678"/>
        </g>
        <g id="prefix__Group_954" data-name="Group 954" transform="translate(1972.9 1497)">
            <circle id="prefix__Ellipse_734" cx="3.4" cy="3.4" r="3.4" class="MOBA-1" data-name="Ellipse 734" transform="translate(240.7 4.3)"/>
            <path id="prefix__Path_1679" d="M244.1 12.5a4.867 4.867 0 0 1-4.8-4.8 4.8 4.8 0 0 1 9.6 0 4.867 4.867 0 0 1-4.8 4.8zm0-6.8a2 2 0 1 0 2 2 2.074 2.074 0 0 0-2-2z" class="MOBA-2" data-name="Path 1679"/>
        </g>
        <g id="prefix__Group_955" data-name="Group 955" transform="translate(1972.9 1497)">
            <circle id="prefix__Ellipse_735" cx="3.4" cy="3.4" r="3.4" class="MOBA-1" data-name="Ellipse 735" transform="translate(209.8 35.4)"/>
            <path id="prefix__Path_1680" d="M213.2 43.6a4.867 4.867 0 0 1-4.8-4.8 4.8 4.8 0 1 1 4.8 4.8zm0-6.8a2 2 0 1 0 2 2 2.006 2.006 0 0 0-2-2z" class="MOBA-2" data-name="Path 1680"/>
        </g>
        <g id="prefix__Group_956" data-name="Group 956" transform="translate(1972.9 1497)">
            <path id="prefix__Rectangle_3824" d="M0 0H1.1V2.8H0z" class="MOBA-2" data-name="Rectangle 3824" transform="rotate(-45.17 132.963 -280.996)"/>
            <path id="prefix__Path_1681" d="M221.2 32.7l-2-2 1.6-1.6 2 2zm3.2-3.2l-2-2 1.6-1.6 2 2zm3.2-3.2l-2-2 1.6-1.6 2 2zm3.2-3.2l-2-2 1.6-1.6 2 2zm3.2-3.2l-2-2 1.6-1.6 2 2zm3.2-3.3l-2-2 1.6-1.6 2 2z" class="MOBA-2" data-name="Path 1681"/>
            <path id="prefix__Rectangle_3825" d="M0 0H1.1V2.8H0z" class="MOBA-2" data-name="Rectangle 3825" transform="rotate(-45.17 148.24 -244.115)"/>
        </g>
        <g id="prefix__Group_957" data-name="Group 957" transform="translate(1972.9 1497)">
            <path id="prefix__Rectangle_3826" d="M0 0H2.8V1.1H0z" class="MOBA-2" data-name="Rectangle 3826" transform="rotate(-44.85 123.698 -256.448)"/>
            <path id="prefix__Path_1682" d="M236.8 32.7l-1.6-1.6 2-2 1.6 1.6zm-3.2-3.2l-1.6-1.6 2-2 1.6 1.6zm-3.2-3.2l-1.6-1.6 2-2 1.6 1.6zm-3.2-3.2l-1.6-1.6 2-2 1.6 1.6zm-3.2-3.2l-1.6-1.6 2-2 1.6 1.6zm-3.2-3.3l-1.6-1.6 2-2 1.6 1.6z" class="MOBA-2" data-name="Path 1682"/>
            <path id="prefix__Rectangle_3827" d="M0 0H2.8V1.1H0z" class="MOBA-2" data-name="Rectangle 3827" transform="rotate(-44.85 160.934 -271.762)"/>
        </g>
        <path id="prefix__Path_1683" d="M215 33.1h-2.8v-1.6h2.8zm0-3.8h-2.8V27h2.8zm0-4.5h-2.8v-2.3h2.8zm0-4.6h-2.8V18h2.8zm0-4.5h-2.8v-2.3h2.8z" class="MOBA-2" data-name="Path 1683" transform="translate(1972.9 1497)"/>
        <path id="prefix__Path_1684" d="M245.9 33.1H243v-1.6h2.8v1.6zm0-3.8H243V27h2.8v2.3zm0-4.5H243v-2.3h2.8v2.3zm0-4.6H243V18h2.8v2.2zm0-4.5H243v-2.3h2.8v2.3z" class="MOBA-2" data-name="Path 1684" transform="translate(1972.9 1497)"/>
        <path id="prefix__Path_1685" d="M238.8 40.2h-1.5v-2.8h1.5zm-3.8 0h-2.3v-2.8h2.3zm-4.5 0h-2.3v-2.8h2.3zm-4.5 0h-2.3v-2.8h2.3zm-4.5 0h-2.3v-2.8h2.3z" class="MOBA-2" data-name="Path 1685" transform="translate(1972.9 1497)"/>
        <path id="prefix__Path_1686" d="M238.8 9.1h-1.5V6.3h1.5zm-3.8 0h-2.3V6.3h2.3zm-4.5 0h-2.3V6.3h2.3zm-4.5 0h-2.3V6.3h2.3zm-4.5 0h-2.3V6.3h2.3z" class="MOBA-2" data-name="Path 1686" transform="translate(1972.9 1497)"/>
        <g id="prefix__Group_958" data-name="Group 958" transform="translate(1972.9 1497)">
            <circle id="prefix__Ellipse_736" cx="3.4" cy="3.4" r="3.4" data-name="Ellipse 736" transform="translate(225.6 19.5)" style="fill:#f9ec31"/>
            <path id="prefix__Path_1687" d="M229 27.7a4.867 4.867 0 0 1-4.8-4.8 4.8 4.8 0 1 1 4.8 4.8zm0-6.8a2 2 0 1 0 2 2 2.006 2.006 0 0 0-2-2z" class="MOBA-2" data-name="Path 1687"/>
        </g>
    </g>
</svg>
