<svg xmlns="http://www.w3.org/2000/svg" width="40.8" height="40.7" viewBox="0 0 40.8 40.7">
    <defs>
        <style>
            .MOBA_gray-1{fill:#f1f1f2}.MOBA_gray-2{fill:#d0d2d3}
        </style>
    </defs>
    <g id="prefix__Group_966" data-name="Group 966" transform="translate(-2122.2 -1499.9)">
        <g id="prefix__Group_945" data-name="Group 945" transform="translate(1972.9 1497)">
            <circle id="prefix__Ellipse_727" cx="3.4" cy="3.4" r="3.4" class="MOBA_gray-1" data-name="Ellipse 727" transform="translate(151.1 4.3)"/>
            <path id="prefix__Path_1666" d="M154.5 12.5a4.867 4.867 0 0 1-4.8-4.8 4.8 4.8 0 0 1 9.6 0 4.867 4.867 0 0 1-4.8 4.8zm0-6.8a2 2 0 1 0 2 2 2.006 2.006 0 0 0-2-2z" class="MOBA_gray-2" data-name="Path 1666"/>
        </g>
        <g id="prefix__Group_946" data-name="Group 946" transform="translate(1972.9 1497)">
            <circle id="prefix__Ellipse_728" cx="3.4" cy="3.4" r="3.4" class="MOBA_gray-1" data-name="Ellipse 728" transform="translate(181.9 35.4)"/>
            <path id="prefix__Path_1667" d="M185.3 43.6a4.867 4.867 0 0 1-4.8-4.8 4.8 4.8 0 1 1 4.8 4.8zm0-6.8a2 2 0 1 0 2 2 2.006 2.006 0 0 0-2-2z" class="MOBA_gray-2" data-name="Path 1667"/>
        </g>
        <g id="prefix__Group_947" data-name="Group 947" transform="translate(1972.9 1497)">
            <circle id="prefix__Ellipse_729" cx="3.4" cy="3.4" r="3.4" class="MOBA_gray-1" data-name="Ellipse 729" transform="translate(181.6 4.3)"/>
            <path id="prefix__Path_1668" d="M185 12.5a4.867 4.867 0 0 1-4.8-4.8 4.8 4.8 0 0 1 9.6 0 4.867 4.867 0 0 1-4.8 4.8zm0-6.8a2 2 0 1 0 2 2 2.074 2.074 0 0 0-2-2z" class="MOBA_gray-2" data-name="Path 1668"/>
        </g>
        <g id="prefix__Group_948" data-name="Group 948" transform="translate(1972.9 1497)">
            <circle id="prefix__Ellipse_730" cx="3.4" cy="3.4" r="3.4" class="MOBA_gray-1" data-name="Ellipse 730" transform="translate(150.7 35.4)"/>
            <path id="prefix__Path_1669" d="M154.1 43.6a4.867 4.867 0 0 1-4.8-4.8 4.8 4.8 0 0 1 4.8-4.8 4.867 4.867 0 0 1 4.8 4.8 4.8 4.8 0 0 1-4.8 4.8zm0-6.8a2 2 0 1 0 2 2 2.006 2.006 0 0 0-2-2z" class="MOBA_gray-2" data-name="Path 1669"/>
        </g>
        <g id="prefix__Group_949" data-name="Group 949" transform="translate(1972.9 1497)">
            <path id="prefix__Rectangle_3820" d="M0 0H1.1V2.8H0z" class="MOBA_gray-2" data-name="Rectangle 3820" transform="rotate(-45.25 103.382 -209.511)"/>
            <path id="prefix__Path_1670" d="M162.1 32.7l-2-2 1.6-1.6 2 2zm3.2-3.2l-2-2 1.6-1.6 2 2zm3.2-3.2l-2-2 1.6-1.6 2 2zm3.2-3.2l-2-2 1.6-1.6 2 2zm3.2-3.2l-2-2 1.6-1.6 2 2zm3.2-3.3l-2-2 1.6-1.6 2 2z" class="MOBA_gray-2" data-name="Path 1670"/>
            <path id="prefix__Rectangle_3821" d="M0 0H1.1V2.8H0z" class="MOBA_gray-2" data-name="Rectangle 3821" transform="rotate(-45.25 118.607 -172.682)"/>
        </g>
        <g id="prefix__Group_950" data-name="Group 950" transform="translate(1972.9 1497)">
            <path id="prefix__Rectangle_3822" d="M0 0H2.8V1.1H0z" class="MOBA_gray-2" data-name="Rectangle 3822" transform="rotate(-44.8 94.053 -184.908)"/>
            <path id="prefix__Path_1671" d="M177.7 32.7l-1.6-1.6 2-2 1.6 1.6zm-3.2-3.2l-1.6-1.6 2-2 1.6 1.6zm-3.2-3.2l-1.6-1.6 2-2 1.6 1.6zm-3.2-3.2l-1.6-1.6 2-2 1.6 1.6zm-3.2-3.2l-1.6-1.6 2-2 1.6 1.6zm-3.2-3.3l-1.6-1.6 2-2 1.6 1.6z" class="MOBA_gray-2" data-name="Path 1671"/>
            <path id="prefix__Rectangle_3823" d="M0 0H2.8V1.1H0z" class="MOBA_gray-2" data-name="Rectangle 3823" transform="matrix(.71 -.705 .705 .71 179.32 34.373)"/>
        </g>
        <path id="prefix__Path_1672" d="M155.9 33.1h-2.8v-1.6h2.8zm0-3.8h-2.8V27h2.8zm0-4.5h-2.8v-2.3h2.8zm0-4.6h-2.8V18h2.8zm0-4.5h-2.8v-2.3h2.8z" class="MOBA_gray-2" data-name="Path 1672" transform="translate(1972.9 1497)"/>
        <path id="prefix__Path_1673" d="M186.8 33.1H184v-1.6h2.8zm0-3.8H184V27h2.8zm0-4.5H184v-2.3h2.8zm0-4.6H184V18h2.8zm0-4.5H184v-2.3h2.8z" class="MOBA_gray-2" data-name="Path 1673" transform="translate(1972.9 1497)"/>
        <path id="prefix__Path_1674" d="M179.7 40.2h-1.5v-2.8h1.5zm-3.8 0h-2.3v-2.8h2.3zm-4.5 0h-2.3v-2.8h2.3zm-4.5 0h-2.3v-2.8h2.3zm-4.5 0h-2.3v-2.8h2.3z" class="MOBA_gray-2" data-name="Path 1674" transform="translate(1972.9 1497)"/>
        <path id="prefix__Path_1675" d="M179.7 9.1h-1.5V6.3h1.5zm-3.8 0h-2.3V6.3h2.3zm-4.5 0h-2.3V6.3h2.3zm-4.5 0h-2.3V6.3h2.3zm-4.5 0h-2.3V6.3h2.3z" class="MOBA_gray-2" data-name="Path 1675" transform="translate(1972.9 1497)"/>
        <g id="prefix__Group_951" data-name="Group 951" transform="translate(1972.9 1497)">
            <circle id="prefix__Ellipse_731" cx="3.4" cy="3.4" r="3.4" class="MOBA_gray-1" data-name="Ellipse 731" transform="translate(166.5 19.5)"/>
            <path id="prefix__Path_1676" d="M169.9 27.7a4.867 4.867 0 0 1-4.8-4.8 4.8 4.8 0 1 1 4.8 4.8zm0-6.8a2 2 0 1 0 2 2 2.006 2.006 0 0 0-2-2z" class="MOBA_gray-2" data-name="Path 1676"/>
        </g>
    </g>
</svg>
