<svg xmlns="http://www.w3.org/2000/svg" width="47" height="46.8" viewBox="0 0 47 46.8">
    <defs>
        <style>
            .movie-1{fill:#231f20}
        </style>
    </defs>
    <g id="prefix__Group_813" data-name="Group 813" transform="translate(-213.8 -312.9)">
        <path id="prefix__Path_1422" d="M260.8 359.7h-45v-29.1h45zm-42.2-2.9h39.3v-23.4h-39.3v23.4z" class="movie-1" data-name="Path 1422"/>
        <path id="prefix__Path_1423" d="M216.2 333.7l-2.4-10.2 43.7-10.6 2.4 10.2zm.9-8l1.1 4.6 38.2-9.3-1.1-4.6z" class="movie-1" data-name="Path 1423"/>
        <path id="prefix__Path_1424" d="M220.9 331.1l3.8-8.7 4.8-1.2-3.9 8.8z" class="movie-1" data-name="Path 1424"/>
        <path id="prefix__Path_1425" d="M233.4 328.1l3.8-8.8 4.8-1.1-3.8 8.7z" class="movie-1" data-name="Path 1425"/>
        <path id="prefix__Path_1426" d="M255.1 315l-3.8 8.7-4.8 1.2 3.8-8.7z" class="movie-1" data-name="Path 1426"/>
        <path id="prefix__Path_1427" d="M260.8 341h-45v-10.4h45zm-42.2-2.8h39.3v-4.8h-39.3v4.8z" class="movie-1" data-name="Path 1427"/>
        <path id="prefix__Path_1428" d="M220.9 339.6l5.8-7.6h4.9l-5.7 7.6z" class="movie-1" data-name="Path 1428"/>
        <path id="prefix__Path_1429" d="M244.5 332l-5.8 7.6h-4.9l5.8-7.6z" class="movie-1" data-name="Path 1429"/>
        <path id="prefix__Path_1430" d="M247.3 339.6l5.8-7.6h4.9l-5.8 7.6z" class="movie-1" data-name="Path 1430"/>
        <path id="prefix__Rectangle_3544" d="M0 0H16.7V2.8H0z" class="movie-1" data-name="Rectangle 3544" transform="translate(222.9 344.5)"/>
        <path id="prefix__Rectangle_3545" d="M0 0H2V2.8H0z" class="movie-1" data-name="Rectangle 3545" transform="translate(241.6 344.5)"/>
        <path id="prefix__Rectangle_3546" d="M0 0H4.4V2.8H0z" class="movie-1" data-name="Rectangle 3546" transform="translate(245.4 344.5)"/>
        <path id="prefix__Rectangle_3547" d="M0 0H21.6V2.8H0z" class="movie-1" data-name="Rectangle 3547" transform="translate(222.9 348.7)"/>
        <path id="prefix__Rectangle_3548" d="M0 0H3.4V2.8H0z" class="movie-1" data-name="Rectangle 3548" transform="translate(246.4 348.7)"/>
    </g>
</svg>
