<svg xmlns="http://www.w3.org/2000/svg" width="47" height="46.8" viewBox="0 0 47 46.8">
    <defs>
        <style>
            .movie_gray-1{fill:#d0d2d3}
        </style>
    </defs>
    <g id="prefix__Group_812" data-name="Group 812" transform="translate(-153.8 -312.9)">
        <path id="prefix__Path_1413" d="M200.8 359.7h-45v-29.1h45zm-42.2-2.9H198v-23.4h-39.3v23.4z" class="movie_gray-1" data-name="Path 1413"/>
        <path id="prefix__Path_1414" d="M156.2 333.7l-2.4-10.2 43.7-10.6 2.4 10.2zm1-8l1.1 4.6 38.2-9.3-1.1-4.6z" class="movie_gray-1" data-name="Path 1414"/>
        <path id="prefix__Path_1415" d="M160.9 331.1l3.8-8.7 4.8-1.2-3.8 8.8z" class="movie_gray-1" data-name="Path 1415"/>
        <path id="prefix__Path_1416" d="M173.4 328.1l3.8-8.8 4.8-1.1-3.8 8.7z" class="movie_gray-1" data-name="Path 1416"/>
        <path id="prefix__Path_1417" d="M195.1 315l-3.8 8.7-4.7 1.2 3.8-8.7z" class="movie_gray-1" data-name="Path 1417"/>
        <path id="prefix__Path_1418" d="M200.8 341h-45v-10.4h45zm-42.2-2.8H198v-4.8h-39.3v4.8z" class="movie_gray-1" data-name="Path 1418"/>
        <path id="prefix__Path_1419" d="M161 339.6l5.7-7.6h5l-5.8 7.6z" class="movie_gray-1" data-name="Path 1419"/>
        <path id="prefix__Path_1420" d="M184.5 332l-5.7 7.6h-4.9l5.7-7.6z" class="movie_gray-1" data-name="Path 1420"/>
        <path id="prefix__Path_1421" d="M187.4 339.6l5.7-7.6h4.9l-5.7 7.6z" class="movie_gray-1" data-name="Path 1421"/>
        <path id="prefix__Rectangle_3539" d="M0 0H16.7V2.8H0z" class="movie_gray-1" data-name="Rectangle 3539" transform="translate(162.9 344.5)"/>
        <path id="prefix__Rectangle_3540" d="M0 0H2V2.8H0z" class="movie_gray-1" data-name="Rectangle 3540" transform="translate(181.6 344.5)"/>
        <path id="prefix__Rectangle_3541" d="M0 0H4.4V2.8H0z" class="movie_gray-1" data-name="Rectangle 3541" transform="translate(185.5 344.5)"/>
        <path id="prefix__Rectangle_3542" d="M0 0H21.6V2.8H0z" class="movie_gray-1" data-name="Rectangle 3542" transform="translate(162.9 348.7)"/>
        <path id="prefix__Rectangle_3543" d="M0 0H3.4V2.8H0z" class="movie_gray-1" data-name="Rectangle 3543" transform="translate(186.4 348.7)"/>
    </g>
</svg>
