<svg xmlns="http://www.w3.org/2000/svg" width="43.92" height="37.9" viewBox="0 0 43.92 37.9">
    <g id="prefix__Group_779" data-name="Group 779" transform="translate(-8.08 -169)">
        <path id="prefix__Path_1363" d="M48.4 181l.6-1.7-20.2-7.3-.7 1.7-7 18.5a7.981 7.981 0 0 0-3.3-2.2c-3.1-1.1-6.3-.3-7.1 1.8s1.1 4.7 4.2 5.8 6.3.3 7.1-1.8l5.3-14 16.2 5.8-4.2 11a7.981 7.981 0 0 0-3.3-2.2c-3.1-1.1-6.3-.3-7.1 1.8s1.1 4.7 4.2 5.8 6.3.3 7.1-1.7l7.2-19 .4-1 .6-1.3zm-4.2 5L28 180.2l1.3-3.4 16.2 5.8z" data-name="Path 1363" style="fill:#f1f1f2"/>
        <path id="prefix__Path_1364" d="M28.8 172l20.2 7.2-.6 1.7-.5 1.3-.4 1-7.2 19c-.6 1.4-2.2 2.3-4.3 2.3a10.4 10.4 0 0 1-2.9-.5c-3.1-1.1-5-3.7-4.2-5.8.5-1.4 2.2-2.3 4.3-2.3a10.4 10.4 0 0 1 2.9.5 7.374 7.374 0 0 1 3.3 2.2l4.2-11-16.2-5.8-5.3 14c-.5 1.4-2.2 2.3-4.3 2.3a10.4 10.4 0 0 1-2.9-.5c-3.1-1.1-5-3.7-4.2-5.8.5-1.4 2.2-2.3 4.3-2.3a10.4 10.4 0 0 1 2.9.5 7.374 7.374 0 0 1 3.3 2.2l7-18.5.6-1.7m15.4 14l1.3-3.4-16.2-5.8-1.3 3.4 16.2 5.8m-16.8-17l-.8 2.2-.7 1.7-5.9 15.5a8.429 8.429 0 0 0-1.4-.6 11.56 11.56 0 0 0-3.7-.7c-3.1 0-5.6 1.5-6.5 3.8a5.827 5.827 0 0 0 .2 4.3 9.274 9.274 0 0 0 5.4 4.6 11.56 11.56 0 0 0 3.7.7c3.1 0 5.6-1.5 6.5-3.8l4.5-11.8 11.7 4.2-2.2 5.7a8.429 8.429 0 0 0-1.4-.6 11.56 11.56 0 0 0-3.7-.7c-3.1 0-5.6 1.5-6.5 3.8a5.827 5.827 0 0 0 .2 4.3 9.274 9.274 0 0 0 5.4 4.6 11.56 11.56 0 0 0 3.7.7c3.1 0 5.6-1.5 6.5-3.8l7.2-19 .4-1 .5-1.3.6-1.7.9-2.3-2.3-.8-20.2-7.2-2.1-.8z" data-name="Path 1364" style="fill:#d0d2d3"/>
    </g>
</svg>
