<svg xmlns="http://www.w3.org/2000/svg" width="44.02" height="37.9" viewBox="0 0 44.02 37.9">
    <g id="prefix__Group_780" data-name="Group 780" transform="translate(-61.88 -169)">
        <path id="prefix__Path_1365" d="M101.2 183.3l1.5-4-20.1-7.3-1.5 4-1.3 3.4-.7 1.7-4.2 11.1a7.981 7.981 0 0 0-3.3-2.2c-3.1-1.1-6.3-.3-7.1 1.8s1.1 4.7 4.2 5.8 6.3.3 7.1-1.8l5.3-14 16.2 5.8-4.2 11a7.981 7.981 0 0 0-3.3-2.2c-3.1-1.1-6.3-.3-7.1 1.8s1.1 4.7 4.2 5.8 6.3.3 7.1-1.7l5.3-13.9.7-1.7 1.2-3.4zm-3.3 2.7l-16.2-5.8 1.3-3.4 16.2 5.8z" data-name="Path 1365" style="fill:#009aee"/>
        <path id="prefix__Path_1366" d="M82.6 172l20.2 7.2-1.5 4-1.3 3.4-.7 1.7-5.3 14.1c-.6 1.4-2.2 2.3-4.3 2.3a10.4 10.4 0 0 1-2.9-.5c-3.1-1.1-5-3.7-4.2-5.8.5-1.4 2.2-2.3 4.3-2.3a10.4 10.4 0 0 1 2.9.5 7.374 7.374 0 0 1 3.3 2.2l4.2-11-16.2-5.8-5.3 14c-.5 1.4-2.2 2.3-4.3 2.3a10.4 10.4 0 0 1-2.9-.5c-3.1-1.1-5-3.7-4.2-5.8.5-1.4 2.2-2.3 4.3-2.3a10.4 10.4 0 0 1 2.9.5 7.374 7.374 0 0 1 3.3 2.2l4.2-11.1.7-1.7 1.3-3.4 1.5-4.2m15.3 14l1.3-3.4-16.2-5.8-1.3 3.4 16.2 5.8m-16.7-17l-.8 2.2-1.5 4-1.3 3.4-.7 1.7-3.1 8.1a8.429 8.429 0 0 0-1.4-.6 11.56 11.56 0 0 0-3.7-.7c-3.1 0-5.6 1.5-6.5 3.8a5.827 5.827 0 0 0 .2 4.3 9.274 9.274 0 0 0 5.4 4.6 11.56 11.56 0 0 0 3.7.7c3.1 0 5.6-1.5 6.5-3.8l4.5-11.8 11.7 4.2-2.2 5.7a8.429 8.429 0 0 0-1.4-.6 11.56 11.56 0 0 0-3.7-.7c-3.1 0-5.6 1.5-6.5 3.8a5.827 5.827 0 0 0 .2 4.3 9.274 9.274 0 0 0 5.4 4.6 11.56 11.56 0 0 0 3.7.7c3.1 0 5.5-1.4 6.5-3.7v-.1l5.3-13.9.7-1.7 1.3-3.4 1.5-4 .9-2.3-2.3-.8-20.2-7.2-2.2-.8z" data-name="Path 1366" style="fill:#36c"/>
    </g>
</svg>
