<svg xmlns="http://www.w3.org/2000/svg" width="46.825" height="32.1" viewBox="0 0 46.825 32.1">
    <g id="prefix__Group_811" data-name="Group 811" transform="translate(-345.987 -248)">
        <path id="prefix__Path_1411" d="M391.3 264.3a3.333 3.333 0 0 0-3.1-3.1 4.136 4.136 0 0 0-1.9.5 3.936 3.936 0 0 1-2.1.6h-.5v-12.7h-12.1v.5a3.936 3.936 0 0 0 .6 2.1 3.83 3.83 0 0 1 .5 1.9 3.428 3.428 0 0 1-3.1 3.2 3.313 3.313 0 0 1-3.5-3.3 3.371 3.371 0 0 1 .5-1.7 3.936 3.936 0 0 0 .6-2.1v-.5h-12.3v12.7h-.5a3.936 3.936 0 0 1-2.1-.6 3.371 3.371 0 0 0-1.7-.5 3.3 3.3 0 0 0-.2 6.6 4.136 4.136 0 0 0 1.9-.5 3.936 3.936 0 0 1 2.1-.6h.5v12h12.3v-.5a3.936 3.936 0 0 0-.6-2.1 3.83 3.83 0 0 1-.5-1.9 3.428 3.428 0 0 1 3.1-3.2 3.313 3.313 0 0 1 3.5 3.3 3.371 3.371 0 0 1-.5 1.7 3.936 3.936 0 0 0-.6 2.1v.5h12.1v-12h.5a3.936 3.936 0 0 1 2.1.6 3.371 3.371 0 0 0 1.7.5 3.313 3.313 0 0 0 3.3-3.5z" data-name="Path 1411" style="fill:#faaf40"/>
        <path id="prefix__Path_1412" d="M385.2 280.1h-14.9v-1.9a6.026 6.026 0 0 1 .8-2.9 1.689 1.689 0 0 0 .3-1 1.974 1.974 0 0 0-.6-1.4 1.872 1.872 0 0 0-1.4-.5 1.923 1.923 0 0 0-1.7 1.8 2.016 2.016 0 0 0 .3 1.1 5.467 5.467 0 0 1 .8 2.9v1.9h-15.2v-11.8c-.1.1-.3.1-.4.2a4.228 4.228 0 0 1-2.7.7 4.745 4.745 0 0 1-4.5-4.4 4.76 4.76 0 0 1 7.2-4.4c.1.1.3.1.4.2V248h15.2v1.9a6.026 6.026 0 0 1-.8 2.9 1.689 1.689 0 0 0-.3 1 1.974 1.974 0 0 0 .6 1.4 1.872 1.872 0 0 0 1.4.5 1.923 1.923 0 0 0 1.7-1.8 2.016 2.016 0 0 0-.3-1.1 5.467 5.467 0 0 1-.8-2.9V248h14.9v12.6c.1-.1.3-.1.4-.2a4.953 4.953 0 0 1 2.7-.7 4.745 4.745 0 0 1 4.5 4.4 4.76 4.76 0 0 1-7.2 4.4c-.1-.1-.3-.1-.4-.2zm-12-2.8h9.1v-12h1.9a5.376 5.376 0 0 1 2.8.8 1.832 1.832 0 0 0 2.3-.3 1.872 1.872 0 0 0 .5-1.4 2.022 2.022 0 0 0-1.8-1.8 2.28 2.28 0 0 0-1.1.3 5.376 5.376 0 0 1-2.8.8h-1.9V251h-9.1c.1.2.1.3.2.4a4.953 4.953 0 0 1 .7 2.7 4.745 4.745 0 0 1-4.4 4.5 4.784 4.784 0 0 1-5-4.8 4.514 4.514 0 0 1 .7-2.5.764.764 0 0 0 .2-.5h-9.4v12.7h-1.9a5.376 5.376 0 0 1-2.8-.8 1.832 1.832 0 0 0-2.3.3 1.872 1.872 0 0 0-.5 1.4 2.022 2.022 0 0 0 1.8 1.8 2.28 2.28 0 0 0 1.1-.3 5.376 5.376 0 0 1 2.8-.8h1.9v12h9.4c-.1-.2-.1-.3-.2-.4a4.953 4.953 0 0 1-.7-2.7 4.7 4.7 0 0 1 9.4.3 4.514 4.514 0 0 1-.7 2.5c0 .2-.1.3-.2.5z" data-name="Path 1412" style="fill:#f6921e"/>
    </g>
</svg>
