<svg xmlns="http://www.w3.org/2000/svg" width="43.981" height="40.252" viewBox="0 0 43.981 40.252">
    <defs>
        <style>
            .RPG-1{fill:#f9b563}.RPG-2{fill:#f6921e}.RPG-3{fill:#ffef60}.RPG-4{fill:#ffd134}.RPG-5{fill:#fff}.RPG-6{fill:#58595b}
        </style>
    </defs>
    <g id="prefix__Group_899" data-name="Group 899" transform="translate(-72.244 -245.448)">
        <g id="prefix__Group_885" data-name="Group 885">
            <path id="prefix__Rectangle_3613" d="M0 0H8.3V5.2H0z" class="RPG-1" data-name="Rectangle 3613" transform="rotate(-45 372.363 46.787)"/>
            <path id="prefix__Path_1546" d="M79.7 282.4l-5.3-5.3 7.5-7.5 5.3 5.3zm-2-5.4l2 2 4.2-4.2-2-2z" class="RPG-2" data-name="Path 1546"/>
        </g>
        <g id="prefix__Group_886" data-name="Group 886">
            <path id="prefix__Rectangle_3614" d="M0 0H1.8V7.4H0z" class="RPG-3" data-name="Rectangle 3614" transform="rotate(-45 372.014 49.587)"/>
            <path id="prefix__Rectangle_3615" d="M0 0H4.2V9.8H0z" class="RPG-4" data-name="Rectangle 3615" transform="rotate(-45 371.167 51.638)"/>
        </g>
        <g id="prefix__Group_887" data-name="Group 887">
            <path id="prefix__Path_1547" d="M108.3 248.4l-5.3.7L84.2 268l2.3 2.3 2.3 2.3 18.8-18.9z" class="RPG-5" data-name="Path 1547"/>
            <path id="prefix__Path_1548" d="M88.8 274.2l-6.3-6.3 19.9-19.9 7.3-1-1 7.3zm-3-6.2l2.9 2.9 17.7-17.7.5-3.4-3.4.5z" class="RPG-6" data-name="Path 1548"/>
        </g>
        <g id="prefix__Group_892" data-name="Group 892">
            <g id="prefix__Group_888" data-name="Group 888">
                <path id="prefix__Path_1549" d="M79.1 248.4l5.3.7 18.8 18.9-2.3 2.3-2.3 2.3-18.8-18.9z" class="RPG-5" data-name="Path 1549"/>
                <path id="prefix__Path_1550" d="M98.6 275.5a2.878 2.878 0 0 1-2.1-.9l-18.8-18.8a2.716 2.716 0 0 1-.8-1.7l-.7-5.3a3.293 3.293 0 0 1 .8-2.5 2.851 2.851 0 0 1 2.5-.8l5.3.7a3.805 3.805 0 0 1 1.7.8l18.8 18.8a2.959 2.959 0 0 1 0 4.1l-4.6 4.6a2.512 2.512 0 0 1-2.1 1zm-16-23.1l16 16.1.4-.4L83 252l-.5-.1z" class="RPG-5" data-name="Path 1550"/>
            </g>
            <g id="prefix__Group_889" data-name="Group 889">
                <path id="prefix__Rectangle_3616" d="M0 0H13.2V3.9H0z" class="RPG-5" data-name="Rectangle 3616" transform="rotate(-45 379.8 20.85)"/>
                <path id="prefix__Path_1551" d="M99.3 280.4a2.878 2.878 0 0 1-2.1-.9l-2.7-2.7a2.959 2.959 0 0 1 0-4.1l9.4-9.4a2.878 2.878 0 0 1 2.1-.9 2.878 2.878 0 0 1 2.1.9l2.7 2.7a2.959 2.959 0 0 1 0 4.1l-9.4 9.4a3.333 3.333 0 0 1-2.1.9z" class="RPG-5" data-name="Path 1551"/>
            </g>
            <g id="prefix__Group_890" data-name="Group 890">
                <path id="prefix__Rectangle_3617" d="M0 0H5.2V8.3H0z" class="RPG-5" data-name="Rectangle 3617" transform="rotate(-45 382.708 14.568)"/>
                <path id="prefix__Path_1552" d="M107.7 283.6a2.878 2.878 0 0 1-2.1-.9l-5.8-5.8a2.959 2.959 0 0 1 0-4.1l3.7-3.7a2.959 2.959 0 0 1 4.1 0l5.8 5.8a2.959 2.959 0 0 1 0 4.1l-3.7 3.7a2.518 2.518 0 0 1-2 .9z" class="RPG-5" data-name="Path 1552"/>
            </g>
            <g id="prefix__Group_891" data-name="Group 891">
                <path id="prefix__Rectangle_3618" d="M0 0H7.4V1.8H0z" class="RPG-5" data-name="Rectangle 3618" transform="rotate(-45 393.234 11.72)"/>
                <path id="prefix__Path_1553" d="M108.2 285.7a2.878 2.878 0 0 1-2.1-.9l-1.3-1.3a2.959 2.959 0 0 1 0-4.1l5.2-5.2a2.959 2.959 0 0 1 4.1 0l1.3 1.3a2.959 2.959 0 0 1 0 4.1l-5.2 5.2a2.518 2.518 0 0 1-2 .9z" class="RPG-5" data-name="Path 1553"/>
            </g>
        </g>
        <g id="prefix__Group_897" data-name="Group 897">
            <g id="prefix__Group_893" data-name="Group 893">
                <path id="prefix__Path_1554" d="M79.1 248.4l5.3.7 18.8 18.9-2.3 2.3-2.3 2.3-18.8-18.9z" class="RPG-5" data-name="Path 1554"/>
                <path id="prefix__Path_1555" d="M98.6 274.2l-19.9-19.9-1-7.3 7.3 1 19.9 19.9zm-17.7-21l17.7 17.7 2.9-2.9-17.7-17.7-3.4-.5z" class="RPG-6" data-name="Path 1555"/>
            </g>
            <g id="prefix__Group_894" data-name="Group 894">
                <path id="prefix__Rectangle_3619" d="M0 0H5.2V8.3H0z" class="RPG-1" data-name="Rectangle 3619" transform="rotate(-45 382.708 14.568)"/>
                <path id="prefix__Path_1556" d="M107.7 282.4l-7.5-7.5 5.3-5.3 7.5 7.5zm-4.2-7.5l4.2 4.2 2-2-4.2-4.2z" class="RPG-2" data-name="Path 1556"/>
            </g>
            <g id="prefix__Group_895" data-name="Group 895">
                <path id="prefix__Rectangle_3620" d="M0 0H7.4V1.8H0z" data-name="Rectangle 3620" transform="rotate(-45 393.234 11.72)" style="fill:#ffff20"/>
                <path id="prefix__Rectangle_3621" d="M0 0H9.8V4.2H0z" class="RPG-4" data-name="Rectangle 3621" transform="rotate(-45 392.376 13.762)"/>
            </g>
            <g id="prefix__Group_896" data-name="Group 896">
                <path id="prefix__Rectangle_3622" d="M0 0H13.2V3.9H0z" class="RPG-3" data-name="Rectangle 3622" transform="rotate(-45 379.8 20.85)"/>
                <path id="prefix__Path_1557" d="M99.3 279.1l-4.4-4.4 11-11 4.4 4.4zm-1.1-4.4l1.1 1.1 7.7-7.7-1.1-1.1z" class="RPG-4" data-name="Path 1557"/>
            </g>
        </g>
        <g id="prefix__Group_898" data-name="Group 898">
            <path id="prefix__Rectangle_3623" d="M0 0H3.9V13.2H0z" class="RPG-3" data-name="Rectangle 3623" transform="rotate(-45 363.014 38.973)"/>
            <path id="prefix__Path_1558" d="M88.1 279.1l-11-11 4.4-4.4 11 11zm-7.7-11l7.7 7.7 1.1-1.1-7.7-7.7z" class="RPG-4" data-name="Path 1558"/>
        </g>
    </g>
</svg>
