<svg xmlns="http://www.w3.org/2000/svg" id="prefix__Group_749" width="49" height="49" data-name="Group 749" viewBox="0 0 49 49">
    <defs>
        <style>
            .shooting_gray-1{fill:#fff}.shooting_gray-2{fill:#d0d2d3}
        </style>
    </defs>
    <g id="prefix__Group_747" data-name="Group 747">
        <circle id="prefix__Ellipse_648" cx="15.7" cy="15.7" r="15.7" class="shooting_gray-1" data-name="Ellipse 648" transform="translate(8.8 8.8)"/>
        <path id="prefix__Path_1309" d="M24.5 41.6a17.1 17.1 0 1 1 17.1-17.1 17.157 17.157 0 0 1-17.1 17.1zm0-31.4a14.3 14.3 0 1 0 14.3 14.3 14.3 14.3 0 0 0-14.3-14.3z" class="shooting_gray-2" data-name="Path 1309"/>
    </g>
    <g id="prefix__Group_748" data-name="Group 748">
        <circle id="prefix__Ellipse_649" cx="7.9" cy="7.9" r="7.9" class="shooting_gray-1" data-name="Ellipse 649" transform="translate(16.6 16.6)"/>
        <path id="prefix__Path_1310" d="M24.5 33.8a9.3 9.3 0 1 1 9.3-9.3 9.347 9.347 0 0 1-9.3 9.3zm0-15.8a6.5 6.5 0 1 0 6.5 6.5 6.487 6.487 0 0 0-6.5-6.5z" class="shooting_gray-2" data-name="Path 1310"/>
    </g>
    <path id="prefix__Path_1311" d="M24.5 27.6a3.1 3.1 0 1 1 3.1-3.1 3.116 3.116 0 0 1-3.1 3.1zm0-3.3a.215.215 0 0 0-.2.2c0 .2.4.2.4 0a.215.215 0 0 0-.2-.2z" class="shooting_gray-2" data-name="Path 1311"/>
    <path id="prefix__Rectangle_3513" d="M0 0H2.8V12.8H0z" class="shooting_gray-2" data-name="Rectangle 3513" transform="translate(23.1)"/>
    <path id="prefix__Rectangle_3514" d="M0 0H2.8V12.8H0z" class="shooting_gray-2" data-name="Rectangle 3514" transform="translate(23.1 36.2)"/>
    <path id="prefix__Rectangle_3515" d="M0 0H12.8V2.8H0z" class="shooting_gray-2" data-name="Rectangle 3515" transform="translate(36.2 23.1)"/>
    <path id="prefix__Rectangle_3516" d="M0 0H12.8V2.8H0z" class="shooting_gray-2" data-name="Rectangle 3516" transform="translate(0 23.1)"/>
</svg>
