<svg xmlns="http://www.w3.org/2000/svg" width="49" height="49" viewBox="0 0 49 49">
    <defs>
        <style>
            .shooting-1{fill:#fff}.shooting-2{fill:#404041}
        </style>
    </defs>
    <g id="prefix__Group_752" data-name="Group 752" transform="translate(-67)">
        <g id="prefix__Group_750" data-name="Group 750">
            <circle id="prefix__Ellipse_650" cx="15.7" cy="15.7" r="15.7" class="shooting-1" data-name="Ellipse 650" transform="translate(75.8 8.8)"/>
            <path id="prefix__Path_1312" d="M91.5 41.6a17.1 17.1 0 1 1 17.1-17.1 17.157 17.157 0 0 1-17.1 17.1zm0-31.4a14.3 14.3 0 1 0 14.3 14.3 14.3 14.3 0 0 0-14.3-14.3z" class="shooting-2" data-name="Path 1312"/>
        </g>
        <g id="prefix__Group_751" data-name="Group 751">
            <circle id="prefix__Ellipse_651" cx="7.9" cy="7.9" r="7.9" class="shooting-1" data-name="Ellipse 651" transform="translate(83.6 16.6)"/>
            <path id="prefix__Path_1313" d="M91.5 33.8a9.3 9.3 0 1 1 9.3-9.3 9.347 9.347 0 0 1-9.3 9.3zm0-15.8a6.5 6.5 0 1 0 6.5 6.5 6.487 6.487 0 0 0-6.5-6.5z" class="shooting-2" data-name="Path 1313"/>
        </g>
        <path id="prefix__Path_1314" d="M91.5 27.6a3.1 3.1 0 1 1 3.1-3.1 3.116 3.116 0 0 1-3.1 3.1zm0-3.3a.215.215 0 0 0-.2.2c0 .2.4.2.4 0 .1-.1 0-.2-.2-.2z" data-name="Path 1314" style="fill:#ec1c24"/>
        <path id="prefix__Rectangle_3517" d="M0 0H2.8V12.8H0z" class="shooting-2" data-name="Rectangle 3517" transform="translate(90.1)"/>
        <path id="prefix__Rectangle_3518" d="M0 0H2.8V12.8H0z" class="shooting-2" data-name="Rectangle 3518" transform="translate(90.1 36.2)"/>
        <path id="prefix__Rectangle_3519" d="M0 0H12.8V2.8H0z" class="shooting-2" data-name="Rectangle 3519" transform="translate(103.2 23.1)"/>
        <path id="prefix__Rectangle_3520" d="M0 0H12.8V2.8H0z" class="shooting-2" data-name="Rectangle 3520" transform="translate(67 23.1)"/>
    </g>
</svg>
