<svg xmlns="http://www.w3.org/2000/svg" width="47.2" height="48.6" viewBox="0 0 47.2 48.6">
    <defs>
        <style>
            .sport-1{fill:#231f20}
        </style>
    </defs>
    <g id="prefix__Group_756" data-name="Group 756" transform="translate(-206.4 -.2)">
        <g id="prefix__Group_755" data-name="Group 755">
            <path id="prefix__Path_1317" d="M230 48.8c-13 0-23.6-10.9-23.6-24.3S217 .2 230 .2s23.6 10.9 23.6 24.3S243 48.8 230 48.8zm0-45.4c-11.2 0-20.4 9.5-20.4 21.1s9.1 21.1 20.4 21.1 20.4-9.5 20.4-21.1S241.2 3.4 230 3.4z" class="sport-1" data-name="Path 1317"/>
        </g>
        <path id="prefix__Path_1318" d="M239.7 24l6.5-2.6 5 7.7v-9.7l1.8-.8-1.2-2.8-1.1.5-5.4-7.6v9.8l-6.4 2.5-7.4-5.5V7l8-2.9-8-2.5v-.1h-.4l-2-.7L218.9 4l9.6 3v8.5l-7.4 5.5-6.7-2.7V8.7l-5.4 7.5-.8-.4-1.2 2.8 1.5.6v9.9l5-7.8 6.8 2.7 2.7 8.6-3.4 6.2-9-1.9 6.1 7-.3.5 2.7 1.5.5-.9 9.2 1.9-6.5-6.7 3.1-5.6h9.2l3 5.3-6.8 7 11.6-2.4 6.6-7.6-8.6 1.8-3.4-6.1z" class="sport-1" data-name="Path 1318"/>
    </g>
</svg>
