<svg xmlns="http://www.w3.org/2000/svg" width="47.2" height="48.6" viewBox="0 0 47.2 48.6">
    <defs>
        <style>
            .sport_gray-1{fill:#d0d2d3}
        </style>
    </defs>
    <g id="prefix__Group_754" data-name="Group 754" transform="translate(-148.9 -.2)">
        <g id="prefix__Group_753" data-name="Group 753">
            <path id="prefix__Path_1315" d="M172.5 48.8c-13 0-23.6-10.9-23.6-24.3S159.5.2 172.5.2s23.6 10.9 23.6 24.3-10.6 24.3-23.6 24.3zm0-45.4c-11.2 0-20.4 9.5-20.4 21.1s9.1 21.1 20.4 21.1 20.4-9.5 20.4-21.1-9.1-21.1-20.4-21.1z" class="sport_gray-1" data-name="Path 1315"/>
        </g>
        <path id="prefix__Path_1316" d="M182.2 24l6.5-2.6 5 7.7v-9.7l1.8-.8-1.1-2.8-1.2.5-5.4-7.6v9.8l-6.4 2.5-7.3-5.5V7l7.9-2.9-7.9-2.5v-.1h-.5l-2-.7L161.4 4l9.6 3v8.5l-7.3 5.5-6.8-2.7V8.7l-5.3 7.5-.9-.4-1.1 2.8 1.4.6v9.9l5.1-7.8 6.7 2.7 2.8 8.6-3.5 6.2-8.9-1.9 6.1 7-.3.5 2.6 1.5.5-.9 9.2 1.9-6.5-6.7 3.1-5.6h9.3l2.9 5.3-6.7 7 11.5-2.4 6.6-7.6-8.6 1.8-3.4-6.1z" class="sport_gray-1" data-name="Path 1316"/>
    </g>
</svg>
