<svg xmlns="http://www.w3.org/2000/svg" width="22.9" height="45" viewBox="0 0 22.9 45">
    <defs>
        <style>
            .stimulation_gray-2{fill:#d0d2d3}
        </style>
    </defs>
    <g id="prefix__Group_968" data-name="Group 968" transform="translate(-2278.35 -1497)">
        <g id="prefix__Group_944" data-name="Group 944" transform="translate(1972.9 1497)">
            <path id="prefix__Path_1664" d="M326.9 22.5l-10-21.1-10 21.1 10 21.1z" data-name="Path 1664" style="fill:#f1f1f2"/>
            <path id="prefix__Path_1665" d="M316.9 45a1.56 1.56 0 0 1-1.3-.8l-10-21.1a1.275 1.275 0 0 1 0-1.2l10-21.1a1.34 1.34 0 0 1 1.3-.8 1.441 1.441 0 0 1 1.3.8l10 21.1a1.275 1.275 0 0 1 0 1.2l-10 21.1a1.56 1.56 0 0 1-1.3.8zm-8.4-22.5l8.4 17.8 8.4-17.8-8.4-17.8z" class="stimulation_gray-2" data-name="Path 1665"/>
        </g>
        <g id="prefix__Group_959" data-name="Group 959" transform="translate(1972.9 1497)">
            <path id="prefix__Line_1131" d="M0 0L20 0" data-name="Line 1131" transform="translate(306.9 22.5)" style="fill:#fff"/>
            <path id="prefix__Rectangle_3828" d="M0 0H19.9V2.8H0z" class="stimulation_gray-2" data-name="Rectangle 3828" transform="translate(306.9 21.1)"/>
        </g>
        <path id="prefix__Path_1688" d="M316.2 43.7l-4.8-21.1v-.3l4.8-21.1 1.4.3-4.7 20.9 4.7 20.9z" class="stimulation_gray-2" data-name="Path 1688" transform="translate(1972.9 1497)"/>
        <path id="prefix__Path_1689" d="M317.6 43.7l-1.4-.3 4.7-20.9-4.7-20.9 1.4-.3 4.8 21.1v.3z" class="stimulation_gray-2" data-name="Path 1689" transform="translate(1972.9 1497)"/>
    </g>
</svg>
