<svg xmlns="http://www.w3.org/2000/svg" width="27.7" height="50.7" viewBox="0 0 27.7 50.7">
    <defs>
        <style>
            .strategy_gray-1{fill:#f1f1f2}.strategy_gray-2{fill:#d0d2d3}
        </style>
    </defs>
    <g id="prefix__Group_769" data-name="Group 769" transform="translate(-297 -86.2)">
        <g id="prefix__Group_761" data-name="Group 761">
            <path id="prefix__Path_1331" d="M314.4 106.4h-7a2.476 2.476 0 0 1-2.5-2.5 2.476 2.476 0 0 1 2.5-2.5h7a2.476 2.476 0 0 1 2.5 2.5 2.476 2.476 0 0 1-2.5 2.5z" class="strategy_gray-1" data-name="Path 1331"/>
            <path id="prefix__Path_1332" d="M314.4 107.8h-7a4 4 0 0 1 0-8h7a4 4 0 1 1 0 8zm-7-5.1a1.1 1.1 0 1 0 0 2.2h7a1.1 1.1 0 1 0 0-2.2z" class="strategy_gray-2" data-name="Path 1332"/>
        </g>
        <g id="prefix__Group_762" data-name="Group 762">
            <path id="prefix__Path_1333" d="M318.8 105.1h-15.9a1.216 1.216 0 0 1-1.2-1.2 1.216 1.216 0 0 1 1.2-1.2h15.9a1.216 1.216 0 0 1 1.2 1.2 1.216 1.216 0 0 1-1.2 1.2z" class="strategy_gray-1" data-name="Path 1333"/>
            <path id="prefix__Path_1334" d="M318.8 105.8h-15.9a2 2 0 0 1 0-4h15.9a2 2 0 0 1 0 4zm-15.9-2.5a.5.5 0 0 0 0 1h15.9a.5.5 0 0 0 0-1z" class="strategy_gray-2" data-name="Path 1334"/>
        </g>
        <g id="prefix__Group_763" data-name="Group 763">
            <path id="prefix__Path_1335" d="M313.5 106.4h-5.2s0 15.4-4.5 18.8v.9H318v-.9c-4.5-3.4-4.5-18.8-4.5-18.8z" class="strategy_gray-1" data-name="Path 1335"/>
            <path id="prefix__Path_1336" d="M319.3 127.6h-17v-3l.5-.4c2.8-2.2 3.9-12.1 3.9-17.7V105h8.1v1.4c0 5.7 1.1 15.5 3.9 17.7l.5.4v3.1zm-13.2-2.9h9.5c-2.9-4.4-3.4-13.3-3.5-16.9h-2.5c-.1 3.6-.6 12.5-3.5 16.9z" class="strategy_gray-2" data-name="Path 1336"/>
        </g>
        <g id="prefix__Group_764" data-name="Group 764">
            <path id="prefix__Path_1337" d="M310.8 100.9h-2.9s-5.2-4.5-3.1-6.6 6-2.1 6-2.1" class="strategy_gray-1" data-name="Path 1337"/>
            <path id="prefix__Path_1338" d="M310.8 102.3h-3.5l-.3-.3c-.7-.6-4-3.6-4-6.3a3.583 3.583 0 0 1 .9-2.4c2.5-2.5 6.8-2.5 7-2.5v2.8c-.9 0-3.6.3-5 1.6a.349.349 0 0 0-.1.2c0 1 1.5 2.8 2.7 3.9h2.4v3z" class="strategy_gray-2" data-name="Path 1338"/>
        </g>
        <g id="prefix__Group_765" data-name="Group 765">
            <path id="prefix__Path_1339" d="M317.9 126.1h-14.2a3.685 3.685 0 0 0-2.7 3.5h19.6a3.685 3.685 0 0 0-2.7-3.5z" class="strategy_gray-1" data-name="Path 1339"/>
            <path id="prefix__Path_1340" d="M322 131h-22.4v-1.4a5.181 5.181 0 0 1 3.8-4.9h14.8a5.077 5.077 0 0 1 3.8 4.9v1.4zm-19-2.8h15.7a1.365 1.365 0 0 0-1-.6H304a1.365 1.365 0 0 0-1 .6z" class="strategy_gray-2" data-name="Path 1340"/>
        </g>
        <g id="prefix__Group_766" data-name="Group 766">
            <path id="prefix__Path_1341" d="M310.8 100.9h2.9s5.2-4.5 3.1-6.6-6-2.1-6-2.1" class="strategy_gray-1" data-name="Path 1341"/>
            <path id="prefix__Path_1342" d="M314.3 102.3h-3.5v-2.8h2.4c1.2-1.1 2.7-2.9 2.7-3.9 0-.1 0-.2-.1-.2-1.4-1.3-4-1.6-5-1.6V91c.2 0 4.5 0 7 2.5a3.244 3.244 0 0 1 .9 2.4c-.1 2.7-3.4 5.7-4 6.3z" class="strategy_gray-2" data-name="Path 1342"/>
        </g>
        <g id="prefix__Group_767" data-name="Group 767">
            <path id="prefix__Path_1343" d="M311.6 89.1v-1.5h-1.5v1.5h-1.7v1.5h1.7v1.7h1.5v-1.7h1.7v-1.5z" class="strategy_gray-1" data-name="Path 1343"/>
            <path id="prefix__Path_1344" d="M311.6 87.6v1.5h1.8v1.5h-1.8v1.6h-1.4v-1.6h-1.7v-1.5h1.7v-1.5h1.4m1.4-1.4h-4.2v1.5h-1.7V92h1.7v1.6h4.2V92h1.7v-4.3H313v-1.5z" class="strategy_gray-2" data-name="Path 1344"/>
        </g>
        <g id="prefix__Group_768" data-name="Group 768">
            <path id="prefix__Path_1345" d="M320.9 134.1h-20.1a1 1 0 0 1-1-1 1 1 0 0 1 1-1h20.1a1 1 0 0 1 1 1 1.075 1.075 0 0 1-1 1z" class="strategy_gray-1" data-name="Path 1345"/>
            <path id="prefix__Path_1346" d="M320.9 132.1a1 1 0 0 1 1 1 .945.945 0 0 1-1 1h-20.1a1 1 0 0 1-1-1 .945.945 0 0 1 1-1h20.1m0-2.8h-20.1a3.8 3.8 0 0 0 0 7.6h20.1a3.8 3.8 0 0 0 0-7.6z" class="strategy_gray-2" data-name="Path 1346"/>
        </g>
    </g>
</svg>
