<svg xmlns="http://www.w3.org/2000/svg" width="27.7" height="50.7" viewBox="0 0 27.7 50.7">
    <defs>
        <style>
            .strategy-1{fill:#5a4a42}.strategy-2{fill:#404041}
        </style>
    </defs>
    <g id="prefix__Group_778" data-name="Group 778" transform="translate(-355.9 -86.2)">
        <g id="prefix__Group_770" data-name="Group 770">
            <path id="prefix__Path_1347" d="M373.3 106.4h-7a2.476 2.476 0 0 1-2.5-2.5 2.476 2.476 0 0 1 2.5-2.5h7a2.476 2.476 0 0 1 2.5 2.5 2.476 2.476 0 0 1-2.5 2.5z" class="strategy-1" data-name="Path 1347"/>
            <path id="prefix__Path_1348" d="M373.3 107.8h-7a4 4 0 0 1 0-8h7a4.012 4.012 0 0 1 4 4 4.078 4.078 0 0 1-4 4zm-7-5.1a1.1 1.1 0 1 0 0 2.2h7a1.1 1.1 0 1 0 0-2.2z" class="strategy-2" data-name="Path 1348"/>
        </g>
        <g id="prefix__Group_771" data-name="Group 771">
            <path id="prefix__Path_1349" d="M377.7 105.1h-15.9a1.216 1.216 0 0 1-1.2-1.2 1.216 1.216 0 0 1 1.2-1.2h15.9a1.216 1.216 0 0 1 1.2 1.2 1.216 1.216 0 0 1-1.2 1.2z" class="strategy-1" data-name="Path 1349"/>
            <path id="prefix__Path_1350" d="M377.7 105.8h-15.9a2 2 0 0 1 0-4h15.9a2.006 2.006 0 0 1 2 2 2.074 2.074 0 0 1-2 2zm-15.9-2.5a.5.5 0 0 0 0 1h15.9a.5.5 0 0 0 0-1z" class="strategy-2" data-name="Path 1350"/>
        </g>
        <g id="prefix__Group_772" data-name="Group 772">
            <path id="prefix__Path_1351" d="M372.3 106.4h-5.2s0 15.4-4.5 18.8v.9h14.2v-.9c-4.5-3.4-4.5-18.8-4.5-18.8z" class="strategy-1" data-name="Path 1351"/>
            <path id="prefix__Path_1352" d="M378.2 127.6h-17v-3l.5-.4c2.9-2.2 3.9-12.1 3.9-17.7V105h8.1v1.4c0 5.7 1.1 15.5 3.9 17.7l.5.4v3.1zm-13.2-2.9h9.5c-2.9-4.4-3.4-13.3-3.5-16.9h-2.5c-.1 3.6-.6 12.5-3.5 16.9z" class="strategy-2" data-name="Path 1352"/>
        </g>
        <g id="prefix__Group_773" data-name="Group 773">
            <path id="prefix__Path_1353" d="M369.7 100.9h-2.9s-5.2-4.5-3.1-6.6 6-2.1 6-2.1" class="strategy-1" data-name="Path 1353"/>
            <path id="prefix__Path_1354" d="M369.7 102.3h-3.5l-.4-.4c-.7-.6-4-3.6-4-6.3a3.583 3.583 0 0 1 .9-2.4c2.5-2.5 6.8-2.5 7-2.5v2.8c-.9 0-3.6.3-5 1.6a.349.349 0 0 0-.1.2c0 1 1.5 2.8 2.7 3.9h2.4z" class="strategy-2" data-name="Path 1354"/>
        </g>
        <g id="prefix__Group_774" data-name="Group 774">
            <path id="prefix__Path_1355" d="M376.8 126.1h-14.2a3.685 3.685 0 0 0-2.7 3.5h19.6a3.685 3.685 0 0 0-2.7-3.5z" class="strategy-1" data-name="Path 1355"/>
            <path id="prefix__Path_1356" d="M380.9 131h-22.4v-1.4a5.181 5.181 0 0 1 3.8-4.9h14.8a5.077 5.077 0 0 1 3.8 4.9v1.4zm-19-2.8h15.7a1.365 1.365 0 0 0-1-.6h-13.7a1.365 1.365 0 0 0-1 .6z" class="strategy-2" data-name="Path 1356"/>
        </g>
        <g id="prefix__Group_775" data-name="Group 775">
            <path id="prefix__Path_1357" d="M369.7 100.9h2.9s5.2-4.5 3.1-6.6-6-2.1-6-2.1" class="strategy-1" data-name="Path 1357"/>
            <path id="prefix__Path_1358" d="M373.2 102.3h-3.5v-2.8h2.4c1.2-1.1 2.7-2.9 2.7-3.9 0-.1 0-.2-.1-.2-1.4-1.3-4-1.6-5-1.6V91c.2 0 4.5 0 7 2.5a3.168 3.168 0 0 1 .9 2.3c-.1 2.7-3.4 5.7-4 6.3z" class="strategy-2" data-name="Path 1358"/>
        </g>
        <g id="prefix__Group_776" data-name="Group 776">
            <path id="prefix__Path_1359" d="M370.4 89.1v-1.5H369v1.5h-1.8v1.5h1.8v1.7h1.4v-1.7h1.8v-1.5z" class="strategy-1" data-name="Path 1359"/>
            <path id="prefix__Path_1360" d="M370.4 87.6v1.5h1.8v1.5h-1.8v1.6H369v-1.6h-1.7v-1.5h1.7v-1.5h1.4m1.5-1.4h-4.3v1.5h-1.7V92h1.7v1.6h4.2V92h1.7v-4.3h-1.7v-1.5z" class="strategy-2" data-name="Path 1360"/>
        </g>
        <g id="prefix__Group_777" data-name="Group 777">
            <path id="prefix__Path_1361" d="M379.8 134.1h-20.1a1 1 0 0 1-1-1 1 1 0 0 1 1-1h20.1a1 1 0 0 1 1 1 1.075 1.075 0 0 1-1 1z" class="strategy-1" data-name="Path 1361"/>
            <path id="prefix__Path_1362" d="M379.8 132.1a1 1 0 0 1 1 1 .945.945 0 0 1-1 1h-20.1a1 1 0 0 1-1-1 .945.945 0 0 1 1-1h20.1m0-2.8h-20.1a3.8 3.8 0 0 0 0 7.6h20.1a3.8 3.8 0 0 0 0-7.6z" class="strategy-2" data-name="Path 1362"/>
        </g>
    </g>
</svg>
