<svg xmlns="http://www.w3.org/2000/svg" width="37.305" height="50.268" viewBox="0 0 37.305 50.268">
    <defs>
        <style>
            .survival_gray-2{fill:#d0d2d3}
        </style>
    </defs>
    <g id="prefix__Group_874" data-name="Group 874" transform="translate(-11.399 -401.1)">
        <g id="prefix__Group_873" data-name="Group 873">
            <path id="prefix__Path_1518" d="M30.2 413.3c-.9-7 6.2-9.4 6.2-9.4-2.6 6.4 4.5 10.8 7.7 16 1.2 2 2.1 4 1.7 6.3a8.461 8.461 0 0 1-3.9 6c-2.9 1.9-6.7 2.7-10.4 2.9a27.424 27.424 0 0 1-10.7-1.3 11.683 11.683 0 0 1-5-3.2 7.326 7.326 0 0 1-1.7-4.9c-.1-7.4 6.2-11.8 12.8-16.2a.1.1 0 0 0 .1-.1c.6-.4.8-.4 1.1-.6-.7 4.4 2.1 4.5 2.1 4.5z" data-name="Path 1518" style="fill:#e6e7e8"/>
            <path id="prefix__Path_1519" d="M36.3 403.9c-2.6 6.4 4.5 10.8 7.7 16 1.2 2 2.1 4 1.7 6.3a8.461 8.461 0 0 1-3.9 6c-2.9 1.9-6.7 2.7-10.4 2.9-.7 0-1.4.1-2 .1a27.773 27.773 0 0 1-8.7-1.3 11.683 11.683 0 0 1-5-3.2 7.326 7.326 0 0 1-1.7-4.9c-.1-7.4 6.2-11.8 12.8-16.2a.1.1 0 0 0 .1-.1c.6-.4.8-.4 1.1-.6-.8 4.2 2 4.4 2 4.4-.7-7 6.3-9.4 6.3-9.4m.1-2.8a4.4 4.4 0 0 0-2.2.7 12.135 12.135 0 0 0-5.2 4.5 2.485 2.485 0 0 0-.8-.1 2.663 2.663 0 0 0-1.2.3h-.1a3.438 3.438 0 0 0-1.4.8c-6.3 4.2-14.2 9.4-14.1 18.6a10.277 10.277 0 0 0 2.4 6.6 13.27 13.27 0 0 0 6.2 4.1 28.454 28.454 0 0 0 9.6 1.5 16.2 16.2 0 0 0 2.2-.1c4.8-.3 8.8-1.4 11.7-3.3a11.65 11.65 0 0 0 5.1-8 12.273 12.273 0 0 0-2.1-8.2 41.719 41.719 0 0 0-3.6-4.7c-3.1-3.6-5-5.9-3.8-8.7a2.922 2.922 0 0 0-.6-3.1 2.955 2.955 0 0 0-2.1-.9zm-5.5 9.7z" class="survival_gray-2" data-name="Path 1519"/>
        </g>
        <path id="prefix__Path_1520" d="M30.9 418s-.1 2.6-5.3 5.5-3.1 10.1 4.6 10.1c8.7.1 10-10.1.7-15.6z" data-name="Path 1520" style="fill:#fff"/>
        <ellipse id="prefix__Ellipse_658" cx="3.1" cy="2" class="survival_gray-2" data-name="Ellipse 658" rx="3.1" ry="2" transform="rotate(-73.98 299.342 212.721)"/>
        <ellipse id="prefix__Ellipse_659" cx="3.1" cy="2" class="survival_gray-2" data-name="Ellipse 659" rx="3.1" ry="2" transform="rotate(-73.98 319.932 197.252)"/>
        <path id="prefix__Rectangle_3575" d="M0 0H31V6.3H0z" class="survival_gray-2" data-name="Rectangle 3575" transform="rotate(16.05 -1541.597 275.751)"/>
        <ellipse id="prefix__Ellipse_660" cx="2" cy="3.1" class="survival_gray-2" data-name="Ellipse 660" rx="2" ry="3.1" transform="rotate(-16.05 1572.98 69.682)"/>
        <ellipse id="prefix__Ellipse_661" cx="2" cy="3.1" class="survival_gray-2" data-name="Ellipse 661" rx="2" ry="3.1" transform="rotate(-16.05 1588.172 179.861)"/>
        <path id="prefix__Rectangle_3576" d="M0 0H31V6.3H0z" class="survival_gray-2" data-name="Rectangle 3576" transform="rotate(163.95 -8.245 224.414)"/>
    </g>
</svg>
