<svg xmlns="http://www.w3.org/2000/svg" width="34.32" height="44.9" viewBox="0 0 34.32 44.9">
    <defs>
        <style>
            .violence-2{fill:#e29881}.violence-3{fill:#be1e2d}
        </style>
    </defs>
    <g id="prefix__Group_917" data-name="Group 917" transform="translate(-350.78 -496.1)">
        <path id="prefix__Path_1589" d="M368.9 496.6c3 6.8 0 11.2 0 11.2l-16.8 18.7s-.5 7.4 5.8 8.1c6.3.6 5.7 6.3 5.7 6.3H385v-44.3h-16.1z" data-name="Path 1589" style="fill:#f1c4c5"/>
        <path id="prefix__Path_1590" d="M365.1 541l-2.8-.3a4.52 4.52 0 0 0-.9-3.1 5.025 5.025 0 0 0-3.5-1.6c-6.1-.6-7.3-6.5-7.1-9.6a.91.91 0 0 1 .4-.8l16.7-18.6c.3-.5 2.3-4.2-.2-9.8l2.6-1.1c3.2 7.5 0 12.4-.1 12.6 0 .1-.1.1-.1.2L353.6 527c0 1.5.4 5.7 4.6 6.1a7.108 7.108 0 0 1 5.4 2.7 7.848 7.848 0 0 1 1.5 5.2z" class="violence-2" data-name="Path 1590"/>
        <path id="prefix__Path_1591" d="M366.6 540.9h-4.3c.1-6.2 2.2-9.8 2.3-9.9l3.7 2.2-1.8-1.1 1.8 1.1c0-.1-1.6 2.7-1.7 7.7z" class="violence-3" data-name="Path 1591"/>
        <path id="prefix__Path_1592" d="M377.7 524.3l-3.3-2.7c.2-.2 4.2-5.1 10.7-5.1v4.3a10.072 10.072 0 0 0-7.4 3.5z" class="violence-3" data-name="Path 1592"/>
        <g id="prefix__Group_915" data-name="Group 915">
            <path id="prefix__Line_1051" d="M0 0L3.6 7.4" data-name="Line 1051" transform="translate(377.9 516.2)" style="fill:#f1f1f2"/>
            <path id="prefix__Rectangle_3626" d="M0 0H2.8V8.2H0z" class="violence-3" data-name="Rectangle 3626" transform="rotate(-25.963 1309.253 -558.541)"/>
        </g>
        <path id="prefix__Path_1593" d="M367.8 534.1c-1.1-1.4-4.1-.6-5-.2l-1.1-2.6c.2-.1 5.6-2.2 8.2 1z" data-name="Path 1593" style="fill:#3b2314"/>
        <g id="prefix__Group_916" data-name="Group 916">
            <path id="prefix__Path_1594" d="M362.8 514.6l10 4.1 2.3-5.5-8-3.4z" data-name="Path 1594" style="fill:#ce8d74"/>
            <path id="prefix__Path_1595" d="M372.8 520.1a.75.75 0 0 1-.5-.1l-9.9-4.2a1.375 1.375 0 0 1-.8-1 1.592 1.592 0 0 1 .3-1.3l4.3-4.8a1.42 1.42 0 0 1 1.6-.4l8 3.4a1.549 1.549 0 0 1 .8.8 2.054 2.054 0 0 1 0 1.1l-2.4 5.5a1.662 1.662 0 0 1-1.4 1zm-7.6-6.1l6.8 2.8 1.3-2.9-5.8-2.4z" data-name="Path 1595" style="fill:#ce7f74"/>
        </g>
        <path id="prefix__Path_1596" d="M368.1 516.8l3-5.4-4-1.6-4.3 4.8z" class="violence-2" data-name="Path 1596"/>
    </g>
</svg>
