<svg xmlns="http://www.w3.org/2000/svg" width="34.32" height="44.9" viewBox="0 0 34.32 44.9">
    <defs>
        <style>
            .violence_gray-1{fill:#f1f1f2}.violence_gray-2{fill:#d0d2d3}
        </style>
    </defs>
    <g id="prefix__Group_914" data-name="Group 914" transform="translate(-304.28 -496.1)">
        <path id="prefix__Path_1582" d="M322.4 496.6c3 6.8 0 11.2 0 11.2l-16.8 18.7s-.5 7.4 5.8 8.1c6.3.6 5.7 6.3 5.7 6.3h21.4v-44.3h-16.1z" class="violence_gray-1" data-name="Path 1582"/>
        <path id="prefix__Path_1583" d="M318.6 541l-2.8-.3a4.52 4.52 0 0 0-.9-3.1 5.025 5.025 0 0 0-3.5-1.6c-6.1-.6-7.3-6.5-7.1-9.6a.91.91 0 0 1 .4-.8l16.7-18.6c.3-.5 2.3-4.2-.2-9.8l2.6-1.1c3.2 7.5 0 12.4-.1 12.6 0 .1-.1.1-.1.2L307.1 527c0 1.5.4 5.7 4.6 6.1a7.108 7.108 0 0 1 5.4 2.7 7.848 7.848 0 0 1 1.5 5.2z" class="violence_gray-2" data-name="Path 1583"/>
        <path id="prefix__Path_1584" d="M321.4 534.1c-1.1-1.4-4.1-.6-5-.2l-1.1-2.6c.2-.1 5.6-2.2 8.2 1z" class="violence_gray-2" data-name="Path 1584"/>
        <path id="prefix__Path_1585" d="M320.2 540.9h-4.3c.1-6.2 2.2-9.8 2.3-9.9l3.7 2.2-1.9-1.2 1.8 1.1a16.846 16.846 0 0 0-1.6 7.8z" class="violence_gray-2" data-name="Path 1585"/>
        <path id="prefix__Path_1586" d="M331.2 524.3l-3.3-2.7c.2-.2 4.2-5.1 10.7-5.1v4.3a10.072 10.072 0 0 0-7.4 3.5z" class="violence_gray-2" data-name="Path 1586"/>
        <g id="prefix__Group_913" data-name="Group 913">
            <path id="prefix__Line_1050" d="M0 0L3.6 7.4" class="violence_gray-1" data-name="Line 1050" transform="translate(331.4 516.2)"/>
            <path id="prefix__Rectangle_3625" d="M0 0H2.8V8.2H0z" class="violence_gray-2" data-name="Rectangle 3625" transform="rotate(-25.963 1286.037 -457.685)"/>
        </g>
        <path id="prefix__Path_1587" d="M326.3 520.1a.75.75 0 0 1-.5-.1l-9.9-4.2a1.375 1.375 0 0 1-.8-1 1.592 1.592 0 0 1 .3-1.3l4.3-4.8a1.42 1.42 0 0 1 1.6-.4l8 3.4a1.549 1.549 0 0 1 .8.8 2.054 2.054 0 0 1 0 1.1l-2.4 5.5a1.554 1.554 0 0 1-1.4 1zm-7.5-6.1l6.8 2.8 1.3-2.9-5.8-2.4z" class="violence_gray-2" data-name="Path 1587"/>
        <path id="prefix__Path_1588" d="M321.7 518.2a.75.75 0 0 1-.5-.1l-5.3-2.2a1.375 1.375 0 0 1-.8-1 1.592 1.592 0 0 1 .3-1.3l4.3-4.8a1.42 1.42 0 0 1 1.6-.4l4 1.7a1.549 1.549 0 0 1 .8.8 1.417 1.417 0 0 1-.1 1.1l-2.9 5.3a1.74 1.74 0 0 1-1.4.9zm-2.9-4.2l2.3 1 1.6-2.8-1.6-.7z" class="violence_gray-2" data-name="Path 1588"/>
    </g>
</svg>
