<svg xmlns="http://www.w3.org/2000/svg" width="45.14" height="30.818" viewBox="0 0 45.14 30.818">
    <defs>
        <style>
            .VR-1{fill:#404041}.VR-2{fill:#231f20}.VR-3{fill:#58595b}
        </style>
    </defs>
    <g id="prefix__Group_872" data-name="Group 872" transform="translate(-215.753 -417.382)">
        <g id="prefix__Group_867" data-name="Group 867">
            <path id="prefix__Path_1508" d="M218.9 425.2c-1.3-1.8-1.4-3.3.6-4.3 6-3.2 11.9-2.2 15.9-1.2 2.8.7 10.8 4.4 10.8 4.4s-3 3-4.3 3.1c0 0-11.2-8.1-20.1-3.8-.7.4-2.9 1.8-2.9 1.8z" class="VR-1" data-name="Path 1508"/>
            <path id="prefix__Path_1509" d="M241.9 428.7a1.136 1.136 0 0 1-.8-.3c-.1-.1-10.7-7.6-18.6-3.7-.5.3-2 1.2-2.8 1.7a1.4 1.4 0 0 1-1.9-.3 4.553 4.553 0 0 1-1.1-3.8 3.957 3.957 0 0 1 2.2-2.6c6.2-3.3 12.3-2.4 16.9-1.4 2.9.7 10.8 4.4 11.1 4.5a1.589 1.589 0 0 1 .8 1 1.286 1.286 0 0 1-.4 1.2c-1.3 1.3-3.6 3.4-5.2 3.5-.1.2-.1.2-.2.2zm-14.2-7.9c6.5 0 12.6 3.7 14.5 4.9a15.864 15.864 0 0 0 1.6-1.1 67.846 67.846 0 0 0-8.6-3.5c-4.4-1-9.6-1.7-14.9 1.1a1.9 1.9 0 0 0-.8.7v.3c.6-.4 1.4-.8 1.8-1.1a15.6 15.6 0 0 1 6.4-1.3z" class="VR-2" data-name="Path 1509"/>
        </g>
        <g id="prefix__Group_868" data-name="Group 868">
            <path id="prefix__Path_1510" d="M218.1 422.3s-1.3 5.5-.8 7c.8 2.4 6.4 8.1 6.4 8.1s-.5-4 1.3-6c0 0-6.4-3.4-6.9-9.1z" class="VR-3" data-name="Path 1510"/>
            <path id="prefix__Path_1511" d="M223.7 438.8a1.284 1.284 0 0 1-1-.4c-1-1-6-6-6.8-8.6-.5-1.7.4-6 .8-7.7a1.5 1.5 0 0 1 1.5-1.1 1.487 1.487 0 0 1 1.3 1.3c.4 4.9 6 7.9 6.1 7.9a1.2 1.2 0 0 1 .7 1 1.314 1.314 0 0 1-.3 1.2c-1.1 1.2-1 4-.9 4.9a1.339 1.339 0 0 1-.8 1.4c-.2 0-.4.1-.6.1zm-5.1-11.2a2.708 2.708 0 0 0 0 1.3c.3 1 2 3.1 3.8 5.1a8.3 8.3 0 0 1 .6-2.1 19.385 19.385 0 0 1-4.4-4.3z" class="VR-2" data-name="Path 1511"/>
        </g>
        <g id="prefix__Group_869" data-name="Group 869">
            <path id="prefix__Path_1512" d="M240.5 429.4a64.955 64.955 0 0 1-11.2 1.7c-4.1.2-4.6 5.4-3.4 8.3s3.9 4.1 6.4 5.6c2.6 1.6 3.8 1.6 3.8 1.6-2.4-.1-3.8-3.5-4.1-5.4a7.7 7.7 0 0 1 2.2-6.6c1.9-1.7 4.3-2.1 6.8-2.4a39.115 39.115 0 0 0 8.4-1.7c2-.7 3.9-1.8 5.9-2.5 2.2-.8 3.2-.2 3.2-.2s-1.2-1.1-9-2.2c0 .1-1.2 2.3-9 3.8z" class="VR-1" data-name="Path 1512"/>
            <path id="prefix__Path_1513" d="M236 448.1a2.41 2.41 0 0 1-1.5-.4 20.393 20.393 0 0 1-3-1.5c-.4-.2-.8-.5-1.2-.7-2.3-1.3-4.7-2.7-5.8-5.6a9.187 9.187 0 0 1 .5-7.9 5 5 0 0 1 4.2-2.4 67.029 67.029 0 0 0 11-1.7h.1c6.7-1.2 8.1-3 8.1-3.1l.5-.9.9.2c7.4 1.1 9.2 2.2 9.7 2.6l-1.7 2.3.1.1a3.8 3.8 0 0 0-2.1.3 15.949 15.949 0 0 0-2.7 1.2 30.9 30.9 0 0 1-3.2 1.4 40.918 40.918 0 0 1-8.7 1.8c-2.4.3-4.4.6-6.1 2a5.887 5.887 0 0 0-1.7 5.3c.2 1.4 1.2 3.5 2.2 4.1a2.142 2.142 0 0 0 .6.1zm4.8-17.3a83.2 83.2 0 0 1-11.5 1.8 2.036 2.036 0 0 0-1.9 1.1c-.9 1.4-.8 3.8-.3 5.3a7.811 7.811 0 0 0 3.7 3.7 5.159 5.159 0 0 1-.2-1.1 8.754 8.754 0 0 1 2.7-7.8c2.2-2 5-2.4 7.6-2.7a39.188 39.188 0 0 0 8.1-1.7c1-.3 1.9-.8 2.9-1.2a5.938 5.938 0 0 0 .8-.4c-.8-.1-1.6-.3-2.6-.5-1.1.9-3.6 2.4-9.3 3.5z" class="VR-1" data-name="Path 1513"/>
        </g>
        <g id="prefix__Group_870" data-name="Group 870">
            <path id="prefix__Path_1514" d="M228 431.3c-3.3.6-2.9 7.1-1.4 9.7a12.7 12.7 0 0 0-1.2-1 3.805 3.805 0 0 1-.9-1.3c-1.2-2.2-.7-4.9.5-7.1 1.1-2.2 2.3-2.5 4.2-2.7 1.2-.1 4.6-.2 4.7-.2 5.9-.5 7.6-.6 9.9-2.3 2.4-1.7 1.9-2.5 2.5-2.2a31.2 31.2 0 0 0 3.3 1.5c-2.2 2.5-6.4 3.1-13.6 4.6-3 .6-5.2.5-8 1z" class="VR-2" data-name="Path 1514"/>
            <path id="prefix__Path_1515" d="M226.6 442.4a1.426 1.426 0 0 1-1.2-.6c-.1-.1-.2-.1-.3-.2a4.349 4.349 0 0 1-.7-.6 9.549 9.549 0 0 1-1.2-1.6c-1.2-2.4-1.1-5.3.5-8.4 1.4-2.9 3.3-3.3 5.3-3.5.9-.1 3.2-.2 4.3-.2h1c5.3-.4 6.7-.5 8.7-2a5.45 5.45 0 0 0 1.6-1.6 1.853 1.853 0 0 1 2.4-.7c.8.4 2.5 1.2 3.1 1.4a1.375 1.375 0 0 1 .8 1 1.592 1.592 0 0 1-.3 1.3c-2.3 2.6-6 3.4-12.1 4.6l-2.2.5a43.229 43.229 0 0 1-4.5.6c-1.2.1-2.3.2-3.5.4-.1 0-.5.1-.9.8-.8 1.7-.4 5.2.4 6.8a1.429 1.429 0 0 1-.5 1.9c-.3 0-.5.1-.7.1zm-1.3-.7zm21.1-15.9l-.7.7c.4-.2.7-.3 1.1-.5-.1-.1-.3-.1-.4-.2z" class="VR-2" data-name="Path 1515"/>
        </g>
        <g id="prefix__Group_871" data-name="Group 871">
            <path id="prefix__Path_1516" d="M236.1 446.7s-.2.7 8.1-2a75.732 75.732 0 0 0 12.5-4.9s2.3-.5 2.6-7c0 0 .7-5.4-1.8-5.2-1.9.2-7.5 3.4-13.5 4.3-5.9.9-12 .6-12.1 7.8-.1 6.3 4.2 7 4.2 7z" class="VR-3" data-name="Path 1516"/>
            <path id="prefix__Path_1517" d="M236.3 448.2a1.292 1.292 0 0 1-.8-.2c-2-.5-5-2.8-4.9-8.3.1-7.5 6-8.3 11.1-8.9.7-.1 1.5-.2 2.2-.3a44.393 44.393 0 0 0 9.5-2.9 21.9 21.9 0 0 1 4.1-1.4 2.545 2.545 0 0 1 2.2.8c1.5 1.6 1.2 4.8 1.1 5.9-.2 6.4-2.5 7.8-3.4 8.2a80.132 80.132 0 0 1-12.6 5c-5.3 1.6-7.5 2.1-8.5 2.1zm.9-2.4zm20.4-16.8a16.97 16.97 0 0 0-3.2 1.2 41.518 41.518 0 0 1-10.1 3.1c-.8.1-1.5.2-2.3.3-5.6.7-8.5 1.3-8.6 6.1s2.7 5.5 3 5.6h.2c.5 0 2.1-.3 7.3-2a73.515 73.515 0 0 0 12.2-4.8c.1 0 .2-.1.3-.1.4-.2 1.4-1.6 1.6-5.7v-.1a10.731 10.731 0 0 0-.4-3.6zm-1.3 9.5zm.1-.1zm0 0zm0 0z" class="VR-1" data-name="Path 1517"/>
        </g>
    </g>
</svg>
