<svg xmlns="http://www.w3.org/2000/svg" width="42.6" height="42.4" viewBox="0 0 42.6 42.4">
    <defs>
        <style>
            .Xbox-3{fill:#88cc40}
        </style>
    </defs>
    <g id="prefix__Group_970" data-name="Group 970" transform="translate(-2178.7 -1578.2)">
        <g id="prefix__Group_943" data-name="Group 943" transform="translate(1972.9 1497)">
            <ellipse id="prefix__Ellipse_726" cx="19.9" cy="19.8" data-name="Ellipse 726" rx="19.9" ry="19.8" transform="translate(207.2 82.6)" style="fill:#e6e7e8"/>
            <path id="prefix__Path_1655" d="M227.1 123.6a21.2 21.2 0 1 1 21.3-21.2 21.232 21.232 0 0 1-21.3 21.2zm0-39.6a18.3 18.3 0 1 0 18.5 18.3A18.416 18.416 0 0 0 227.1 84z" data-name="Path 1655" style="fill:#bbbdbf"/>
        </g>
        <path id="prefix__Path_1656" d="M214.8 86.9s23.1 1 29.9 24.8c0 0-1.4-29.1-29.9-24.8z" class="Xbox-3" data-name="Path 1656" transform="translate(1972.9 1497)"/>
        <path id="prefix__Path_1657" d="M240.1 86.9s-23.1 1-29.9 24.8c0 0 1.3-29.1 29.9-24.8z" class="Xbox-3" data-name="Path 1657" transform="translate(1972.9 1497)"/>
    </g>
</svg>
