<svg xmlns="http://www.w3.org/2000/svg" width="20" height="14.67" viewBox="0 0 20 14.67">
    <path id="prefix__game-controller" d="M35.5 86.89c-.884-4-2.214-6.128-4.187-6.711A4.464 4.464 0 0030.034 80a5.745 5.745 0 00-1.6.287 7.81 7.81 0 01-4.812 0A5.732 5.732 0 0022.033 80a4.823 4.823 0 00-1.322.18c-1.963.58-3.292 2.712-4.189 6.709-.964 4.3-.49 7.017 1.331 7.647a2.359 2.359 0 00.777.134c1.247 0 2.247-1.039 2.931-1.889.772-.963 1.676-1.451 4.473-1.451 2.5 0 3.532.339 4.425 1.451a6.1 6.1 0 001.621 1.5 2.443 2.443 0 002.09.265c1.076-.367 1.693-1.338 1.833-2.885a16.3 16.3 0 00-.503-4.771zm-11.464-.224H22.7V88a.667.667 0 11-1.333 0v-1.334h-1.334a.667.667 0 110-1.333h1.333V84a.667.667 0 011.334 0v1.333h1.333a.667.667 0 110 1.333zm3.5.167a.833.833 0 11.831-.833.833.833 0 01-.833.833zm1.833 1.833a.833.833 0 11.833-.831.833.833 0 01-.835.831zm0-3.667a.833.833 0 11.833-.833.833.833 0 01-.833.833zm1.831 1.834a.833.833 0 11.834-.833.833.833 0 01-.834.833z" transform="translate(-16.034 -79.999)" style="fill:#666"/>
</svg>
