<svg xmlns="http://www.w3.org/2000/svg" id="prefix__Logo_superplayer" width="121.917" height="25" data-name="Logo superplayer" viewBox="0 0 121.917 25">
    <defs>
        <style>
            .prefix__cls-1{fill:#fff}
        </style>
    </defs>
    <path id="prefix__Path_100" d="M3792.325 1333.391h-3.752v-3.7a5.1 5.1 0 00-5.447-5.444 5.186 5.186 0 00-5.561 5.444v3.7h-3.64v-3.7a9.2 9.2 0 1118.4 0z" class="prefix__cls-1" data-name="Path 100" transform="translate(-3773.925 -1320.436)"/>
    <path id="prefix__Rectangle_177" d="M0 0H18.404V2.68H0z" class="prefix__cls-1" data-name="Rectangle 177" transform="translate(39.39 .003)"/>
    <path id="prefix__Rectangle_178" d="M0 0H18.404V3.216H0z" class="prefix__cls-1" data-name="Rectangle 178" transform="translate(0 16.156)"/>
    <path id="prefix__Rectangle_179" d="M0 0H18.404V2.68H0z" class="prefix__cls-1" data-name="Rectangle 179" transform="translate(39.39 4.936)"/>
    <path id="prefix__Rectangle_180" d="M0 0H18.404V2.175H0z" class="prefix__cls-1" data-name="Rectangle 180" transform="translate(39.39 8.681)"/>
    <path id="prefix__Rectangle_181" d="M0 0H3.216V6.092H0z" class="prefix__cls-1" data-name="Rectangle 181" transform="translate(3.399 18.076)"/>
    <path id="prefix__Rectangle_182" d="M0 0H3.216V6.092H0z" class="prefix__cls-1" data-name="Rectangle 182" transform="translate(11.921 18.044)"/>
    <path id="prefix__Rectangle_183" d="M0 0H3.216V12.423H0z" class="prefix__cls-1" data-name="Rectangle 183" transform="translate(21.4 2.766)"/>
    <path id="prefix__Rectangle_184" d="M0 0H3.216V12.423H0z" class="prefix__cls-1" data-name="Rectangle 184" transform="translate(27.489 2.766)"/>
    <path id="prefix__Path_101" d="M3983.533 1418.681h9.2v2.344h-6.39c0 .457-.093.84.457 1.163.781.458 2.859.349 3.88.349h11.27v2.679h-11.27c-3.185 0-7.147 0-7.147-3.755z" class="prefix__cls-1" data-name="Path 101" transform="translate(-3944.144 -1400.216)"/>
    <path id="prefix__Path_102" d="M4001.951 1390.4h-9.2v-2.344h6.389c0-.457.093-.84-.458-1.163-.78-.458-2.859-.349-3.879-.349h-11.27v-2.68h11.27c3.184 0 7.147 0 7.147 3.755z" class="prefix__cls-1" data-name="Path 102" transform="translate(-3944.144 -1371.939)"/>
    <path id="prefix__Path_103" d="M4102.475 1371.531h-6.041c-2.138 0-7.147 0-7.147-4.973v-3.13h6.607v2.68h-3.927v.45c0 1.3.329 2.294 4.467 2.294h6.041z" class="prefix__cls-1" data-name="Path 103" transform="translate(-4030.024 -1355.346)"/>
    <path id="prefix__Path_104" d="M4102.475 1328.541h-6.581v-2.68h3.9v-.45c0-1.3-.328-2.294-4.467-2.294h-6.04v-2.68h6.04c2.139 0 7.147 0 7.147 4.973z" class="prefix__cls-1" data-name="Path 104" transform="translate(-4030.024 -1320.436)"/>
    <path id="prefix__Rectangle_185" d="M0 0H3.216V3.669H0z" class="prefix__cls-1" data-name="Rectangle 185" transform="translate(42.968 1.508)"/>
    <path id="prefix__Rectangle_186" d="M0 0H3.216V3.669H0z" class="prefix__cls-1" data-name="Rectangle 186" transform="translate(51.014 1.508)"/>
    <path id="prefix__Rectangle_187" d="M0 0H13.161V3.2H0z" class="prefix__cls-1" data-name="Rectangle 187" transform="translate(19.874)"/>
    <path id="prefix__Rectangle_188" d="M0 0H13.161V3.2H0z" class="prefix__cls-1" data-name="Rectangle 188" transform="translate(19.874 12.956)"/>
    <path id="prefix__Rectangle_189" d="M0 0H3.2V24.144H0z" class="prefix__cls-1" data-name="Rectangle 189" transform="translate(34.72 .022)"/>
    <path id="prefix__Rectangle_190" d="M0 0H3.2V24.164H0z" class="prefix__cls-1" data-name="Rectangle 190" transform="translate(78.75 .003)"/>
    <path id="prefix__Rectangle_191" d="M0 0H3.2V24.164H0z" class="prefix__cls-1" data-name="Rectangle 191" transform="translate(74.485 .003)"/>
    <path id="prefix__Rectangle_192" d="M0 0H3.2V24.164H0z" class="prefix__cls-1" data-name="Rectangle 192" transform="translate(98.831 .003)"/>
    <path id="prefix__Rectangle_193" d="M0 0H3.2V24.207H0z" class="prefix__cls-1" data-name="Rectangle 193" transform="translate(118.717 .003)"/>
    <path id="prefix__Path_105" d="M4225.521 1323.723a3.37 3.37 0 013.366 3.365v3.018a3.365 3.365 0 11-6.73 0v-3.018a3.368 3.368 0 013.364-3.365m0-3.215a6.6 6.6 0 00-6.581 6.581v3.018a6.581 6.581 0 0013.161 0v-3.018a6.6 6.6 0 00-6.581-6.581z" class="prefix__cls-1" data-name="Path 105" transform="translate(-4135.312 -1320.492)"/>
    <path id="prefix__Path_106" d="M4331.33 1323.9a3.368 3.368 0 013.365 3.365v3.019a3.365 3.365 0 11-6.729 0v-3.019a3.368 3.368 0 013.364-3.365m0-3.215a6.6 6.6 0 00-6.581 6.58v3.019a6.581 6.581 0 0013.161 0v-3.019a6.6 6.6 0 00-6.581-6.58z" class="prefix__cls-1" data-name="Path 106" transform="translate(-4221.237 -1320.635)"/>
    <path id="prefix__Rectangle_194" d="M0 0H7.181V3.216H0z" class="prefix__cls-1" data-name="Rectangle 194" transform="translate(114.735 6.531)"/>
    <path id="prefix__Rectangle_195" d="M0 0H4.887V3.216H0z" class="prefix__cls-1" data-name="Rectangle 195" transform="translate(33.036 6.498)"/>
    <path id="prefix__Rectangle_196" d="M0 0H5.243V3.216H0z" class="prefix__cls-1" data-name="Rectangle 196" transform="translate(72.451 8.106)"/>
</svg>
