<svg xmlns="http://www.w3.org/2000/svg" id="prefix__Logo_S" width="24.999" height="25" data-name="Logo S" viewBox="0 0 24.999 25">
    <defs>
        <style>
            .prefix__cls-1{fill:#ffb361}
        </style>
    </defs>
    <path id="prefix__Path_107" d="M1719.312 2216.334h-12.5v-1.949c0-4.162.532-7.269 2.655-9.169a8.716 8.716 0 015.827-1.86h16.518v3.9h-16.8a3.847 3.847 0 00-2.656.9c-.926.857-1.306 2.348-1.535 4.285h8.494z" class="prefix__cls-1" data-name="Path 107" transform="translate(-1706.812 -2203.355)"/>
    <path id="prefix__Path_108" d="M1723.591 2299.289h-16.779v-3.9h16.74a4.236 4.236 0 003.065-.981 3.664 3.664 0 001.151-3.261h-8.457v-3.9h12.5v1.948c0 3.509-.4 6.193-2.308 7.977a9.182 9.182 0 01-5.912 2.117z" class="prefix__cls-1" data-name="Path 108" transform="translate(-1706.812 -2274.289)"/>
</svg>
