<svg xmlns="http://www.w3.org/2000/svg" id="Logo_S" width="39.579" height="39.58" data-name="Logo S" viewBox="0 0 39.579 39.58">
    <defs>
        <style>
            .LOGOS-1{fill:#ffb361}
        </style>
    </defs>
    <path id="Path_107" d="M1726.6 2223.9h-19.789v-3.085c0-6.59.843-11.508 4.2-14.517 3.439-3.079 8.21-2.945 9.225-2.945h26.15v6.175h-26.6a6.09 6.09 0 0 0-4.205 1.418c-1.465 1.357-2.068 3.718-2.431 6.784h13.45z" class="LOGOS-1" data-name="Path 107" transform="translate(-1706.812 -2203.355)"/>
    <path id="Path_108" d="M1733.376 2306.309h-26.564v-6.177l26.5.005c.276 0 3.085.215 4.853-1.554s1.823-2.888 1.823-5.163H1726.6v-6.17h19.79v3.085c0 5.554-.637 9.8-3.654 12.629-3.259 3.053-8.006 3.345-9.36 3.345z" class="LOGOS-1" data-name="Path 108" transform="translate(-1706.812 -2266.73)"/>
</svg>
