<svg xmlns="http://www.w3.org/2000/svg" id="Logo_superplayer" width="199.944" height="41" data-name="Logo superplayer" viewBox="0 0 199.944 41">
    <defs>
        <style>
            .Superplayer_L-1{fill:#1e59ea}
        </style>
    </defs>
    <path id="Path_100" d="M3804.1 1341.682h-6.154v-6.06c0-5.463-3.528-8.928-8.934-8.928s-9.119 3.465-9.119 8.928v6.06h-5.969v-6.06a15.088 15.088 0 1 1 30.176 0z" class="Superplayer_L-1" data-name="Path 100" transform="translate(-3773.925 -1320.434)"/>
    <path id="Rectangle_177" d="M0 0h30.182v4.395H0z" class="Superplayer_L-1" data-name="Rectangle 177" transform="translate(64.6 .004)"/>
    <path id="Rectangle_178" d="M0 0h30.183v5.273H0z" class="Superplayer_L-1" data-name="Rectangle 178" transform="translate(0 26.496)"/>
    <path id="Rectangle_179" d="M0 0h30.182v4.395H0z" class="Superplayer_L-1" data-name="Rectangle 179" transform="translate(64.6 8.095)"/>
    <path id="Rectangle_180" d="M0 0h30.182v3.566H0z" class="Superplayer_L-1" data-name="Rectangle 180" transform="translate(64.6 14.237)"/>
    <path id="Rectangle_181" d="M0 0h5.273v9.99H0z" class="Superplayer_L-1" data-name="Rectangle 181" transform="translate(5.574 29.645)"/>
    <path id="Rectangle_182" d="M0 0h5.273v9.99H0z" class="Superplayer_L-1" data-name="Rectangle 182" transform="translate(19.55 29.592)"/>
    <path id="Rectangle_183" d="M0 0h5.273v20.374H0z" class="Superplayer_L-1" data-name="Rectangle 183" transform="translate(35.097 4.536)"/>
    <path id="Rectangle_184" d="M0 0h5.273v20.374H0z" class="Superplayer_L-1" data-name="Rectangle 184" transform="translate(45.083 4.536)"/>
    <path id="Path_101" d="M3983.533 1418.681h15.088v3.843h-10.479c0 .75-.153 1.377.75 1.907 1.279.751 4.688.573 6.361.573h18.484v4.395h-18.484c-5.222 0-11.721 0-11.721-6.159z" class="Superplayer_L-1" data-name="Path 101" transform="translate(-3918.933 -1388.399)"/>
    <path id="Path_102" d="M4013.738 1394.578h-15.088v-3.843h10.479c0-.75.153-1.378-.75-1.907-1.279-.75-4.688-.573-6.361-.573h-18.484v-4.394h18.484c5.222 0 11.721 0 11.721 6.159z" class="Superplayer_L-1" data-name="Path 102" transform="translate(-3918.933 -1364.309)"/>
    <path id="Path_103" d="M4110.915 1376.717h-9.905c-3.507 0-11.721 0-11.721-8.156v-5.133h10.835v4.395h-6.441v.738c0 2.132.539 3.762 7.327 3.762h9.905z" class="Superplayer_L-1" data-name="Path 103" transform="translate(-3992.095 -1350.174)"/>
    <path id="Path_104" d="M4110.915 1333.727h-10.792v-4.395h6.4v-.739c0-2.131-.539-3.762-7.327-3.762h-9.905v-4.395h9.905c3.508 0 11.721 0 11.721 8.156z" class="Superplayer_L-1" data-name="Path 104" transform="translate(-3992.095 -1320.434)"/>
    <path id="Rectangle_185" d="M0 0h5.273v6.017H0z" class="Superplayer_L-1" data-name="Rectangle 185" transform="translate(70.468 2.474)"/>
    <path id="Rectangle_186" d="M0 0h5.273v6.017H0z" class="Superplayer_L-1" data-name="Rectangle 186" transform="translate(83.664 2.474)"/>
    <path id="Rectangle_187" d="M0 0h21.584v5.248H0z" class="Superplayer_L-1" data-name="Rectangle 187" transform="translate(32.594)"/>
    <path id="Rectangle_188" d="M0 0h21.584v5.248H0z" class="Superplayer_L-1" data-name="Rectangle 188" transform="translate(32.594 21.248)"/>
    <path id="Rectangle_189" d="M0 0h5.248v39.596H0z" class="Superplayer_L-1" data-name="Rectangle 189" transform="translate(56.942 .037)"/>
    <path id="Rectangle_190" d="M0 0h5.248v39.628H0z" class="Superplayer_L-1" data-name="Rectangle 190" transform="translate(129.151 .004)"/>
    <path id="Rectangle_191" d="M0 0h5.248v39.628H0z" class="Superplayer_L-1" data-name="Rectangle 191" transform="translate(122.156 .004)"/>
    <path id="Rectangle_192" d="M0 0h5.248v39.628H0z" class="Superplayer_L-1" data-name="Rectangle 192" transform="translate(162.084 .004)"/>
    <path id="Rectangle_193" d="M0 0h5.248v39.699H0z" class="Superplayer_L-1" data-name="Rectangle 193" transform="translate(194.697 .004)"/>
    <path id="Path_105" d="M4229.732 1325.781a5.525 5.525 0 0 1 5.519 5.519v4.95a5.519 5.519 0 1 1-11.037 0v-4.95a5.525 5.525 0 0 1 5.519-5.519m0-5.273a10.824 10.824 0 0 0-10.792 10.792v4.95a10.792 10.792 0 1 0 21.584 0v-4.95a10.825 10.825 0 0 0-10.792-10.792z" class="Superplayer_L-1" data-name="Path 105" transform="translate(-4081.789 -1320.482)"/>
    <path id="Path_106" d="M4335.542 1325.958a5.524 5.524 0 0 1 5.518 5.519v4.95a5.519 5.519 0 1 1-11.037 0v-4.95a5.525 5.525 0 0 1 5.519-5.519m0-5.273a10.824 10.824 0 0 0-10.792 10.792v4.95a10.792 10.792 0 0 0 21.584 0v-4.95a10.824 10.824 0 0 0-10.792-10.792z" class="Superplayer_L-1" data-name="Path 106" transform="translate(-4154.988 -1320.604)"/>
    <path id="Rectangle_194" d="M0 0h11.777v5.273H0z" class="Superplayer_L-1" data-name="Rectangle 194" transform="translate(188.167 10.711)"/>
    <path id="Rectangle_195" d="M0 0h8.014v5.273H0z" class="Superplayer_L-1" data-name="Rectangle 195" transform="translate(54.179 10.657)"/>
    <path id="Rectangle_196" d="M0 0h8.598v5.273H0z" class="Superplayer_L-1" data-name="Rectangle 196" transform="translate(118.82 13.293)"/>
</svg>
