<svg xmlns="http://www.w3.org/2000/svg" id="Group_361" width="30" height="29.149" data-name="Group 361" viewBox="0 0 30 29.149">
    <defs>
        <style>
            .Inquirey-1{fill:#1e59ea}.Inquirey-2{fill:#322e3d}
        </style>
    </defs>
    <path id="Path_763" d="M18.8 32.011a2.419 2.419 0 0 1 0-4.838h3.253a2.42 2.42 0 0 1 1.561.576 3.436 3.436 0 0 0 1.419-.67 2.889 2.889 0 0 0 .39-.39 4.67 4.67 0 0 1-1.893-3.746v-3.424a4.7 4.7 0 0 1 2.253-3.987 6.728 6.728 0 0 0-1.372-3.439c-1.017-1.2-2.662-1.8-4.89-1.8a6.509 6.509 0 0 0-5.084 1.871 7.209 7.209 0 0 0-1.562 3.436 4.648 4.648 0 0 1 2.144 3.925v3.421a4.669 4.669 0 1 1-9.338 0v-3.427a4.669 4.669 0 0 1 2.543-4.151 12.132 12.132 0 0 1 2.761-6.277c2.024-2.27 4.895-3.421 8.535-3.421S26 6.829 27.937 9.114a11.581 11.581 0 0 1 2.486 6.307 4.693 4.693 0 0 1 2.444 4.1v3.419a4.678 4.678 0 0 1-3.833 4.595 6.742 6.742 0 0 1-1.772 2.265 7.1 7.1 0 0 1-3.488 1.5 2.41 2.41 0 0 1-1.717.715H18.8z" class="Inquirey-1" data-name="Path 763" transform="translate(-4.271 -4.263)"/>
    <path id="Path_764" d="M15.246 2.813c3.218 0 5.689.992 7.344 2.945a10.6 10.6 0 0 1 2.22 6.361 3.272 3.272 0 0 1 2.374 3.136v3.421a3.273 3.273 0 0 1-3.262 3.262c-.042 0-.084 0-.127-.007a5.582 5.582 0 0 1-1.7 2.513 5.873 5.873 0 0 1-3.376 1.256 1.013 1.013 0 0 1-.94.64h-3.25a1.013 1.013 0 0 1 0-2.027h3.253a1.012 1.012 0 0 1 .95.677 5.179 5.179 0 0 0 2.922-1.09 4.87 4.87 0 0 0 1.429-2.074 3.272 3.272 0 0 1-2.419-3.148v-3.422A3.273 3.273 0 0 1 23 12.13a8.807 8.807 0 0 0-1.791-5.213c-1.3-1.526-3.3-2.3-5.962-2.3a7.827 7.827 0 0 0-6.13 2.34 9.286 9.286 0 0 0-2.057 5.19 3.275 3.275 0 0 1 2.28 3.109v3.421a3.262 3.262 0 1 1-6.525 0v-3.421A3.276 3.276 0 0 1 5.247 12.1a11.121 11.121 0 0 1 2.518-6.337 9.524 9.524 0 0 1 7.48-2.95m0-2.813a12.4 12.4 0 0 0-9.586 3.893 13.219 13.219 0 0 0-2.987 6.336A6.077 6.077 0 0 0 0 15.256v3.421a6.076 6.076 0 1 0 12.152 0v-3.421a6.054 6.054 0 0 0-1.967-4.478 5.161 5.161 0 0 1 1.027-1.945 5.122 5.122 0 0 1 4.034-1.4 4.8 4.8 0 0 1 3.816 1.307 4.667 4.667 0 0 1 .9 1.92 6.106 6.106 0 0 0-2.116 4.595v3.421a6.021 6.021 0 0 0 .749 2.913 3.723 3.723 0 0 0-.816-.089h-3.25a3.826 3.826 0 0 0 0 7.651h3.253a3.818 3.818 0 0 0 2.347-.8 8.359 8.359 0 0 0 3.751-1.732 8.054 8.054 0 0 0 1.82-2.134 6.088 6.088 0 0 0 4.3-5.81v-3.419a6.1 6.1 0 0 0-2.536-4.93 12.57 12.57 0 0 0-2.726-6.386C23.215 2.144 20.332 0 15.246 0z" class="Inquirey-2" data-name="Path 764"/>
</svg>
