<svg xmlns="http://www.w3.org/2000/svg" width="25" height="26.646" viewBox="0 0 25 26.646">
    <defs>
        <style>
            .Person-1{fill:#d2dfff}.Person-2{fill:#322e3d}
        </style>
    </defs>
    <g id="Group_362" data-name="Group 362" transform="translate(-.006)">
        <g id="Group_353" data-name="Group 353" transform="translate(.006 8.555)">
            <path id="Path_772" d="M4.643 44.254l-.227-1.188C3.8 39.842 4.206 33 10.184 30.182a11.2 11.2 0 0 1 4.7-1.092c.158 0 .286 0 .372.01s.214-.01.372-.01a11.2 11.2 0 0 1 4.7 1.092c5.981 2.818 6.391 9.66 5.772 12.884l-.227 1.188z" class="Person-1" data-name="Path 772" transform="translate(-2.758 -27.626)"/>
            <g id="Group_352" data-name="Group 352">
                <path id="Path_773" d="M12.878 27.767a9.787 9.787 0 0 1 4.078.951C23.485 31.8 21.911 40 21.911 40H3.1s-1.574-8.2 4.956-11.282a9.777 9.777 0 0 1 4.078-.951c.238 0 .372.014.372.014s.134-.014.372-.014m0-2.927c-.145 0-.272 0-.372.007s-.227-.007-.372-.007a12.7 12.7 0 0 0-5.324 1.23 11.6 11.6 0 0 0-6.565 8.944 16.775 16.775 0 0 0-.021 5.541l.455 2.376h23.653l.455-2.376a16.664 16.664 0 0 0-.021-5.541 11.609 11.609 0 0 0-6.566-8.948 12.725 12.725 0 0 0-5.324-1.226z" class="Person-2" data-name="Path 773" transform="translate(-.006 -24.84)"/>
            </g>
        </g>
        <g id="Group_355" data-name="Group 355" transform="translate(5.642)">
            <path id="Path_774" d="M26.02 15.05a5.4 5.4 0 1 1 5.4-5.4 5.407 5.407 0 0 1-5.4 5.4z" class="Person-1" data-name="Path 774" transform="translate(-19.156 -2.786)"/>
            <g id="Group_354" data-name="Group 354">
                <path id="Path_775" d="M23.234 2.927A3.936 3.936 0 1 1 19.3 6.864a3.938 3.938 0 0 1 3.936-3.936m0-2.927A6.864 6.864 0 1 0 30.1 6.864 6.871 6.871 0 0 0 23.234 0z" class="Person-2" data-name="Path 775" transform="translate(-16.37)"/>
            </g>
        </g>
    </g>
</svg>
