<svg xmlns="http://www.w3.org/2000/svg" width="42.372" height="41.277" viewBox="0 0 42.372 41.277">
    <defs>
        <style>
            .prefix__cls-1{fill:#ccc}.prefix__cls-2{fill:#d0d2d3;stroke:#231f20;stroke-width:5.669px;stroke-miterlimit:10}
        </style>
    </defs>
    <g id="prefix__Group_1470" data-name="Group 1470" transform="translate(-1949.616 -977.809)">
        <g id="prefix__Group_1469" data-name="Group 1469" transform="translate(1949.616 977.809)">
            <path id="prefix__Path_2081" d="M1969.616 977.809a20 20 0 0 0-13.159 35.061 1.577 1.577 0 1 0 2.076-2.375 16.846 16.846 0 1 1 22.165 0 1.577 1.577 0 1 0 2.076 2.375 20 20 0 0 0-13.159-35.061z" class="prefix__cls-1" data-name="Path 2081" transform="translate(-1949.616 -977.809)"/>
            <circle id="prefix__Ellipse_1239" cx="5.209" cy="5.209" r="5.209" class="prefix__cls-1" data-name="Ellipse 1239" transform="translate(14.791 14.791)"/>
            <path id="prefix__Path_2084" d="M1980.31 994.808a13.694 13.694 0 0 0-10.158 22.878 1.577 1.577 0 1 0 2.339-2.116 10.54 10.54 0 1 1 15.639 0 1.577 1.577 0 1 0 2.34 2.116 13.694 13.694 0 0 0-10.159-22.878z" class="prefix__cls-1" data-name="Path 2084" transform="translate(-1960.31 -988.503)"/>
        </g>
        <g id="prefix__Path_2085" fill="#1e59ea" stroke="none" stroke-miterlimit="10" data-name="Path 2085">
            <path d="M2024.233 1060.76l-1.002-1.002-2.23-2.23-1.002-1.003 1.002-1.002 2.523-2.523-2.523-2.523-1.002-1.002 1.002-1.002 2.23-2.231 1.002-1.002 1.003 1.002 2.523 2.523 2.522-2.523 1.003-1.002 1.002 1.002 2.231 2.23 1.002 1.003-1.002 1.002-2.523 2.523 2.523 2.523 1.002 1.003-1.002 1.002-2.231 2.23-1.002 1.002-1.003-1.002-2.522-2.523-2.523 2.523-1.003 1.002z" transform="translate(-45.536 -43.679)"/>
            <path fill="#fff" d="M2024.233 1047.244l-2.23 2.23 3.525 3.526-3.525 3.525 2.23 2.231 3.526-3.525 3.525 3.525 2.23-2.23-3.524-3.526 3.525-3.525-2.231-2.231-3.525 3.525-3.526-3.525m0-4.009l2.005 2.005 1.52 1.52 1.521-1.52 2.004-2.005 2.005 2.004 2.231 2.231 2.005 2.004-2.005 2.005L2034 1053l1.52 1.521 2.005 2.005-2.005 2.004-2.231 2.23-2.005 2.005-2.004-2.005-1.52-1.52-1.521 1.52-2.005 2.005-2.004-2.005-2.23-2.23-2.005-2.005 2.005-2.004 1.52-1.52-1.52-1.522-2.005-2.004 2.004-2.005 2.23-2.23 2.005-2.005z" transform="translate(-45.536 -43.679)"/>
        </g>
    </g>
</svg>
