<svg xmlns="http://www.w3.org/2000/svg" width="20" height="20" viewBox="0 0 20 20">
    <path id="prefix__chatbubble-ellipses-sharp" d="M51.786 39.791a9.792 9.792 0 00-3.447-5.566A10.152 10.152 0 0041.991 32a10.035 10.035 0 00-7.159 2.95 9.658 9.658 0 00-1.242 12.145l.194.27L32.713 52l5.125-1.275s.1.034.179.063.729.279 1.422.473a11.759 11.759 0 002.713.4A9.817 9.817 0 0052 41.8a9.536 9.536 0 00-.214-2.01zm-14.073 3.638A1.429 1.429 0 1139.142 42a1.429 1.429 0 01-1.429 1.429zm4.286 0A1.429 1.429 0 1143.428 42 1.429 1.429 0 0142 43.429zm4.286 0A1.429 1.429 0 1147.713 42a1.429 1.429 0 01-1.428 1.429z" transform="translate(-31.999 -32)" style="fill:#666"/>
</svg>
