<svg xmlns="http://www.w3.org/2000/svg" width="15" height="16.667" viewBox="0 0 15 16.667">
    <path id="prefix__calendar" fill="#322e3d" d="M1 3.333a1.672 1.672 0 0 1 1.667-1.666h11.666A1.667 1.667 0 0 1 16 3.333V15a1.667 1.667 0 0 1-1.667 1.667H2.667A1.667 1.667 0 0 1 1 15zM2.667 5v10h11.666V5zm1.666-5H6v1.667H4.333zM11 0h1.667v1.667H11zM4.333 7.5H6v1.667H4.333zm0 3.333H6V12.5H4.333zM7.667 7.5h1.666v1.667H7.667zm0 3.333h1.666V12.5H7.667zM11 7.5h1.667v1.667H11zm0 3.333h1.667V12.5H11z" transform="translate(-1)"/>
</svg>
