<svg xmlns="http://www.w3.org/2000/svg" width="16.173" height="15.497" viewBox="0 0 16.173 15.497">
    <g id="prefix__Component_33_663" data-name="Component 33 – 663" transform="translate(.51 .5)">
        <path id="prefix__Path_293" fill="#eee" stroke="#ccc" d="M622.557-321.965l1.776 3.6a.729.729 0 0 0 .549.4l3.972.577a.729.729 0 0 1 .4 1.243l-2.874 2.8a.728.728 0 0 0-.21.645l.678 3.956a.729.729 0 0 1-1.058.769l-3.552-1.868a.729.729 0 0 0-.679 0l-3.552 1.868a.729.729 0 0 1-1.058-.769l.679-3.956a.728.728 0 0 0-.21-.645l-2.874-2.8a.729.729 0 0 1 .4-1.243l3.972-.577a.73.73 0 0 0 .549-.4l1.776-3.6a.729.729 0 0 1 1.316 0z" data-name="Path 293" transform="translate(-614.327 322.371)"/>
    </g>
</svg>
