<svg xmlns="http://www.w3.org/2000/svg" width="20" height="23.333" viewBox="0 0 20 23.333">
    <path id="prefix__flag" fill="#333" d="M64.833 55.333A.833.833 0 0 1 64 54.5V33.882a1.25 1.25 0 0 1 .62-1.079A8.854 8.854 0 0 1 69 32a19.378 19.378 0 0 1 6.018 1.442A14.59 14.59 0 0 0 79 34.5a9.575 9.575 0 0 0 3.7-.755.937.937 0 0 1 1.3.864v11.424a1.042 1.042 0 0 1-.625.954 11.348 11.348 0 0 1-4.375.846 21.641 21.641 0 0 1-4.5-.766 25.489 25.489 0 0 0-5.5-.9 8.725 8.725 0 0 0-3.333.474V54.5a.833.833 0 0 1-.834.833z" transform="translate(-64 -32)"/>
</svg>
