<svg xmlns="http://www.w3.org/2000/svg" width="10.848" height="14" viewBox="0 0 10.848 14">
    <defs>
        <style>
            .prefix__cls-3{stroke:none}
        </style>
    </defs>
    <g id="prefix__Group_1385" fill="#fff" stroke-miterlimit="10" data-name="Group 1385" transform="translate(-109.2 -624.717)">
        <g id="prefix__Path_2021" data-name="Path 2021">
            <path d="M119.394 646.197h-9.541l-.07-.418c-.008-.047-.193-1.183.012-2.54.28-1.855 1.156-3.23 2.534-3.978.907-.492 1.72-.565 2.122-.565.075 0 .134.002.173.005.039-.003.097-.005.172-.005.403 0 1.215.073 2.122.565 1.378.747 2.254 2.123 2.534 3.977.205 1.358.02 2.494.012 2.541l-.07.418z" class="prefix__cls-3" transform="translate(0 -7.98)"/>
            <path fill="#888" d="M114.451 639.196c-.322 0-1.058.057-1.884.505-3.019 1.637-2.29 5.996-2.29 5.996h8.694s.728-4.359-2.291-5.996c-.826-.448-1.562-.505-1.884-.505-.11 0-.172.006-.172.006s-.062-.006-.173-.006m0-1c.07 0 .127.002.173.004.045-.002.103-.004.172-.004.45 0 1.356.081 2.36.625 1.521.825 2.486 2.327 2.79 4.343.217 1.435.02 2.647.011 2.698l-.14.835H109.43l-.14-.835c-.008-.051-.205-1.263.012-2.698.304-2.016 1.269-3.518 2.79-4.342 1.004-.545 1.91-.626 2.36-.626z" transform="translate(0 -7.98)"/>
        </g>
        <g id="prefix__Ellipse_1205" stroke="#888" data-name="Ellipse 1205" transform="translate(112.533 625.717)">
            <circle cx="2.091" cy="2.091" r="2.091" class="prefix__cls-3"/>
            <circle cx="2.091" cy="2.091" r="2.591" fill="none"/>
        </g>
    </g>
</svg>
