<svg xmlns="http://www.w3.org/2000/svg" width="25" height="23.087" viewBox="0 0 25 23.087">
    <defs>
        <style>
            .prefix__cls-2{fill:#ffdf00}
        </style>
    </defs>
    <g id="prefix__Group_1447" data-name="Group 1447" transform="translate(-59.723 -139.027)">
        <path id="prefix__Path_2065" fill="#fff" d="M72.222 139.027c-6.9 0-12.5 4.419-12.5 9.873 0 3.507 2.319 6.579 5.8 8.336l-1.179 4.4a.364.364 0 0 0 .089.375.356.356 0 0 0 .256.105.363.363 0 0 0 .217-.084l5.066-3.421a15.768 15.768 0 0 0 2.25.165c6.9 0 12.5-4.42 12.5-9.875s-5.6-9.873-12.5-9.873" data-name="Path 2065"/>
        <path id="prefix__Path_2066" d="M65.761 152.584h-1.327a.87.87 0 0 1-.471-.126.516.516 0 0 1-.243-.355c-.007-.041-.015-.087-.02-.137a.533.533 0 0 1 .208-.45.824.824 0 0 1 .522-.164h4.055a.864.864 0 0 1 .47.125.524.524 0 0 1 .246.356.686.686 0 0 1 .009.133.555.555 0 0 1-.2.458.816.816 0 0 1-.518.16h-1.329v4.569a.734.734 0 0 1-.192.528.671.671 0 0 1-.514.2.716.716 0 0 1-.449-.144.665.665 0 0 1-.236-.4.768.768 0 0 1-.012-.187z" class="prefix__cls-2" data-name="Path 2066" transform="translate(-1.761 -5.208)"/>
        <path id="prefix__Path_2067" d="M72.651 151.593a.625.625 0 0 1 .256-.343.808.808 0 0 1 .429-.1h.338a.882.882 0 0 1 .458.111.734.734 0 0 1 .29.424l1.694 4.91a2.823 2.823 0 0 1 .115.391 1.656 1.656 0 0 1 .025.168.619.619 0 0 1-.2.454.635.635 0 0 1-.466.186.6.6 0 0 1-.63-.4l-.363-1.069h-2.258l-.364 1.069a.586.586 0 0 1-.629.4.652.652 0 0 1-.414-.128.587.587 0 0 1-.215-.363.688.688 0 0 1-.013-.149.787.787 0 0 1 .038-.258c.026-.1.059-.2.095-.3zm.849 1.139h-.018l-.827 2.576H74.3z" class="prefix__cls-2" data-name="Path 2067" transform="translate(-4.657 -5.12)"/>
        <path id="prefix__Path_2068" d="M81.054 151.876a.736.736 0 0 1 .192-.529.676.676 0 0 1 .514-.2.692.692 0 0 1 .45.146.669.669 0 0 1 .234.4.663.663 0 0 1 .012.185v4.572H84.8a.843.843 0 0 1 .474.124.537.537 0 0 1 .239.357.939.939 0 0 1 .02.134.542.542 0 0 1-.207.454.833.833 0 0 1-.522.16h-2.928a.917.917 0 0 1-.528-.135.635.635 0 0 1-.266-.433 2.062 2.062 0 0 1-.031-.286z" class="prefix__cls-2" data-name="Path 2068" transform="translate(-9.068 -5.121)"/>
        <path id="prefix__Path_2069" d="M89.346 151.876a.744.744 0 0 1 .191-.529.678.678 0 0 1 .514-.2.689.689 0 0 1 .449.146.648.648 0 0 1 .236.4.663.663 0 0 1 .014.185v2.125l2.2-2.534a1.564 1.564 0 0 1 .267-.241.52.52 0 0 1 .292-.078.718.718 0 0 1 .42.13.522.522 0 0 1 .233.343s0 .026.011.054a.248.248 0 0 0 0 .059.549.549 0 0 1-.065.266 1.3 1.3 0 0 1-.167.235l-1.442 1.574 1.705 2.7.052.081a1.459 1.459 0 0 1 .2.407c0 .006 0 .023.011.044a.287.287 0 0 0 0 .046.64.64 0 0 1-.211.539.814.814 0 0 1-.51.164.711.711 0 0 1-.35-.076.927.927 0 0 1-.275-.306l-1.617-2.6-.771.8.008 1.453a.744.744 0 0 1-.193.528.675.675 0 0 1-.514.2.718.718 0 0 1-.45-.144.664.664 0 0 1-.236-.4.9.9 0 0 1-.012-.187z" class="prefix__cls-2" data-name="Path 2069" transform="translate(-12.488 -5.12)"/>
    </g>
</svg>
