<svg xmlns="http://www.w3.org/2000/svg" width="18.873" height="18.873" viewBox="0 0 18.873 18.873">
    <path id="prefix__iconmonstr-gear-1" fill="#bbb" d="M18.873 10.707V8.166c-1.3-.462-2.118-.591-2.531-1.588-.414-1 .079-1.678.666-2.915l-1.8-1.8c-1.228.583-1.913 1.081-2.915.666-1-.414-1.128-1.239-1.588-2.531H8.166c-.458 1.286-.589 2.117-1.588 2.531-1 .415-1.677-.077-2.915-.666l-1.8 1.8c.586 1.233 1.081 1.914.666 2.915S1.286 7.708 0 8.166v2.542c1.283.456 2.117.589 2.531 1.588s-.09 1.7-.666 2.915l1.8 1.8c1.228-.584 1.914-1.081 2.915-.666 1 .414 1.129 1.242 1.588 2.531h2.542c.458-1.287.59-2.115 1.594-2.534.992-.412 1.667.079 2.908.669l1.8-1.8c-.585-1.229-1.081-1.913-.667-2.914s1.249-1.132 2.533-1.589zm-9.436 1.875a3.146 3.146 0 1 1 3.146-3.146 3.146 3.146 0 0 1-3.146 3.146z"/>
</svg>
