<?xml version="1.0" encoding="utf-8"?>
<!-- Generator: Adobe Illustrator 24.0.0, SVG Export Plug-In . SVG Version: 6.00 Build 0)  -->
<svg version="1.1" id="레이어_1" xmlns="http://www.w3.org/2000/svg" xmlns:xlink="http://www.w3.org/1999/xlink" x="0px"
	 y="0px" viewBox="0 0 480 350" style="enable-background:new 0 0 480 350;" xml:space="preserve">
<style type="text/css">
	.st0{clip-path:url(#SVGID_2_);fill:#F2F6FF;}
	.st1{clip-path:url(#SVGID_2_);}
	.st2{fill:#A7C0FF;}
	.st3{fill:#D2DFFF;}
	.st4{clip-path:url(#SVGID_2_);fill:#E6E6E6;}
	.st5{clip-path:url(#SVGID_2_);fill:none;stroke:#749CFF;stroke-width:13.6063;stroke-miterlimit:10;}
	.st6{clip-path:url(#SVGID_2_);fill:#A7C0FF;}
	.st7{fill:#749CFF;}
</style>
<g>
	<defs>
		<rect id="SVGID_1_" y="-5" width="480" height="360"/>
	</defs>
	<clipPath id="SVGID_2_">
		<use xlink:href="#SVGID_1_"  style="overflow:visible;"/>
	</clipPath>
	<rect y="-5" class="st0" width="480" height="360"/>
	<g class="st1">
		<path class="st2" d="M362.4,38.4h-3v-3c0-2.7-1.7-4.4-4.4-4.4c-2.7,0-4.5,1.7-4.5,4.4v3h-3v-3c0-4.1,3.3-7.5,7.5-7.5
			c4.1,0,7.5,3.4,7.5,7.5V38.4z"/>
		<rect x="379.4" y="27.8" class="st2" width="14.9" height="2.2"/>
		<rect x="347.5" y="41" class="st2" width="14.9" height="2.6"/>
		<rect x="379.4" y="31.8" class="st2" width="14.9" height="2.2"/>
		<rect x="379.4" y="34.9" class="st2" width="14.9" height="1.8"/>
		<rect x="350.3" y="42.5" class="st2" width="2.6" height="4.9"/>
		<rect x="357.2" y="42.5" class="st2" width="2.6" height="4.9"/>
		<rect x="364.9" y="30.1" class="st2" width="2.6" height="10.1"/>
		<rect x="369.8" y="30.1" class="st2" width="2.6" height="10.1"/>
		<path class="st2" d="M379.4,42.8h7.5v1.9h-5.2c0,0.4-0.1,0.7,0.4,0.9c0.6,0.4,2.3,0.3,3.1,0.3h9.1v2.2h-9.1c-2.6,0-5.8,0-5.8-3
			V42.8z"/>
		<path class="st2" d="M394.4,42.8h-7.5v-1.9h5.2c0-0.4,0.1-0.7-0.4-0.9c-0.6-0.4-2.3-0.3-3.1-0.3h-9.1v-2.2h9.1c2.6,0,5.8,0,5.8,3
			V42.8z"/>
		<path class="st2" d="M406.3,41h-4.9c-1.7,0-5.8,0-5.8-4v-2.5h5.4v2.2h-3.2v0.4c0,1.1,0.3,1.9,3.6,1.9h4.9V41z"/>
		<path class="st2" d="M406.3,34.4h-5.3v-2.2h3.2v-0.4c0-1.1-0.3-1.9-3.6-1.9h-4.9v-2.2h4.9c1.7,0,5.8,0,5.8,4V34.4z"/>
		<rect x="382.4" y="29.1" class="st2" width="2.6" height="3"/>
		<rect x="388.9" y="29.1" class="st2" width="2.6" height="3"/>
		<rect x="363.6" y="27.8" class="st2" width="10.7" height="2.6"/>
		<rect x="363.6" y="38.4" class="st2" width="10.7" height="2.6"/>
		<rect x="375.7" y="27.9" class="st2" width="2.6" height="19.6"/>
		<rect x="411.4" y="27.8" class="st2" width="2.6" height="19.6"/>
		<rect x="407.9" y="27.8" class="st2" width="2.6" height="19.6"/>
		<rect x="427.7" y="27.8" class="st2" width="2.6" height="19.6"/>
		<rect x="443.8" y="27.8" class="st2" width="2.6" height="19.6"/>
		<path class="st2" d="M420.7,30.5c1.5,0,2.7,1.2,2.7,2.7v2.4c0,1.5-1.2,2.7-2.7,2.7s-2.7-1.2-2.7-2.7v-2.4
			C417.9,31.7,419.2,30.5,420.7,30.5 M420.7,27.9c-2.9,0-5.3,2.4-5.3,5.3v2.4c0,2.9,2.4,5.3,5.3,5.3c2.9,0,5.3-2.4,5.3-5.3v-2.4
			C426,30.3,423.6,27.9,420.7,27.9L420.7,27.9z"/>
		<path class="st2" d="M436.8,30.5c1.5,0,2.7,1.2,2.7,2.7v2.4c0,1.5-1.2,2.7-2.7,2.7s-2.7-1.2-2.7-2.7v-2.4
			C434.1,31.7,435.3,30.5,436.8,30.5 M436.8,27.9c-2.9,0-5.3,2.4-5.3,5.3v2.4c0,2.9,2.4,5.3,5.3,5.3c2.9,0,5.3-2.4,5.3-5.3v-2.4
			C442.1,30.3,439.7,27.9,436.8,27.9L436.8,27.9z"/>
		<rect x="440.6" y="33.1" class="st2" width="5.8" height="2.6"/>
		<rect x="374.3" y="33.1" class="st2" width="4" height="2.6"/>
		<rect x="406.3" y="34.4" class="st2" width="4.3" height="2.6"/>
		<path class="st2" d="M329.7,38.1h-9.8v-1.5c0-3.3,0.4-5.7,2.1-7.2c1.7-1.5,4.1-1.5,4.6-1.5h12.9V31l-13.1,0l-0.1,0
			c-0.1,0-1.3-0.1-2.1,0.7c-0.7,0.7-1,1.8-1.2,3.4h6.7V38.1z"/>
		<path class="st2" d="M333.1,47.5c-0.1,0-0.1,0-0.2,0h-13v-3.1l13.1,0c0.1,0,1.5,0.1,2.4-0.8c0.9-0.9,0.9-1.4,0.9-2.6h-6.6V38h9.8
			v1.5c0,2.7-0.3,4.8-1.8,6.2C336.1,47.3,333.7,47.5,333.1,47.5z"/>
	</g>
	<g class="st1">
		<g>
			<path class="st3" d="M255.7,224c-37.8-90.5-77.9-82-77.9-82s-15.6,1.1-34.7,14.6c-19.1,13.5-20.3,14.1-27.9,16.4
				c-7.6,2.2-8.9,2.4-32.3,1.4c-23.4-0.9-37.1,6.6-37.1,6.6S7.6,195.7,25,292.2c17.5,96.5,67.1,10,67.1,10s16.8-26.4,50.5-36.3
				c34-10.1,62.1,3,62.1,3S293.5,314.5,255.7,224z"/>
		</g>
		<circle class="st2" cx="175.1" cy="183.1" r="9.4"/>
		<circle class="st2" cx="185.8" cy="219.2" r="9.4"/>
		<circle class="st2" cx="198.6" cy="195.8" r="9.4"/>
		<circle class="st2" cx="162.4" cy="206.5" r="9.4"/>
		<path class="st2" d="M84.5,226l-9.2,2.7l-3-10c-1.1-3.8-5.1-6-8.9-4.9l-0.4,0.1c-3.8,1.1-6,5.1-4.9,8.9l3,10l-10.9,3.2
			c-3.8,1.1-6,5.1-4.9,8.9l0.1,0.4c1.1,3.8,5.1,6,8.9,4.9l10.9-3.2l3,10c1.1,3.8,5.1,6,8.9,4.9l0.4-0.1c3.8-1.1,6-5.1,4.9-8.9l-3-10
			l9.2-2.7c3.8-1.1,6-5.1,4.9-8.9l-0.1-0.4C92.3,227.1,88.3,224.9,84.5,226z"/>
	</g>
	
		<rect x="152" y="101.3" transform="matrix(-0.6611 0.7503 -0.7503 -0.6611 370.1101 69.9203)" class="st4" width="34.5" height="34.5"/>
	<line class="st5" x1="-19.1" y1="28.4" x2="201.4" y2="97.2"/>
	<circle class="st4" cx="275.2" cy="380.9" r="102.4"/>
	<circle class="st6" cx="93.8" cy="340.7" r="24.4"/>
	<g class="st1">
		<g>
			<rect x="416.3" y="91.2" class="st7" width="29.5" height="5.2"/>
			<path class="st7" d="M402.8,91.7h-9.7c-3.4,0-11.5,0-11.5-8v-5h10.6V83H386v0.7c0,2.1,0.5,3.7,7.2,3.7h9.7V91.7z"/>
			<path class="st7" d="M402.8,78.8h-10.5v-4.3h6.3v-0.7c0-2.1-0.5-3.7-7.2-3.7h-9.7v-4.3h9.7c3.4,0,11.5,0,11.5,8V78.8z"/>
			<rect x="407.8" y="65.8" class="st7" width="5.1" height="38.7"/>
			<path class="st7" d="M445.2,86.7h-5.1v-11c0-2.6-2.1-4.8-4.8-4.8h-19v-5.1h19c5.5,0,9.9,4.4,9.9,9.9V86.7z"/>
		</g>
	</g>
</g>
</svg>
