<svg xmlns="http://www.w3.org/2000/svg" width="17.311" height="12.913" viewBox="0 0 17.311 12.913">
    <defs>
        <style>
            .cls-1,.cls-2{fill:#fff;stroke-miterlimit:10}.cls-2{stroke:#1e59ea}.cls-3,.cls-4{stroke:none}.cls-4{fill:#1e59ea}.cls-5{fill:none}
        </style>
    </defs>
    <g id="Group_1532" data-name="Group 1532" transform="translate(-94.838 -549.157)">
        <g id="Path_2015" class="cls-1" data-name="Path 2015">
            <path d="M134.363 566.872H130.455l-.122-.322c-.346-.906-.905-1.578-1.662-1.998-.123-.068-.249-.128-.385-.184l-.446-.184.167-.452c.3-.813.804-1.421 1.499-1.806.628-.348 1.194-.4 1.475-.4.046 0 .084.001.112.003.029-.002.067-.003.113-.003.282 0 .847.052 1.475.4 2.258 1.251 1.773 4.394 1.751 4.527l-.069.42z" class="cls-3" transform="translate(-22.84 -8.306)"/>
            <path d="M130.98 562.026c-.21 0-.692.038-1.232.338-.665.368-1.051.942-1.272 1.541.141.058.288.127.437.21.976.54 1.552 1.378 1.887 2.257H133.939s.476-2.914-1.5-4.008c-.54-.3-1.022-.338-1.233-.338-.072 0-.113.005-.113.005s-.04-.005-.112-.005m0-1l.112.002.113-.002c.33 0 .991.06 1.718.463 2.562 1.42 2.026 4.897 2.001 5.045l-.137.838H130.11l-.245-.644c-.306-.804-.776-1.373-1.436-1.738-.106-.06-.215-.111-.334-.16l-.89-.367.333-.904c.342-.93.923-1.626 1.725-2.07.727-.403 1.388-.463 1.718-.463z" class="cls-4" transform="translate(-22.84 -8.306)"/>
        </g>
        <g id="Path_2016" class="cls-1" data-name="Path 2016">
            <path d="M99.365 566.872H95.463l-.069-.419c-.022-.133-.507-3.276 1.75-4.527.63-.348 1.195-.4 1.476-.4.046 0 .084.001.113.003.028-.002.066-.003.112-.003.281 0 .847.052 1.475.4.694.384 1.198.991 1.498 1.804l.168.452-.446.184c-.14.057-.268.118-.39.186-.758.42-1.317 1.092-1.663 1.998l-.122.322z" class="cls-3" transform="translate(0 -8.306)"/>
            <path d="M98.62 562.026c-.211 0-.693.038-1.233.338-1.976 1.094-1.5 4.008-1.5 4.008h3.133c.335-.88.91-1.716 1.887-2.257.151-.084.3-.153.442-.212-.22-.599-.607-1.172-1.27-1.54-.541-.299-1.023-.337-1.234-.337-.072 0-.112.005-.112.005s-.041-.005-.113-.005m0-1l.112.002.113-.002c.33 0 .99.06 1.718.463.801.444 1.381 1.14 1.724 2.067l.335.905-.892.367c-.122.05-.232.103-.339.162-.66.365-1.13.934-1.436 1.738l-.246.644h-4.672l-.136-.838c-.025-.148-.561-3.626 2.001-5.045.727-.403 1.388-.463 1.718-.463z" class="cls-4" transform="translate(0 -8.306)"/>
        </g>
        <g id="Path_2017" class="cls-1" data-name="Path 2017">
            <path d="M117.248 575.317H109.832l-.068-.42c-.025-.15-.577-3.726 1.981-5.143.71-.394 1.348-.452 1.665-.452.055 0 .099.001.13.003.032-.002.076-.003.13-.003.317 0 .955.058 1.666.452 2.558 1.417 2.005 4.992 1.98 5.144l-.068.419z" class="cls-3" transform="translate(-10.05 -13.747)"/>
            <path d="M113.41 569.802c-.243 0-.799.044-1.423.39-2.28 1.262-1.73 4.625-1.73 4.625h6.566s.55-3.363-1.73-4.626c-.623-.345-1.18-.39-1.423-.39-.083 0-.13.006-.13.006s-.046-.005-.13-.005m0-1c.05 0 .094.001.13.003.037-.002.08-.003.13-.003.366 0 1.1.067 1.908.514 2.863 1.587 2.26 5.497 2.232 5.662l-.137.839h-8.266l-.137-.839c-.027-.165-.63-4.075 2.233-5.661.809-.448 1.542-.515 1.907-.515z" class="cls-4" transform="translate(-10.05 -13.747)"/>
        </g>
        <g id="Ellipse_1202" class="cls-2" data-name="Ellipse 1202" transform="translate(97.41 550.157)">
            <circle cx="1.398" cy="1.398" r="1.398" class="cls-3"/>
            <circle cx="1.398" cy="1.398" r="1.898" class="cls-5"/>
        </g>
        <g id="Ellipse_1203" class="cls-2" data-name="Ellipse 1203" transform="translate(106.781 550.157)">
            <circle cx="1.398" cy="1.398" r="1.398" class="cls-3"/>
            <circle cx="1.398" cy="1.398" r="1.898" class="cls-5"/>
        </g>
        <g id="Ellipse_1204" class="cls-2" data-name="Ellipse 1204" transform="translate(101.877 552.008)">
            <circle cx="1.613" cy="1.613" r="1.613" class="cls-3"/>
            <circle cx="1.613" cy="1.613" r="2.113" class="cls-5"/>
        </g>
    </g>
</svg>
