<svg xmlns="http://www.w3.org/2000/svg" width="35.011" height="39.223" viewBox="0 0 35.011 39.223">
    <defs>
        <style>
            .prefix__cls-1{fill:#d0d2d3}
        </style>
    </defs>
    <g id="prefix__Group_1471" data-name="Group 1471" transform="translate(-2106.647 -978.07)">
        <rect id="prefix__Rectangle_5368" width="13.754" height="23.847" class="prefix__cls-1" data-name="Rectangle 5368" rx="6.877" transform="translate(2111.37 978.07)"/>
        <path id="prefix__Path_2086" d="M2118.548 1035.663c-9.374 0-11.883-7.78-11.9-11.894l2.5-.01-1.25.005 1.25-.008c0 .384.191 9.408 9.4 9.408z" class="prefix__cls-1" data-name="Path 2086" transform="translate(0 -28.719)"/>
        <path id="prefix__Path_2087" d="M2137.883 1035.663v-2.5c9.208 0 9.4-9.024 9.4-9.407l2.5.013c-.017 4.114-2.526 11.894-11.9 11.894z" class="prefix__cls-1" data-name="Path 2087" transform="translate(-19.636 -28.72)"/>
        <path id="prefix__Rectangle_5369" d="M0 0H2.106V3.964H0z" class="prefix__cls-1" data-name="Rectangle 5369" transform="translate(2117.226 1006.912)"/>
        <path id="prefix__Rectangle_5370" d="M0 0H9.781V2.499H0z" class="prefix__cls-1" data-name="Rectangle 5370" transform="translate(2113.356 1010.869)"/>
        <g id="prefix__Path_2088" fill="#1e59ea" stroke="none" stroke-miterlimit="10" data-name="Path 2088">
            <path d="M2158.633 1060.774l-1.002-1.002-2.233-2.233-1.002-1.003 1.002-1.002 2.527-2.527-2.527-2.528-1.002-1.002 1.002-1.002 2.233-2.233 1.002-1.002 1.002 1.002 2.527 2.528 2.528-2.528 1.002-1.002 1.002 1.002 2.233 2.233 1.003 1.002-1.002 1.002-2.528 2.528 2.528 2.527 1.002 1.002-1.003 1.003-2.233 2.233-1.002 1.002-1.002-1.002-2.528-2.528-2.527 2.528-1.002 1.002z" transform="translate(-30.276 -45.485)"/>
            <path fill="#fff" d="M2158.633 1047.244l-2.233 2.233 3.53 3.53-3.53 3.53 2.233 2.232 3.53-3.529 3.529 3.53 2.234-2.234-3.53-3.529 3.53-3.53-2.234-2.233-3.53 3.53-3.529-3.53m0-4.009l2.004 2.005 1.525 1.525 1.526-1.525 2.004-2.004 2.004 2.004 2.234 2.233 2.005 2.004-2.005 2.005-1.525 1.525 1.525 1.525 2.005 2.004-2.005 2.005-2.234 2.233-2.004 2.004-2.005-2.004-1.525-1.525-1.525 1.525-2.004 2.004-2.004-2.004-2.233-2.233-2.005-2.005 2.005-2.004 1.525-1.525-1.525-1.525-2.004-2.005 2.004-2.004 2.233-2.233 2.004-2.005z" transform="translate(-30.276 -45.485)"/>
        </g>
    </g>
</svg>
