<svg xmlns="http://www.w3.org/2000/svg" width="20" height="14.667" viewBox="0 0 20 14.667">
    <defs>
        <style>
            .People{fill:#666}
        </style>
    </defs>
    <g id="prefix__people-sharp" transform="translate(-16 -80)">
        <circle id="prefix__Ellipse_629" cx="3" cy="3" r="3" class="People" data-name="Ellipse 629" transform="translate(18.667 81.333)"/>
        <path id="prefix__Path_1275" d="M25.083 276.833a7.9 7.9 0 00-3.416-.833c-1.858 0-5.667 1.139-5.667 3.417v1.75h6.25v-.67a3.439 3.439 0 01.917-2.247 6.274 6.274 0 011.916-1.417z" class="People" data-name="Path 1275" transform="translate(0 -187.833)"/>
        <path id="prefix__Path_1276" d="M190.5 288c-2.17 0-6.5 1.34-6.5 4v2h13v-2c0-2.66-4.33-4-6.5-4z" class="People" data-name="Path 1276" transform="translate(-161 -199.333)"/>
        <circle id="prefix__Ellipse_630" cx="3.667" cy="3.667" r="3.667" class="People" data-name="Ellipse 630" transform="translate(25.833 80)"/>
    </g>
</svg>
