<svg xmlns="http://www.w3.org/2000/svg" id="prefix__Component_53_325" width="20" height="15.237" data-name="Component 53 – 325" viewBox="0 0 20 15.237">
    <defs>
        <style>
            .prefix__cls-1{fill:#d2dfff}.prefix__cls-2{fill:#322e3d}.prefix__cls-3{fill:#1e59ea}
        </style>
    </defs>
    <g id="prefix__Group_165" data-name="Group 165" transform="translate(10.117 3.847)">
        <path id="prefix__Path_440" d="M76.611 37.331l-.212-.556a3.675 3.675 0 0 0-1.647-1.989 3.544 3.544 0 0 0-.383-.183l-.77-.317.288-.782a3.862 3.862 0 0 1 1.765-2.121 3.658 3.658 0 0 1 1.75-.472h.244a3.658 3.658 0 0 1 1.75.472c2.635 1.46 2.077 5.07 2.053 5.223l-.119.724h-4.719z" class="prefix__cls-1" data-name="Path 440" transform="translate(-72.501 -30.046)"/>
        <path id="prefix__Path_441" d="M71.535 26.968a2.8 2.8 0 0 1 1.33.364c2.134 1.181 1.618 4.328 1.618 4.328H71.1a4.529 4.529 0 0 0-2.036-2.437 4.256 4.256 0 0 0-.476-.223 3.033 3.033 0 0 1 1.373-1.664 2.8 2.8 0 0 1 1.33-.364h.122a.96.96 0 0 1 .122-.006m0-1.728h-.244a4.557 4.557 0 0 0-2.169.581 4.759 4.759 0 0 0-2.156 2.581l-.576 1.56 1.539.634a2.6 2.6 0 0 1 .293.14 2.8 2.8 0 0 1 1.259 1.541l.424 1.113h6.047l.236-1.449c.264-1.614.037-4.72-2.487-6.117a4.539 4.539 0 0 0-2.166-.581z" class="prefix__cls-2" data-name="Path 441" transform="translate(-66.39 -25.24)"/>
    </g>
    <g id="prefix__Group_166" data-name="Group 166" transform="translate(0 3.847)">
        <path id="prefix__Path_442" d="M5.9 37.339l-.119-.724c-.024-.152-.582-3.763 2.053-5.223a3.658 3.658 0 0 1 1.75-.472h.244a3.658 3.658 0 0 1 1.75.472 3.864 3.864 0 0 1 1.763 2.118l.29.782-.773.317a3.79 3.79 0 0 0-.387.184 3.678 3.678 0 0 0-1.649 1.989l-.212.556z" class="prefix__cls-1" data-name="Path 442" transform="translate(-4.849 -30.054)"/>
        <path id="prefix__Path_443" d="M4.985 26.968a2.8 2.8 0 0 1 1.33.364A3.022 3.022 0 0 1 7.687 29a4.8 4.8 0 0 0-.477.229 4.529 4.529 0 0 0-2.036 2.437H1.792s-.514-3.146 1.618-4.328a2.8 2.8 0 0 1 1.33-.364h.244m0-1.728H4.74a4.557 4.557 0 0 0-2.169.581c-2.524 1.4-2.749 4.5-2.486 6.119l.236 1.449h6.043l.424-1.113a2.807 2.807 0 0 1 1.259-1.541 2.953 2.953 0 0 1 .3-.142l1.544-.632-.582-1.567a4.761 4.761 0 0 0-2.155-2.574 4.545 4.545 0 0 0-2.169-.582z" class="prefix__cls-2" data-name="Path 443" transform="translate(-.002 -25.24)"/>
    </g>
    <g id="prefix__Group_167" data-name="Group 167" transform="translate(4.664 6.367)">
        <path id="prefix__Path_444" d="M36.452 54.591l-.119-.724c-.029-.172-.657-4.249 2.3-5.889a4.094 4.094 0 0 1 1.955-.529h.28a4.094 4.094 0 0 1 1.955.529c2.96 1.64 2.33 5.716 2.3 5.889l-.119.724z" class="prefix__cls-3" data-name="Path 444" transform="translate(-35.397 -46.586)"/>
        <path id="prefix__Path_445" d="M36.079 43.508a3.232 3.232 0 0 1 1.536.421c2.461 1.364 1.868 4.994 1.868 4.994h-7.09s-.593-3.63 1.868-4.994a3.228 3.228 0 0 1 1.536-.421 1.294 1.294 0 0 1 .14.006 1.259 1.259 0 0 1 .14-.006m0-1.728h-.28a4.962 4.962 0 0 0-2.373.637 5.558 5.558 0 0 0-2.724 4.267 8.82 8.82 0 0 0-.01 2.516l.236 1.449h10.025l.236-1.449a8.887 8.887 0 0 0-.006-2.516 5.55 5.55 0 0 0-2.729-4.267 4.969 4.969 0 0 0-2.373-.637z" class="prefix__cls-2" data-name="Path 445" transform="translate(-30.604 -41.78)"/>
    </g>
    <g id="prefix__Group_168" data-name="Group 168" transform="translate(1.705)">
        <path id="prefix__Path_446" d="M19.233 10.416a2.373 2.373 0 1 1 2.373-2.373 2.376 2.376 0 0 1-2.373 2.373z" class="prefix__cls-1" data-name="Path 446" transform="translate(-15.996 -4.806)"/>
        <path id="prefix__Path_447" d="M14.427 1.728a1.509 1.509 0 1 1-1.509 1.509 1.508 1.508 0 0 1 1.509-1.509m0-1.728a3.237 3.237 0 1 0 3.237 3.237A3.241 3.241 0 0 0 14.427 0z" class="prefix__cls-2" data-name="Path 447" transform="translate(-11.19)"/>
    </g>
    <g id="prefix__Group_169" data-name="Group 169" transform="translate(11.823)">
        <path id="prefix__Path_448" d="M85.623 10.416A2.373 2.373 0 1 1 88 8.043a2.376 2.376 0 0 1-2.377 2.373z" class="prefix__cls-1" data-name="Path 448" transform="translate(-82.386 -4.806)"/>
        <path id="prefix__Path_449" d="M80.817 1.728a1.509 1.509 0 1 1-1.509 1.509 1.508 1.508 0 0 1 1.509-1.509m0-1.728a3.237 3.237 0 1 0 3.237 3.237A3.241 3.241 0 0 0 80.817 0z" class="prefix__cls-2" data-name="Path 449" transform="translate(-77.58)"/>
    </g>
    <g id="prefix__Group_170" data-name="Group 170" transform="translate(6.528 1.998)">
        <path id="prefix__Path_450" d="M51.114 23.991a2.605 2.605 0 1 1 2.6-2.6 2.607 2.607 0 0 1-2.6 2.6z" class="prefix__cls-3" data-name="Path 450" transform="translate(-47.646 -17.916)"/>
        <path id="prefix__Path_451" d="M46.309 14.838a1.742 1.742 0 1 1-1.742 1.742 1.742 1.742 0 0 1 1.742-1.742m0-1.728a3.469 3.469 0 1 0 3.469 3.47 3.473 3.473 0 0 0-3.469-3.47z" class="prefix__cls-2" data-name="Path 451" transform="translate(-42.84 -13.11)"/>
    </g>
</svg>
