<svg xmlns="http://www.w3.org/2000/svg" width="44.009" height="35.868" viewBox="0 0 44.009 35.868">
    <defs>
        <style>
            .prefix__cls-1{fill:#aaa}.prefix__cls-3{fill:#929497}
        </style>
    </defs>
    <g id="prefix__Group_1472" data-name="Group 1472" transform="translate(-2901.988 -1901.234)">
        <path id="prefix__Path_2089" d="M2921.069 1915.082a7.649 7.649 0 0 0 7.28-7.983 5.188 5.188 0 0 0-1.135-3.574 3.38 3.38 0 0 0-2.549-1.128 3.579 3.579 0 0 0-1.492.319c.03-.917.026-1.482.026-1.482h-16.074s0 .561.025 1.474a3.594 3.594 0 0 0-1.477-.311 3.382 3.382 0 0 0-2.55 1.128 5.192 5.192 0 0 0-1.135 3.574 7.65 7.65 0 0 0 7.265 7.983c.989 2.382 2.436 4.11 4.555 4.11v4.041h-3.708s-2.036-.121-2.036 1.52h-.832a1.416 1.416 0 1 0 0 2.832h15.854a1.416 1.416 0 1 0 0-2.832h-.832c0-1.641-2.036-1.52-2.036-1.52h-3.707v-4.041c2.122-.001 3.569-1.729 4.558-4.11zm3.6-11.335a2.047 2.047 0 0 1 1.545.68 3.969 3.969 0 0 1 .791 2.672 6.31 6.31 0 0 1-5.425 6.586 40.578 40.578 0 0 0 1.515-9.223 1.915 1.915 0 0 1 1.569-.715zm-21.327 3.352a3.966 3.966 0 0 1 .791-2.672 2.046 2.046 0 0 1 1.545-.68 1.929 1.929 0 0 1 1.56.7 40.567 40.567 0 0 0 1.515 9.24 6.309 6.309 0 0 1-5.416-6.587z" class="prefix__cls-1" data-name="Path 2089"/>
        <path id="prefix__Path_2090" fill="#ccc" d="M2952.97 1949.376c-1.181-10.852-5.725-11.211-5.725-11.211a8.44 8.44 0 0 0-4.171.462c-2.466.839-2.609.868-3.492.868s-1.026-.03-3.492-.868a8.439 8.439 0 0 0-4.17-.462s-4.544.359-5.725 11.211 6.854 3.184 6.854 3.184a10.729 10.729 0 0 1 6.534-2.283 10.581 10.581 0 0 1 6.533 2.283s8.035 7.668 6.854-3.184z" data-name="Path 2090" transform="translate(-14.251 -21.799)"/>
        <circle id="prefix__Ellipse_1240" cx="1.05" cy="1.05" r="1.05" class="prefix__cls-3" data-name="Ellipse 1240" transform="translate(2930.364 1919.613)"/>
        <circle id="prefix__Ellipse_1241" cx="1.05" cy="1.05" r="1.05" class="prefix__cls-3" data-name="Ellipse 1241" transform="translate(2930.364 1923.813)"/>
        <circle id="prefix__Ellipse_1242" cx="1.05" cy="1.05" r="1.05" class="prefix__cls-3" data-name="Ellipse 1242" transform="translate(2932.464 1921.713)"/>
        <circle id="prefix__Ellipse_1243" cx="1.05" cy="1.05" r="1.05" class="prefix__cls-3" data-name="Ellipse 1243" transform="translate(2928.264 1921.713)"/>
        <path id="prefix__Path_2091" d="M2940.084 1950.178h-1.062v-1.165a.8.8 0 0 0-.8-.8h-.052a.8.8 0 0 0-.8.8v1.165h-1.27a.8.8 0 0 0-.8.8v.052a.8.8 0 0 0 .8.8h1.267v1.17a.8.8 0 0 0 .8.8h.052a.8.8 0 0 0 .8-.8v-1.165h1.062a.8.8 0 0 0 .8-.8v-.052a.8.8 0 0 0-.797-.805z" class="prefix__cls-1" data-name="Path 2091" transform="translate(-19.707 -27.793)"/>
        <g id="prefix__Path_2092" fill="#1e59ea" stroke="none" stroke-miterlimit="10" data-name="Path 2092">
            <path d="M2971.357 1962.891l-1.003-1.002-2.456-2.456-1.002-1.002 1.002-1.003 2.88-2.878-2.88-2.88-1.002-1.002 1.002-1.002 2.456-2.456 1.003-1.002 1.002 1.002 2.879 2.88 2.879-2.88 1.002-1.002 1.002 1.002 2.456 2.456 1.002 1.002-1.002 1.003-2.879 2.879 2.88 2.878 1.001 1.003-1.002 1.002-2.456 2.456-1.002 1.002-1.002-1.002-2.88-2.88-2.878 2.88-1.002 1.002z" transform="translate(-39.587 -27.793)"/>
            <path fill="#fff" d="M2971.357 1948.212l-2.456 2.456 3.881 3.882-3.881 3.88 2.456 2.457 3.88-3.882 3.882 3.882 2.456-2.456-3.881-3.881 3.881-3.882-2.456-2.456-3.881 3.882-3.881-3.882m0-4.009l2.004 2.005 1.877 1.877 1.877-1.877 2.004-2.004 2.005 2.004 2.455 2.456 2.005 2.005-2.005 2.004-1.876 1.877 1.876 1.876 2.005 2.005-2.005 2.004-2.455 2.456-2.005 2.005-2.004-2.005-1.877-1.877-1.877 1.877-2.004 2.005-2.005-2.005-2.456-2.456-2.004-2.004 2.004-2.005 1.877-1.876-1.877-1.877-2.004-2.004 2.004-2.005 2.456-2.456 2.005-2.005z" transform="translate(-39.587 -27.793)"/>
        </g>
    </g>
</svg>
