<svg xmlns="http://www.w3.org/2000/svg" width="40" height="34.905" viewBox="0 0 40 34.905">
    <defs>
        <style>
            .prefix__cls-1{fill:#aaa}
        </style>
    </defs>
    <g id="prefix__Group_1476" data-name="Group 1476" transform="translate(-2901.988 -1901.234)">
        <path id="prefix__Path_2099" d="M2922.7 1916.266a8.3 8.3 0 0 0 7.9-8.666 5.633 5.633 0 0 0-1.233-3.88 3.671 3.671 0 0 0-2.767-1.224 3.887 3.887 0 0 0-1.619.346c.032-1 .028-1.608.028-1.608h-17.448s0 .609.028 1.6a3.9 3.9 0 0 0-1.6-.338 3.672 3.672 0 0 0-2.767 1.224 5.635 5.635 0 0 0-1.232 3.88 8.3 8.3 0 0 0 7.887 8.665c1.073 2.586 2.644 4.461 4.945 4.461v4.386h-4.022s-2.21-.132-2.21 1.65h-.9a1.537 1.537 0 1 0 0 3.074h17.209a1.537 1.537 0 1 0 0-3.074h-.9c0-1.781-2.21-1.65-2.21-1.65h-4.024v-4.386c2.291.001 3.862-1.875 4.935-4.46zm3.9-12.3a2.223 2.223 0 0 1 1.677.738 4.309 4.309 0 0 1 .858 2.9 6.849 6.849 0 0 1-5.889 7.149 44 44 0 0 0 1.644-10.012 2.081 2.081 0 0 1 1.71-.78zm-23.151 3.639a4.306 4.306 0 0 1 .858-2.9 2.222 2.222 0 0 1 1.677-.738 2.093 2.093 0 0 1 1.693.756 44.049 44.049 0 0 0 1.645 10.03 6.849 6.849 0 0 1-5.87-7.153z" class="prefix__cls-1" data-name="Path 2099"/>
        <path id="prefix__Path_2100" fill="#ccc" d="M2955.27 1950.341c-1.282-11.78-6.214-12.169-6.214-12.169a9.161 9.161 0 0 0-4.527.5c-2.677.91-2.833.943-3.791.943s-1.114-.032-3.791-.943a9.161 9.161 0 0 0-4.527-.5s-4.933.389-6.214 12.169 7.44 3.456 7.44 3.456a11.645 11.645 0 0 1 7.092-2.479 11.485 11.485 0 0 1 7.092 2.479s8.722 8.324 7.44-3.456z" data-name="Path 2100" transform="translate(-13.41 -20.512)"/>
        <circle id="prefix__Ellipse_1245" cx="1.14" cy="1.14" r="1.14" class="prefix__cls-1" data-name="Ellipse 1245" transform="translate(2932.79 1921.184)"/>
        <circle id="prefix__Ellipse_1246" cx="1.14" cy="1.14" r="1.14" class="prefix__cls-1" data-name="Ellipse 1246" transform="translate(2932.79 1925.744)"/>
        <circle id="prefix__Ellipse_1247" cx="1.14" cy="1.14" r="1.14" class="prefix__cls-1" data-name="Ellipse 1247" transform="translate(2935.07 1923.464)"/>
        <circle id="prefix__Ellipse_1248" cx="1.14" cy="1.14" r="1.14" class="prefix__cls-1" data-name="Ellipse 1248" transform="translate(2930.51 1923.464)"/>
        <path id="prefix__Path_2101" d="M2940.494 1950.347h-1.153v-1.264a.87.87 0 0 0-.87-.87h-.056a.87.87 0 0 0-.87.87v1.264h-1.375a.87.87 0 0 0-.87.87v.056a.87.87 0 0 0 .87.87h1.375v1.264a.87.87 0 0 0 .87.87h.056a.87.87 0 0 0 .87-.87v-1.264h1.153a.87.87 0 0 0 .87-.87v-.056a.87.87 0 0 0-.87-.87z" class="prefix__cls-1" data-name="Path 2101" transform="translate(-18.544 -26.153)"/>
    </g>
</svg>
