<svg xmlns="http://www.w3.org/2000/svg" width="20" height="18.667" viewBox="0 0 20 18.667">
    <defs>
        <style>
            .prefix__cls-1{fill:#666}
        </style>
    </defs>
    <g id="prefix__receipt" transform="translate(-16 -31.993)">
        <path id="prefix__Path_1277" d="M158.158 32.012a.678.678 0 00-.468.057l-1.025.512-1.033-.517a.667.667 0 00-.6 0l-1.046.517-1.033-.517a.667.667 0 00-.6 0l-1.027.515-1.019-.514a.667.667 0 00-.6 0l-1.05.519-1.033-.518a.669.669 0 00-.6 0l-1.024.515-1.035-.517a.667.667 0 00-.807.164.677.677 0 00-.158.444v9.988h8a1.333 1.333 0 011.332 1.34v4.331A2.641 2.641 0 00156 50.66h.5a2.167 2.167 0 002.167-2.167V32.66a.667.667 0 00-.509-.648zm-2.826 8.648h-5.312a.68.68 0 01-.687-.637.667.667 0 01.666-.7h5.313a.68.68 0 01.687.637.667.667 0 01-.666.7zm0-3.333h-7.979a.68.68 0 01-.687-.637.667.667 0 01.666-.7h7.979a.68.68 0 01.687.637.667.667 0 01-.666.7z" class="prefix__cls-1" data-name="Path 1277" transform="translate(-122.665)"/>
        <path id="prefix__Path_1278" d="M29.333 324.333v-3.667a.667.667 0 00-.667-.667H17.333A1.337 1.337 0 0016 321.335a7.25 7.25 0 00.6 3.649 3.485 3.485 0 003.4 1.682h10.237a.167.167 0 00.119-.284 2.648 2.648 0 01-1.023-2.049z" class="prefix__cls-1" data-name="Path 1278" transform="translate(0 -276.007)"/>
    </g>
</svg>
