<svg xmlns="http://www.w3.org/2000/svg" width="14.956" height="21.711" viewBox="0 0 14.956 21.711">
    <g transform="translate(-13643 960)">
        <path fill="#1e59ea" d="M1674.518-106v6.887l3.581-2.5 3.581 2.5V-106z" transform="translate(11972.379 -842.669)"/>
        <circle cx="5.657" cy="5.657" r="5.657" fill="#ccc" transform="translate(13644.82 -958.179)"/>
        <path fill="#322e3d" d="M1668.927-142.183a5.657 5.657 0 0 1 5.657 5.657 5.646 5.646 0 0 1-2.076 4.379v6.362l-3.581-2.5-3.581 2.5v-6.362a5.646 5.646 0 0 1-2.077-4.379 5.658 5.658 0 0 1 5.658-5.657m0-1.821a7.486 7.486 0 0 0-7.478 7.478 7.449 7.449 0 0 0 2.076 5.172v9.061l2.863-2 2.539-1.773 2.538 1.773 2.863 2v-9.061a7.448 7.448 0 0 0 2.077-5.172 7.487 7.487 0 0 0-7.478-7.478z" transform="translate(11981.551 -815.996)"/>
        <path fill="#fff" d="M1679.023-131.272l1.045 1.871 2.143-.03-1.1 1.841 1.1 1.841-2.143-.03-1.045 1.871-1.046-1.871-2.143.03 1.1-1.841-1.1-1.841 2.143.03z" transform="translate(11971.455 -824.932)"/>
    </g>
</svg>
