<svg xmlns="http://www.w3.org/2000/svg" width="17.143" height="23.999" viewBox="0 0 17.143 23.999">
    <g>
        <path d="M8.923 11.762h-.7a1.183 1.183 0 0 1-1.182-1.182H5.635a2.591 2.591 0 0 0 2.234 2.563v1.436h1.406v-1.436a2.588 2.588 0 0 0-.354-5.151h-.7a1.182 1.182 0 0 1 0-2.364h.7a1.183 1.183 0 0 1 1.182 1.182h1.406a2.591 2.591 0 0 0-2.234-2.563V2.814H7.869v1.433a2.588 2.588 0 0 0 .354 5.151h.7a1.182 1.182 0 1 1 0 2.364zm0 0" data-name="Path 1613"/>
        <path d="M0 0v22.4L2.618 24l2.019-.893 1.967.87 1.967-.87 1.967.87 1.967-.87 2.019.893 2.619-1.6V0zm15.737 21.614l-1.316.8-1.916-.847-1.967.87-1.967-.87-1.967.87-1.967-.87-1.915.847-1.316-.8V1.406h14.331zm0 0" data-name="Path 1614"/>
        <path d="M2.814 15.983h7.634v1.406H2.814zm0 0" data-name="Path 1615"/>
        <path d="M11.855 15.983h2.478v1.406h-2.474zm0 0" data-name="Path 1616"/>
        <path d="M6.695 18.797h7.634v1.4H6.695zm0 0" data-name="Path 1617"/>
        <path d="M2.814 18.797h2.474v1.4H2.814zm0 0" data-name="Path 1618"/>
    </g>
</svg>
