<svg xmlns="http://www.w3.org/2000/svg" width="20" height="16.255" viewBox="0 0 20 16.255">
    <path id="prefix__Path_2070" fill="#fff" d="M412.994 146.231a8.278 8.278 0 0 1-2.358.648 4.128 4.128 0 0 0 1.8-2.271 8.274 8.274 0 0 1-2.605 1 4.1 4.1 0 0 0-7.1 2.806 4.176 4.176 0 0 0 .106.937 11.659 11.659 0 0 1-8.458-4.287 4.111 4.111 0 0 0 1.27 5.477 4.1 4.1 0 0 1-1.858-.514v.053a4.11 4.11 0 0 0 3.292 4.024 4.259 4.259 0 0 1-1.079.142 4.1 4.1 0 0 1-.775-.073 4.109 4.109 0 0 0 3.836 2.849 8.242 8.242 0 0 1-5.1 1.756 8.508 8.508 0 0 1-.978-.056 11.668 11.668 0 0 0 17.962-9.833c0-.176 0-.355-.011-.53a8.394 8.394 0 0 0 2.05-2.125" data-name="Path 2070" transform="translate(-392.994 -144.306)"/>
</svg>
