<svg xmlns="http://www.w3.org/2000/svg" width="20.113" height="14.335" viewBox="0 0 20.113 14.335">
    <defs>
        <style>
            .prefix__cls-1{fill:#aaa}.prefix__cls-2{fill:#888}
        </style>
    </defs>
    <g id="prefix__Group_1178" data-name="Group 1178" transform="translate(-3281.93 -1003.553)">
        <path id="prefix__Path_1864" d="M3322.569 1016.882a3.788 3.788 0 0 0-3.535 0 3.689 3.689 0 0 0-1.67 2.025 5.369 5.369 0 0 1 3.052 3.24h4.123s.625-3.827-1.97-5.265z" class="prefix__cls-1" data-name="Path 1864" transform="translate(-22.562 -8.204)"/>
        <path id="prefix__Path_1865" d="M3287.5 1016.882a3.788 3.788 0 0 0-3.535 0c-2.595 1.438-1.969 5.265-1.969 5.265h4.115a5.513 5.513 0 0 1 2.478-2.965 5.6 5.6 0 0 1 .582-.278 3.692 3.692 0 0 0-1.671-2.022z" class="prefix__cls-1" data-name="Path 1865" transform="translate(0 -8.204)"/>
        <path id="prefix__Path_1866" d="M3303.95 1025.392a4.371 4.371 0 0 0-4.08 0c-2.995 1.659-2.272 6.076-2.272 6.076h8.625s.721-4.417-2.273-6.076z" class="prefix__cls-2" data-name="Path 1866" transform="translate(-9.928 -13.579)"/>
        <circle id="prefix__Ellipse_1009" cx="1.836" cy="1.836" r="1.836" class="prefix__cls-1" data-name="Ellipse 1009" transform="translate(3283.996 1003.553)"/>
        <circle id="prefix__Ellipse_1010" cx="1.836" cy="1.836" r="1.836" class="prefix__cls-1" data-name="Ellipse 1010" transform="translate(3296.306 1003.553)"/>
        <circle id="prefix__Ellipse_1011" cx="2.119" cy="2.119" r="2.119" class="prefix__cls-2" data-name="Ellipse 1011" transform="translate(3289.864 1005.985)"/>
    </g>
</svg>
