<svg xmlns="http://www.w3.org/2000/svg" width="19.645" height="19.636" viewBox="0 0 19.645 19.636">
    <path id="prefix__Path_1867" d="M3200.663 1004.915a5.7 5.7 0 0 0 5.425-5.949 3.868 3.868 0 0 0-.846-2.664 2.522 2.522 0 0 0-1.9-.84 2.67 2.67 0 0 0-1.111.238c.022-.683.019-1.1.019-1.1h-11.979s0 .419.019 1.1a2.668 2.668 0 0 0-1.1-.232 2.522 2.522 0 0 0-1.9.84 3.869 3.869 0 0 0-.846 2.664 5.7 5.7 0 0 0 5.415 5.949c.737 1.775 1.815 3.063 3.395 3.063v3.011h-2.762s-1.517-.09-1.517 1.132h-.62a1.055 1.055 0 1 0 0 2.111h11.815a1.055 1.055 0 0 0 0-2.111h-.62c0-1.223-1.517-1.132-1.517-1.132h-2.762v-3.011c1.576-.006 2.655-1.294 3.392-3.069zm2.679-8.447a1.525 1.525 0 0 1 1.151.507 2.956 2.956 0 0 1 .589 1.992 4.7 4.7 0 0 1-4.043 4.908 30.192 30.192 0 0 0 1.129-6.873 1.429 1.429 0 0 1 1.174-.534zm-15.894 2.5a2.958 2.958 0 0 1 .589-1.992 1.527 1.527 0 0 1 1.152-.507 1.435 1.435 0 0 1 1.161.519 30.267 30.267 0 0 0 1.129 6.886 4.7 4.7 0 0 1-4.031-4.908z" data-name="Path 1867" transform="translate(-3186.443 -994.596)" style="fill:#888"/>
</svg>
