<svg xmlns="http://www.w3.org/2000/svg" id="Component_36_11" width="33" height="33" data-name="Component 36 – 11" viewBox="0 0 33 33">
    <defs>
        <style>
            .cls-1{fill:none}.cls-2{fill:#fff}.cls-3{clip-path:url(#clip-path)}.cls-4{fill:#1e59ea;fill-rule:evenodd}
        </style>
        <clipPath id="clip-path">
            <path d="M0 0h15v15H0z" class="cls-1"/>
        </clipPath>
    </defs>
    <circle id="Ellipse_25" cx="16.5" cy="16.5" r="16.5" class="cls-2" data-name="Ellipse 25"/>
    <g id="Alert" class="cls-3" transform="translate(9 9)">
        <path id="Rectangle_479" d="M0 0h15v15H0z" class="cls-1" data-name="Rectangle 479"/>
        <path id="Path_1" d="M13.709 12.773H9.141a1.827 1.827 0 0 1-3.654 0H.919a.877.877 0 0 1-.819-.639.973.973 0 0 1 .274-1 3.671 3.671 0 0 0 1.462-2.92v-2.74a5.481 5.481 0 0 1 10.963 0v2.737a3.671 3.671 0 0 0 1.462 2.92.863.863 0 0 1 .274 1 .877.877 0 0 1-.826.642z" class="cls-4" data-name="Path 1" transform="translate(-.063)"/>
    </g>
</svg>
