<svg xmlns="http://www.w3.org/2000/svg" width="20" height="20.002" viewBox="0 0 20 20.002">
    <path id="prefix__iconmonstr-link-1" d="M5.157 7.266a5.348 5.348 0 0 1 8.241.818l-1.871 1.872a2.821 2.821 0 0 0-3.2-1.624 2.775 2.775 0 0 0-1.361.748l-3.582 3.588a2.793 2.793 0 0 0 3.95 3.95l1.106-1.105a7.111 7.111 0 0 0 3.149.479l-2.441 2.441a5.358 5.358 0 0 1-7.578-7.578l3.587-3.589zm5.7-5.7L8.413 4.01a7.112 7.112 0 0 1 3.149.478l1.105-1.105a2.793 2.793 0 0 1 3.95 3.95l-3.587 3.589a2.8 2.8 0 0 1-3.95 0 2.973 2.973 0 0 1-.606-.876L6.6 11.917a5.032 5.032 0 0 0 .663.818 5.353 5.353 0 0 0 7.578 0l3.587-3.588a5.358 5.358 0 1 0-7.576-7.578z" transform="translate(-.001)" style="fill:#1e59ea"/>
</svg>
