<svg xmlns="http://www.w3.org/2000/svg" id="Component_33_777" width="12" height="11.469" data-name="Component 33 – 777" viewBox="0 0 12 11.469">
    <path id="Path_293" fill="#666" d="M620.467-322.049l1.325 2.85a.548.548 0 0 0 .41.316l2.964.457a.587.587 0 0 1 .3.985l-2.144 2.219a.6.6 0 0 0-.157.511l.506 3.133a.552.552 0 0 1-.789.609l-2.651-1.479a.517.517 0 0 0-.507 0l-2.651 1.479a.552.552 0 0 1-.79-.609l.506-3.133a.6.6 0 0 0-.156-.511l-2.144-2.219a.587.587 0 0 1 .3-.985l2.963-.457a.548.548 0 0 0 .41-.316l1.326-2.85a.531.531 0 0 1 .979 0z" data-name="Path 293" transform="translate(-614.327 322.371)"/>
</svg>
