<svg xmlns="http://www.w3.org/2000/svg" width="13.789" height="13.79" viewBox="0 0 13.789 13.79">
    <path id="prefix__iconmonstr-link-1" d="M3.556 5.01a3.687 3.687 0 0 1 5.682.564l-1.291 1.29a1.945 1.945 0 0 0-2.2-1.12 1.914 1.914 0 0 0-.938.516L2.333 8.734a1.926 1.926 0 0 0 2.724 2.724l.762-.762a4.9 4.9 0 0 0 2.171.33l-1.683 1.683a3.694 3.694 0 0 1-5.224-5.225L3.556 5.01zm3.928-3.928L5.8 2.765a4.9 4.9 0 0 1 2.171.33l.762-.762a1.926 1.926 0 1 1 2.724 2.724L8.984 7.53a1.929 1.929 0 0 1-2.724 0 2.05 2.05 0 0 1-.418-.6l-1.29 1.286a3.469 3.469 0 0 0 .457.564 3.691 3.691 0 0 0 5.225 0l2.473-2.474a3.694 3.694 0 1 0-5.223-5.224z" transform="translate(-.001)" style="fill:#888"/>
</svg>
