<svg xmlns="http://www.w3.org/2000/svg" id="prefix__Component_92_1" width="16.112" height="15.397" data-name="Component 92 – 1" viewBox="0 0 16.112 15.397">
    <defs>
        <style>
            .prefix__cls-1{fill:#bbb}
        </style>
    </defs>
    <g id="prefix__Component_33_648" data-name="Component 33 648" transform="translate(-171.165 225.544)">
        <path id="prefix__Path_293-2" d="M179.915-225.113l1.889 3.827a.773.773 0 0 0 .584.424l4.224.614a.776.776 0 0 1 .656.878.773.773 0 0 1-.226.444l-3.056 2.979a.775.775 0 0 0-.223.686l.722 4.207a.775.775 0 0 1-.636.9.775.775 0 0 1-.489-.078l-3.778-1.986a.781.781 0 0 0-.722 0l-3.778 1.986a.774.774 0 0 1-1.047-.324.772.772 0 0 1-.078-.493l.721-4.207a.775.775 0 0 0-.223-.686l-3.056-2.979a.773.773 0 0 1-.014-1.1.774.774 0 0 1 .444-.227l4.224-.614a.775.775 0 0 0 .584-.424l1.889-3.827a.775.775 0 0 1 1.038-.35.772.772 0 0 1 .351.35z" class="prefix__cls-1" data-name="Path 293-2"/>
    </g>
    <path id="prefix__Path_1957" d="M187.043-218.926a.773.773 0 0 0 .226-.444.774.774 0 0 0-.656-.877l-4.224-.615a.773.773 0 0 1-.584-.424l-1.889-3.827a.773.773 0 0 0-.351-.35.752.752 0 0 0-.355-.072v13.226a.777.777 0 0 1 .373.086l3.778 1.986a.775.775 0 0 0 .489.078.776.776 0 0 0 .636-.9l-.722-4.206a.776.776 0 0 1 .223-.687z" class="prefix__cls-1" data-name="Path 1957" transform="translate(-171.165 225.544)"/>
    <path id="prefix__Path_1958" d="M178.527-225.113l-1.889 3.827a.775.775 0 0 1-.584.424l-4.224.615a.767.767 0 0 0-.444.226.773.773 0 0 0 .014 1.1l3.056 2.979a.776.776 0 0 1 .223.687l-.721 4.206a.772.772 0 0 0 .078.493.774.774 0 0 0 1.047.324l3.778-1.986a.779.779 0 0 1 .349-.086v-13.226a.769.769 0 0 0-.683.417z" data-name="Path 1958" transform="translate(-171.165 225.544)" style="fill:#1e59ea"/>
</svg>
