<svg xmlns="http://www.w3.org/2000/svg" id="Component_33_508" width="16.113" height="15.4" data-name="Component 33 – 508" viewBox="0 0 16.113 15.4">
    <defs>
        <style>
            .cls-1{fill:#bbb}
        </style>
    </defs>
    <path id="Path_293" d="M623.078-321.939l1.889 3.827a.775.775 0 0 0 .584.424l4.224.614a.775.775 0 0 1 .43 1.322l-3.056 2.979a.774.774 0 0 0-.223.686l.722 4.207a.776.776 0 0 1-1.125.817l-3.778-1.986a.776.776 0 0 0-.722 0l-3.778 1.986a.775.775 0 0 1-1.125-.817l.721-4.207a.774.774 0 0 0-.223-.686l-3.056-2.979a.775.775 0 0 1 .43-1.322l4.224-.614a.776.776 0 0 0 .584-.424l1.889-3.827a.775.775 0 0 1 1.389 0z" class="cls-1" data-name="Path 293" transform="translate(-614.327 322.371)"/>
</svg>
