<svg xmlns="http://www.w3.org/2000/svg" width="18.292" height="12.625" viewBox="0 0 18.292 12.625">
    <defs>
        <style>
            .prefix__cls-3{fill:#1e59ea}
        </style>
    </defs>
    <g id="prefix__Group_1140" data-name="Group 1140" transform="translate(361.609 1647.222)">
        <g id="prefix__Group_1139" data-name="Group 1139">
            <path id="prefix__Path_1849" d="M-344.8-1639.341c-.676-6.21-3.276-6.415-3.276-6.415a4.824 4.824 0 0 0-2.386.264 5.034 5.034 0 0 1-2 .5 5.027 5.027 0 0 1-2-.5 4.828 4.828 0 0 0-2.387-.264s-2.6.2-3.276 6.415 3.922 1.822 3.922 1.822a6.141 6.141 0 0 1 3.739-1.307 6.054 6.054 0 0 1 3.739 1.307s4.599 4.388 3.925-1.822z" data-name="Path 1849" style="fill:#d2dfff"/>
            <path id="prefix__Path_1850" d="M-348.677-1645.805a3.023 3.023 0 0 1 .6.049s2.6.2 3.276 6.415c.28 2.574-.345 3.327-1.174 3.327-1.171 0-2.748-1.505-2.748-1.505a6.054 6.054 0 0 0-3.739-1.307 6.141 6.141 0 0 0-3.739 1.307s-1.576 1.505-2.748 1.505c-.828 0-1.454-.754-1.174-3.327.676-6.21 3.276-6.415 3.276-6.415a3.023 3.023 0 0 1 .6-.049 5.573 5.573 0 0 1 1.788.313 5.027 5.027 0 0 0 2 .5 5.034 5.034 0 0 0 2-.5 5.572 5.572 0 0 1 1.787-.313m0-1.417a7.073 7.073 0 0 0-2.244.388c-1.239.422-1.251.422-1.542.422s-.3 0-1.542-.422a7.064 7.064 0 0 0-2.244-.388 4.73 4.73 0 0 0-.812.064c-.813.107-3.742.963-4.472 7.664-.215 1.979.025 3.281.757 4.1a2.418 2.418 0 0 0 1.826.8c1.575 0 3.18-1.382 3.691-1.862a4.8 4.8 0 0 1 2.8-.949 4.647 4.647 0 0 1 2.79.942c.5.474 2.115 1.869 3.7 1.869a2.418 2.418 0 0 0 1.827-.8c.731-.816.972-2.118.756-4.1-.729-6.7-3.658-7.557-4.472-7.664a4.71 4.71 0 0 0-.812-.064z" data-name="Path 1850" style="fill:#322e3d"/>
        </g>
        <circle id="prefix__Ellipse_893" cx=".601" cy=".601" r=".601" class="prefix__cls-3" data-name="Ellipse 893" transform="translate(-349.583 -1643.898)"/>
        <circle id="prefix__Ellipse_894" cx=".601" cy=".601" r=".601" class="prefix__cls-3" data-name="Ellipse 894" transform="translate(-349.583 -1641.494)"/>
        <circle id="prefix__Ellipse_895" cx=".601" cy=".601" r=".601" class="prefix__cls-3" data-name="Ellipse 895" transform="translate(-348.381 -1642.696)"/>
        <circle id="prefix__Ellipse_896" cx=".601" cy=".601" r=".601" class="prefix__cls-3" data-name="Ellipse 896" transform="translate(-350.785 -1642.696)"/>
        <path id="prefix__Path_1851" d="M-355.3-1642.312h-.608v-.666a.459.459 0 0 0-.459-.459h-.029a.46.46 0 0 0-.459.459v.666h-.725a.459.459 0 0 0-.458.459v.03a.458.458 0 0 0 .458.458h.725v.667a.459.459 0 0 0 .459.458h.029a.458.458 0 0 0 .459-.458v-.667h.608a.459.459 0 0 0 .459-.458v-.03a.46.46 0 0 0-.459-.459z" class="prefix__cls-3" data-name="Path 1851"/>
    </g>
</svg>
