<svg xmlns="http://www.w3.org/2000/svg" width="22.716" height="16.521" viewBox="0 0 22.716 16.521">
    <path fill="#322e3d" d="M21.619 10.065A10.858 10.858 0 0 0 16.456 8l-.252.5a9.973 9.973 0 0 1 4.896 2.6 15.188 15.188 0 0 0-7.744-2.065A15.188 15.188 0 0 0 5.614 11.1a10.188 10.188 0 0 1 4.9-2.593L10.261 8A10.789 10.789 0 0 0 5.1 10.065S2.454 13.9 2 21.423a9.754 9.754 0 0 0 6.712 3.1l.847-1.128a10.344 10.344 0 0 1-4.461-3 13.019 13.019 0 0 0 8.261 2.581 13.019 13.019 0 0 0 8.261-2.581 10.338 10.338 0 0 1-4.461 3L18 24.521a9.754 9.754 0 0 0 6.712-3.1c-.449-7.521-3.093-11.356-3.093-11.356zM10 19.358a1.948 1.948 0 0 1-1.8-2.065 1.948 1.948 0 0 1 1.8-2.065 1.948 1.948 0 0 1 1.807 2.065A1.948 1.948 0 0 1 10 19.358zm6.712 0a1.948 1.948 0 0 1-1.807-2.065 1.948 1.948 0 0 1 1.807-2.065 1.948 1.948 0 0 1 1.807 2.065 1.948 1.948 0 0 1-1.805 2.065z" transform="translate(-2 -8)"/>
</svg>
