<svg xmlns="http://www.w3.org/2000/svg" width="46.419" height="46.419" viewBox="0 0 46.419 46.419">
    <path fill="#749cff" d="M30.708 11.845l-7.5 7.5-7.5-7.5 2.174-2.174L23.209 15l5.327-5.325zm-7.5-7.976a19.341 19.341 0 1 1-19.34 19.34A19.363 19.363 0 0 1 23.209 3.868zm0-3.868a23.209 23.209 0 1 0 23.21 23.208A23.21 23.21 0 0 0 23.209 0zm0 27.078c-4.51 0-8.017 3.164-9.85 5.41l.911 1.122a15.916 15.916 0 0 1 8.939-2.53 15.916 15.916 0 0 1 8.939 2.53l.911-1.122c-1.83-2.247-5.336-5.411-9.847-5.411zm-6.768-9.672a2.9 2.9 0 1 0 2.9 2.9 2.9 2.9 0 0 0-2.9-2.9zm13.539 0a2.9 2.9 0 1 0 2.9 2.9 2.9 2.9 0 0 0-2.9-2.9z"/>
</svg>
