<svg xmlns="http://www.w3.org/2000/svg" id="Component_97_34" width="46.419" height="46.419" viewBox="0 0 46.419 46.419">
    <defs>
        <style>
            .cls-1{fill:#ccc}
        </style>
    </defs>
    <path id="iconmonstr-smiley-6" d="M23.209 3.868A19.341 19.341 0 1 1 3.868 23.209 19.363 19.363 0 0 1 23.209 3.868zm0-3.868a23.209 23.209 0 1 0 23.209 23.209A23.21 23.21 0 0 0 23.209 0zM16.44 15.473a2.9 2.9 0 1 0 2.9 2.9 2.9 2.9 0 0 0-2.9-2.9zm13.539 0a2.9 2.9 0 1 0 2.9 2.9 2.9 2.9 0 0 0-2.9-2.9z" class="cls-1"/>
    <path id="Path_2209" d="M-14328.119 9145.149h-21.344s2.693 7.365 10.521 7.365 10.823-7.365 10.823-7.365z" class="cls-1" transform="translate(14362.16 -9117.16)"/>
</svg>
