<svg xmlns="http://www.w3.org/2000/svg" width="15.695" height="15.695" viewBox="0 0 15.695 15.695">
    <path fill="#322e3d" d="M7.848 0a7.849 7.849 0 0 0-6.807 11.754L.03 14.894a.613.613 0 0 0 .772.772l3.14-1.011A7.848 7.848 0 1 0 7.848 0zm0 14.469a6.6 6.6 0 0 1-3.5-1 .613.613 0 0 0-.518-.069l-2.267.73.73-2.267a.614.614 0 0 0-.064-.513 6.622 6.622 0 1 1 5.618 3.117zm.766-6.621a.766.766 0 1 1-.766-.766.766.766 0 0 1 .766.766zm3.065 0a.766.766 0 1 1-.766-.766.766.766 0 0 1 .766.766zm-6.131 0a.766.766 0 1 1-.766-.766.766.766 0 0 1 .766.766zm0 0"/>
</svg>
