<svg xmlns="http://www.w3.org/2000/svg" width="22.004" height="22.537" viewBox="0 0 22.004 22.537">
    <g id="prefix__settings-sharp" style="fill:#666">
        <path d="M44.08 47.037h-4.127c-.485-.01-.894-.347-.994-.822l-.003-.017-.003-.016-.343-2.438c-.475-.219-.928-.483-1.352-.79l-2.294.922-.005.002-.004.001c-.116.045-.238.067-.363.067-.357 0-.693-.19-.876-.498l-.001-.002-.002-.003-2.056-3.55c-.252-.431-.155-.977.231-1.296l.005-.004.006-.004 1.952-1.528c-.027-.262-.042-.526-.044-.789v-.006c.002-.258.016-.518.043-.775l-1.951-1.528-.006-.004-.005-.004c-.386-.32-.483-.865-.23-1.298l2.055-3.548.002-.003.001-.002c.183-.308.519-.499.877-.499.124 0 .246.023.362.067l.004.001.005.002 2.296.923c.424-.304.876-.568 1.35-.788l.343-2.44.002-.008.001-.008c.085-.485.504-.844.996-.854h4.133c.485.01.894.348.993.823l.004.016.002.017.343 2.437c.476.219.93.484 1.354.79l2.293-.922.004-.001.005-.002c.116-.044.238-.067.362-.067.358 0 .693.19.876.498l.002.003.001.002 2.057 3.55c.252.432.155.978-.232 1.297l-.005.004-.005.004-1.952 1.528c.027.262.041.526.043.788v.007c-.001.257-.016.517-.042.775l1.951 1.527.005.004.005.005c.387.319.484.864.231 1.297l-2.056 3.549-.001.002-.001.003c-.183.307-.52.498-.877.498-.124 0-.246-.022-.362-.066l-.005-.002-.004-.002-2.296-.922c-.425.304-.877.568-1.35.788l-.344 2.439-.001.008-.001.009c-.086.485-.505.843-.997.853h-.005zm-2.062-13.84c-1.694 0-3.07 1.378-3.07 3.072 0 1.693 1.377 3.071 3.07 3.071 1.695 0 3.073-1.378 3.073-3.071-.006-1.688-1.384-3.067-3.073-3.072z" style="stroke:none" transform="translate(-31.017 -25)"/>
        <path d="M39.962 26c-.254.005-.47.19-.513.44l-.383 2.714c-.618.262-1.2.602-1.733 1.012l-2.556-1.027c-.06-.023-.123-.034-.184-.034-.18 0-.351.093-.447.254l-2.057 3.55c-.127.22-.078.499.118.66l2.174 1.702c-.047.33-.072.664-.074.998.003.338.027.676.074 1.012l-2.174 1.702c-.196.161-.245.44-.118.66l2.057 3.55c.096.16.268.253.446.253.062 0 .125-.01.185-.034l2.556-1.027c.53.414 1.113.754 1.733 1.013l.383 2.714c.05.244.264.42.513.425h4.113c.255-.005.47-.19.514-.44l.382-2.713c.619-.263 1.201-.603 1.733-1.013l2.556 1.027c.06.023.123.034.185.034.179 0 .35-.092.447-.254l2.056-3.55c.128-.22.078-.498-.117-.66l-2.174-1.702c.047-.33.071-.664.073-.997-.002-.339-.027-.677-.073-1.012l2.174-1.702c.195-.161.245-.44.117-.66l-2.056-3.55c-.096-.161-.268-.254-.447-.254-.061 0-.124.011-.185.034l-2.553 1.027c-.531-.413-1.115-.754-1.736-1.013l-.382-2.714c-.051-.244-.264-.42-.514-.425h-4.113m2.057 13.84c-1.973 0-3.572-1.599-3.572-3.571 0-1.973 1.6-3.572 3.572-3.572 1.97.006 3.566 1.602 3.572 3.572 0 1.972-1.6 3.571-3.572 3.571M39.952 25h4.143c.719.014 1.325.516 1.473 1.22l.007.033.004.033.306 2.172c.332.166.653.353.96.56l2.042-.82.01-.004.008-.003c.173-.066.355-.1.54-.1.533 0 1.033.284 1.306.742l.003.005.003.006 2.057 3.55c.375.643.23 1.456-.346 1.932l-.01.008-.01.008-1.74 1.362c.014.186.02.372.022.558v.012c0 .182-.008.364-.02.546l1.737 1.36.01.009.01.008c.577.476.722 1.29.345 1.935l-2.055 3.547-.003.005-.003.005c-.272.459-.773.743-1.306.743-.185 0-.367-.033-.54-.099l-.009-.003-.008-.004-2.047-.822c-.306.206-.626.392-.955.558l-.307 2.175-.002.017-.003.017c-.127.719-.748 1.252-1.479 1.266h-4.153c-.718-.014-1.324-.515-1.472-1.22l-.007-.032-.005-.034-.306-2.172c-.331-.166-.651-.353-.958-.56l-2.044.821-.009.004-.008.003c-.174.066-.355.1-.54.1-.533 0-1.034-.285-1.306-.743l-.003-.005-.003-.005-2.057-3.55c-.375-.643-.23-1.456.346-1.932l.01-.009.01-.008 1.74-1.361c-.014-.186-.021-.373-.023-.558V36.263c.001-.181.008-.364.021-.546l-1.738-1.36-.01-.008-.01-.009c-.576-.475-.721-1.29-.344-1.935l2.055-3.547.002-.005.003-.005c.273-.458.773-.743 1.307-.743.185 0 .366.034.54.1l.008.003.009.003 2.046.822c.307-.205.626-.391.956-.557l.306-2.175.003-.017.003-.017c.126-.72.748-1.252 1.478-1.267h.01zm2.067 13.84c1.418 0 2.572-1.153 2.572-2.571-.005-1.413-1.16-2.568-2.575-2.572-1.415 0-2.569 1.154-2.569 2.572 0 1.418 1.154 2.571 2.572 2.571z" style="fill:#fff;stroke:none" transform="translate(-31.017 -25)"/>
    </g>
</svg>
