<svg xmlns="http://www.w3.org/2000/svg" width="22" height="22" viewBox="0 0 22 22">
    <defs>
        <clipPath id="prefix__clip-path">
            <path d="M0 0H22V22H0z" class="Bell--light-1"/>
        </clipPath>
        <style>
            .Bell--light-1{fill:none}
        </style>
    </defs>
    <g id="prefix__Symbol_154_23" data-name="Symbol 154 – 23">
        <path id="prefix__Rectangle_479" d="M0 0H22V22H0z" class="Bell--light-1" data-name="Rectangle 479"/>
        <path id="prefix__Path_1" d="M20.63 19.25h-6.884a2.754 2.754 0 0 1-5.508 0H1.353a1.322 1.322 0 0 1-1.239-.963 1.467 1.467 0 0 1 .413-1.512 5.533 5.533 0 0 0 2.2-4.4V8.25a8.262 8.262 0 0 1 16.523 0v4.125a5.533 5.533 0 0 0 2.2 4.4 1.3 1.3 0 0 1 .413 1.512 1.322 1.322 0 0 1-1.233.963z" data-name="Path 1" transform="translate(-.063)" style="fill:#ccc;fill-rule:evenodd"/>
    </g>
</svg>
