<svg xmlns="http://www.w3.org/2000/svg" width="26.013" height="26.012" viewBox="0 0 26.013 26.012">
    <path id="prefix__messenger" d="M12.5 0A12.5 12.5 0 0 0 1.658 18.723l-1.611 5a.977.977 0 0 0 1.229 1.229l5-1.611A12.5 12.5 0 1 0 12.5 0zm0 23.047a10.516 10.516 0 0 1-5.583-1.6.977.977 0 0 0-.817-.1L2.49 22.51l1.163-3.61a.977.977 0 0 0-.1-.817 10.547 10.547 0 1 1 8.947 4.964zM13.721 12.5a1.221 1.221 0 1 1-1.221-1.221 1.221 1.221 0 0 1 1.221 1.221zm4.883 0a1.221 1.221 0 1 1-1.221-1.221A1.221 1.221 0 0 1 18.6 12.5zm-9.766 0a1.221 1.221 0 1 1-1.221-1.221A1.221 1.221 0 0 1 8.838 12.5zm0 0" transform="translate(.513 .5)" style="fill:#666;stroke:#666"/>
</svg>
