<svg xmlns="http://www.w3.org/2000/svg" width="18.022" height="17.13" viewBox="0 0 18.022 17.13">
    <path id="prefix__Path_293" d="M623.56-321.919l1.993 4a.818.818 0 0 0 .616.444l4.456.642a.809.809 0 0 1 .453 1.384l-3.224 3.118a.806.806 0 0 0-.235.718l.761 4.4a.817.817 0 0 1-1.187.855l-3.985-2.078a.824.824 0 0 0-.762 0l-3.986 2.078a.817.817 0 0 1-1.187-.855l.761-4.4a.806.806 0 0 0-.235-.718l-3.224-3.118a.809.809 0 0 1 .453-1.384l4.456-.642a.818.818 0 0 0 .616-.444l1.993-4a.821.821 0 0 1 1.467 0z" data-name="Path 293" transform="translate(-613.816 322.871)" style="fill:#f2f2f2;stroke:#ccc"/>
</svg>
