<svg xmlns="http://www.w3.org/2000/svg" width="15" height="15.001" viewBox="0 0 15 15.001">
    <defs>
        <style>
            .BlueLink-1{fill:#1e59ea}
        </style>
    </defs>
    <path id="iconmonstr-link-1" d="M3.868 5.45a4.011 4.011 0 0 1 6.181.614l-1.4 1.4a2.115 2.115 0 0 0-2.4-1.218 2.082 2.082 0 0 0-1.021.561L2.538 9.5A2.095 2.095 0 0 0 5.5 12.464l.829-.829a5.333 5.333 0 0 0 2.362.359l-1.83 1.831a4.019 4.019 0 0 1-5.683-5.684l2.69-2.691zm4.273-4.273L6.31 3.008a5.334 5.334 0 0 1 2.362.359l.828-.829A2.095 2.095 0 1 1 12.464 5.5L9.773 8.191a2.1 2.1 0 0 1-2.963 0 2.23 2.23 0 0 1-.454-.657l-1.4 1.4a3.774 3.774 0 0 0 .5.614 4.015 4.015 0 0 0 5.684 0l2.69-2.691a4.018 4.018 0 1 0-5.689-5.68z" class="BlueLink-1" transform="translate(-.001)"/>
</svg>
