<svg xmlns="http://www.w3.org/2000/svg" width="18.711" height="18.711" viewBox="0 0 18.711 18.711">
    <defs>
        <style>
            .Bluegear-1{fill:#1e59ea}
        </style>
    </defs>
    <path id="iconmonstr-gear-1" d="M18.711 10.615V8.1c-1.287-.458-2.1-.586-2.51-1.574-.411-.991.078-1.664.66-2.89L15.08 1.849c-1.217.578-1.9 1.072-2.89.66C11.2 2.1 11.071 1.281 10.615 0H8.1c-.454 1.275-.584 2.1-1.574 2.51-.991.412-1.662-.076-2.89-.66L1.849 3.631c.581 1.222 1.072 1.9.66 2.89S1.275 7.642 0 8.1v2.52c1.272.452 2.1.584 2.51 1.574s-.089 1.689-.66 2.89l1.781 1.782c1.218-.579 1.9-1.072 2.89-.66.99.41 1.12 1.231 1.574 2.51h2.52c.454-1.275.585-2.1 1.58-2.512.984-.409 1.653.079 2.883.663l1.781-1.782c-.58-1.219-1.072-1.9-.661-2.889s1.24-1.128 2.513-1.581zm-9.356 1.859a3.118 3.118 0 1 1 3.118-3.118 3.119 3.119 0 0 1-3.118 3.118z" class="Bluegear-1"/>
</svg>
