<svg xmlns="http://www.w3.org/2000/svg" id="Component_55_4" width="18.956" height="19.011" data-name="Component 55 – 4" viewBox="0 0 18.956 19.011">
    <defs>
        <style>
            .Calendar-1{fill:#322e3d}.Calendar-2{fill:#fff}.Calendar-3{fill:#1e59ea}.Calendar-4{fill:#666}
        </style>
    </defs>
    <path id="Path_407" d="M13.636 7.01H2.091A2.1 2.1 0 0 0 0 9.111v13.2a2.1 2.1 0 0 0 2.091 2.1h14.774a2.1 2.1 0 0 0 2.091-2.1v-9.955a5.338 5.338 0 0 0-5.32-5.346z" class="Calendar-1" data-name="Path 407" transform="translate(0 -5.405)"/>
    <path id="Path_408" d="M20.259 15.49H8.544a.032.032 0 0 0-.034.032v12.445a.032.032 0 0 0 .034.033h14.99a.032.032 0 0 0 .034-.032v-9.387a3.21 3.21 0 0 0-3.309-3.091z" class="Calendar-2" data-name="Path 408" transform="translate(-6.562 -10.944)"/>
    <path id="Path_409" d="M23.561 20.039H8.5V15.49h11.746a3.214 3.214 0 0 1 3.318 3.1v1.451z" class="Calendar-3" data-name="Path 409" transform="translate(-6.554 -11.68)"/>
    <path id="Rectangle_2157" d="M0 0h1.609v4.821H0z" class="Calendar-1" data-name="Rectangle 2157" transform="translate(4.176)"/>
    <path id="Rectangle_2158" d="M0 0h1.609v4.821H0z" class="Calendar-1" data-name="Rectangle 2158" transform="translate(13.17)"/>
    <path id="Rectangle_2159" d="M0 0h1.989v1.992H0z" class="Calendar-4" data-name="Rectangle 2159" transform="translate(5.145 13.67)"/>
    <path id="Rectangle_2160" d="M0 0h1.989v1.992H0z" class="Calendar-4" data-name="Rectangle 2160" transform="translate(8.449 10.245)"/>
    <path id="Rectangle_2161" d="M0 0h1.989v1.992H0z" class="Calendar-4" data-name="Rectangle 2161" transform="translate(8.449 13.67)"/>
    <path id="Rectangle_2162" d="M0 0h1.989v1.992H0z" class="Calendar-4" data-name="Rectangle 2162" transform="translate(11.75 13.67)"/>
    <path id="Rectangle_2163" d="M0 0h1.989v1.992H0z" class="Calendar-4" data-name="Rectangle 2163" transform="translate(11.818 10.245)"/>
</svg>
