<svg xmlns="http://www.w3.org/2000/svg" width="30" height="33.333" viewBox="0 0 30 33.333">
    <defs>
        <style>
            .Locker-1{fill:#ccc}
        </style>
    </defs>
    <path id="lock-closed" d="M6 13.333V10a10 10 0 1 1 20 0v3.333h1.667A3.333 3.333 0 0 1 31 16.667V30a3.333 3.333 0 0 1-3.333 3.333H4.333A3.333 3.333 0 0 1 1 30V16.667a3.343 3.343 0 0 1 3.333-3.333zm8.333 11.217v3.783h3.333V24.55a3.333 3.333 0 1 0-3.333 0zM11 10v3.333h10V10a5 5 0 1 0-10 0z" class="Locker-1" transform="translate(-1)"/>
</svg>
