<svg xmlns="http://www.w3.org/2000/svg" id="Logo_superplayer_grayscale" width="273.093" height="56" data-name="Logo superplayer grayscale" viewBox="0 0 273.093 56">
    <defs>
        <style>
            .cls-1{fill:#bbb}
        </style>
    </defs>
    <path id="Path_100" d="M3815.141 1349.453h-8.4v-8.277c0-7.461-4.818-12.194-12.2-12.194s-12.456 4.733-12.456 12.194v8.277h-8.153v-8.277a20.608 20.608 0 1 1 41.216 0z" class="cls-1" data-name="Path 100" transform="translate(-3773.925 -1320.432)"/>
    <path id="Rectangle_177" d="M0 0h41.224v6.002H0z" class="cls-1" data-name="Rectangle 177" transform="translate(88.234 .006)"/>
    <path id="Rectangle_178" d="M0 0h41.225v7.203H0z" class="cls-1" data-name="Rectangle 178" transform="translate(0 36.189)"/>
    <path id="Rectangle_179" d="M0 0h41.224v6.002H0z" class="cls-1" data-name="Rectangle 179" transform="translate(88.234 11.057)"/>
    <path id="Rectangle_180" d="M0 0h41.224v4.871H0z" class="cls-1" data-name="Rectangle 180" transform="translate(88.234 19.446)"/>
    <path id="Rectangle_181" d="M0 0h7.203v13.645H0z" class="cls-1" data-name="Rectangle 181" transform="translate(7.613 40.49)"/>
    <path id="Rectangle_182" d="M0 0h7.203v13.645H0z" class="cls-1" data-name="Rectangle 182" transform="translate(26.702 40.418)"/>
    <path id="Rectangle_183" d="M0 0h7.203v27.828H0z" class="cls-1" data-name="Rectangle 183" transform="translate(47.936 6.195)"/>
    <path id="Rectangle_184" d="M0 0h7.203v27.828H0z" class="cls-1" data-name="Rectangle 184" transform="translate(61.576 6.195)"/>
    <path id="Path_101" d="M3983.533 1418.681h20.608v5.249h-14.313c0 1.024-.208 1.881 1.025 2.6 1.747 1.025 6.4.782 8.688.782h25.246v6h-25.246c-7.133 0-16.009 0-16.009-8.412z" class="cls-1" data-name="Path 101" transform="translate(-3895.299 -1377.32)"/>
    <path id="Path_102" d="M4024.788 1398.5h-20.608v-5.249h14.313c0-1.024.209-1.882-1.025-2.605-1.747-1.025-6.4-.783-8.688-.783h-25.247v-6h25.247c7.132 0 16.009 0 16.009 8.412z" class="cls-1" data-name="Path 102" transform="translate(-3895.299 -1357.157)"/>
    <path id="Path_103" d="M4118.827 1381.579H4105.3c-4.791 0-16.009 0-16.009-11.141v-7.011h14.8v6h-8.8v1.008c0 2.911.737 5.139 10.007 5.139h13.529z" class="cls-1" data-name="Path 103" transform="translate(-3956.537 -1345.325)"/>
    <path id="Path_104" d="M4118.827 1338.589h-14.74v-6h8.737v-1.009c0-2.911-.735-5.138-10.007-5.138h-13.529v-6h13.529c4.791 0 16.009 0 16.009 11.14z" class="cls-1" data-name="Path 104" transform="translate(-3956.537 -1320.432)"/>
    <path id="Rectangle_185" d="M0 0h7.203v8.218H0z" class="cls-1" data-name="Rectangle 185" transform="translate(96.249 3.379)"/>
    <path id="Rectangle_186" d="M0 0h7.203v8.218H0z" class="cls-1" data-name="Rectangle 186" transform="translate(114.271 3.379)"/>
    <path id="Rectangle_187" d="M0 0h29.481v7.168H0z" class="cls-1" data-name="Rectangle 187" transform="translate(44.519)"/>
    <path id="Rectangle_188" d="M0 0h29.481v7.168H0z" class="cls-1" data-name="Rectangle 188" transform="translate(44.519 29.021)"/>
    <path id="Rectangle_189" d="M0 0h7.168v54.082H0z" class="cls-1" data-name="Rectangle 189" transform="translate(77.774 .05)"/>
    <path id="Rectangle_190" d="M0 0h7.168v54.126H0z" class="cls-1" data-name="Rectangle 190" transform="translate(176.4 .006)"/>
    <path id="Rectangle_191" d="M0 0h7.168v54.126H0z" class="cls-1" data-name="Rectangle 191" transform="translate(166.846 .006)"/>
    <path id="Rectangle_192" d="M0 0h7.168v54.126H0z" class="cls-1" data-name="Rectangle 192" transform="translate(221.382 .006)"/>
    <path id="Rectangle_193" d="M0 0h7.168v54.223H0z" class="cls-1" data-name="Rectangle 193" transform="translate(265.925 .006)"/>
    <path id="Path_105" d="M4233.68 1327.711a7.547 7.547 0 0 1 7.538 7.538v6.761a7.538 7.538 0 1 1-15.075 0v-6.761a7.546 7.546 0 0 1 7.538-7.538m0-7.2a14.783 14.783 0 0 0-14.74 14.741v6.761a14.74 14.74 0 1 0 29.481 0v-6.761a14.785 14.785 0 0 0-14.741-14.741z" class="cls-1" data-name="Path 105" transform="translate(-4031.612 -1320.473)"/>
    <path id="Path_106" d="M4339.49 1327.887a7.545 7.545 0 0 1 7.537 7.537v6.761a7.537 7.537 0 1 1-15.075 0v-6.761a7.546 7.546 0 0 1 7.538-7.537m0-7.2a14.784 14.784 0 0 0-14.741 14.74v6.761a14.74 14.74 0 0 0 29.481 0v-6.761a14.784 14.784 0 0 0-14.74-14.74z" class="cls-1" data-name="Path 106" transform="translate(-4092.882 -1320.575)"/>
    <path id="Rectangle_194" d="M0 0h16.085v7.203H0z" class="cls-1" data-name="Rectangle 194" transform="translate(257.006 14.629)"/>
    <path id="Rectangle_195" d="M0 0h10.946v7.203H0z" class="cls-1" data-name="Rectangle 195" transform="translate(74 14.555)"/>
    <path id="Rectangle_196" d="M0 0h11.744v7.203H0z" class="cls-1" data-name="Rectangle 196" transform="translate(162.29 18.156)"/>
</svg>
