<svg xmlns="http://www.w3.org/2000/svg" id="prefix__Group_931" width="20" height="14.013" data-name="Group 931" viewBox="0 0 20 14.013">
    <path id="prefix__Path_1640" d="M19.6 2.187A2.467 2.467 0 0 0 17.834.425C16.263 0 10.021 0 10.021 0S3.758 0 2.187.425A2.467 2.467 0 0 0 .425 2.187 25.74 25.74 0 0 0 0 7.006a25.74 25.74 0 0 0 .425 4.819 2.5 2.5 0 0 0 1.762 1.762c1.571.425 7.813.425 7.813.425s6.263 0 7.813-.425a2.5 2.5 0 0 0 1.762-1.762A25.741 25.741 0 0 0 20 7.006a25.108 25.108 0 0 0-.4-4.819" data-name="Path 1640" style="fill:#e7211b"/>
    <path id="prefix__Path_1641" d="M37.7 24.908l5.2-3.015-5.2-2.993z" data-name="Path 1641" transform="translate(-29.696 -14.887)" style="fill:#fff"/>
</svg>
